<svg width="160" height="256" viewBox="0 0 160 256" fill="none" xmlns="http://www.w3.org/2000/svg">
<path d="M94.6 256V252C98.3333 252 101.133 251.467 103 250.4C105.133 249.067 106.6 247.467 107.4 245.6C108.467 243.467 109 241.2 109 238.8C109.267 236.133 109.4 233.467 109.4 230.8V191.6H0.2L135.4 -1.81198e-05V171.6H159.8V191.6H135.4V230.8C135.4 236.133 136.333 241.067 138.2 245.6C140.333 249.867 144.6 252 151 252V256H94.6ZM109.4 59.6C96.0667 78.5333 82.7333 97.2 69.4 115.6C56.3333 134 43.1333 152.667 29.8 171.6H109.4V59.6Z" fill="#243B73"/>
</svg>
