<svg width="767" height="667" viewBox="0 0 767 667" fill="none" xmlns="http://www.w3.org/2000/svg">
<g clip-path="url(#clip0_2118_565)">
<rect width="767" height="667" fill="#5D737E"/>
<rect x="303.403" y="402.506" width="205.19" height="205.19" rx="19" transform="rotate(-45 303.403 402.506)" stroke="#507C92" stroke-width="2"/>
<rect x="295.409" y="402.506" width="205.19" height="205.19" rx="19" transform="rotate(-45 295.409 402.506)" stroke="#356F8C" stroke-width="2"/>
<rect x="287.414" y="402.506" width="205.19" height="205.19" rx="19" transform="rotate(-45 287.414 402.506)" stroke="#286888" stroke-width="2"/>
<rect x="162.523" y="627.446" width="193.791" height="193.791" rx="19" transform="rotate(-45 162.523 627.446)" stroke="#507C92" stroke-width="2"/>
<rect x="154.969" y="627.446" width="193.791" height="193.791" rx="19" transform="rotate(-45 154.969 627.446)" stroke="#356F8C" stroke-width="2"/>
<rect x="147.414" y="627.445" width="193.791" height="193.791" rx="19" transform="rotate(-45 147.414 627.445)" stroke="#286888" stroke-width="2"/>
<rect x="-75.9603" y="240.688" width="161.607" height="161.607" rx="19" transform="rotate(-45 -75.9603 240.688)" stroke="#507C92" stroke-width="2"/>
<rect x="-82.2726" y="240.688" width="161.607" height="161.607" rx="19" transform="rotate(-45 -82.2726 240.688)" stroke="#356F8C" stroke-width="2"/>
<rect x="-88.5858" y="240.687" width="161.607" height="161.607" rx="19" transform="rotate(-45 -88.5858 240.687)" stroke="#286888" stroke-width="2"/>
<rect x="711.893" y="117.688" width="107.866" height="107.866" rx="19" transform="rotate(-45 711.893 117.688)" stroke="#507C92" stroke-width="2"/>
<rect x="707.654" y="117.688" width="107.866" height="107.866" rx="19" transform="rotate(-45 707.654 117.688)" stroke="#356F8C" stroke-width="2"/>
<rect x="703.414" y="117.687" width="107.866" height="107.866" rx="19" transform="rotate(-45 703.414 117.687)" stroke="#286888" stroke-width="2"/>
<path d="M269.343 442.203L267.118 440.309L270.461 436.383L267.434 433.805L264.091 437.731L261.866 435.836L269.408 426.98L271.633 428.874L268.872 432.116L271.9 434.694L274.66 431.452L276.885 433.347L269.343 442.203ZM270.229 442.958L280.763 436.649L283.19 438.716L278.639 450.12L276.349 448.17L277.336 445.891L274.552 443.52L272.459 444.857L270.229 442.958ZM278.216 443.87L279.799 440.179L276.408 442.33L278.216 443.87ZM287.109 457.333L284.968 455.51L286.812 446.428L281.554 452.602L279.52 450.87L287.062 442.013L289.792 444.338L288.297 451.818L292.617 446.744L294.651 448.477L287.109 457.333ZM300.58 461.181C299.877 462.005 299.067 462.591 298.149 462.938C297.235 463.281 296.353 463.392 295.505 463.272C294.791 463.178 294.126 462.943 293.509 462.567C292.898 462.191 292.288 461.743 291.677 461.223L288.906 458.863L296.448 450.007L299.196 452.347C299.818 452.877 300.367 453.413 300.843 453.955C301.319 454.497 301.665 455.123 301.88 455.834C302.146 456.703 302.177 457.598 301.974 458.519C301.774 459.437 301.309 460.324 300.58 461.181ZM298.311 459.218C298.807 458.635 299.13 458.051 299.279 457.466C299.435 456.881 299.405 456.294 299.188 455.706C299.028 455.283 298.789 454.921 298.469 454.622C298.154 454.326 297.766 453.982 297.306 453.59L297.264 453.554L292.543 459.098L292.585 459.133C293.085 459.559 293.512 459.909 293.866 460.183C294.228 460.457 294.646 460.629 295.121 460.698C295.682 460.779 296.229 460.698 296.764 460.455C297.299 460.213 297.815 459.8 298.311 459.218ZM310.752 477.468L308.54 475.584L313.539 469.713L308.701 472.129L307.184 470.837L308.799 465.676L303.799 471.546L301.705 469.763L309.248 460.907L311.811 463.09L310.051 469.133L315.731 466.428L318.295 468.611L310.752 477.468ZM311.639 478.223L322.173 471.914L324.599 473.981L320.049 485.385L317.759 483.435L318.746 481.155L315.962 478.785L313.869 480.122L311.639 478.223ZM319.626 479.134L321.209 475.444L317.817 477.594L319.626 479.134ZM328.691 492.745L326.003 490.455L326.652 484.8L325.702 485.037L323.154 488.029L320.929 486.135L328.471 477.278L330.696 479.172L327.348 483.104L333.527 481.584L336.103 483.777L329.444 485.197L328.691 492.745ZM329.411 493.358L336.953 484.501L342.943 489.602L341.504 491.291L337.727 488.075L336.405 489.627L339.885 492.59L338.446 494.279L334.967 491.316L333.062 493.553L336.839 496.769L335.401 498.458L329.411 493.358ZM345.096 506.715L342.383 504.405L342.681 499.055L341.884 498.377L339.118 501.624L336.905 499.74L344.448 490.883L348.01 493.918C348.502 494.336 348.903 494.733 349.214 495.107C349.528 495.477 349.757 495.891 349.901 496.349C350.046 496.821 350.078 497.293 349.998 497.765C349.921 498.233 349.678 498.707 349.27 499.187C348.692 499.865 348.07 500.286 347.403 500.45C346.74 500.611 346.046 500.598 345.322 500.412L345.096 506.715ZM346.747 497.521C346.937 497.299 347.055 497.072 347.103 496.839C347.158 496.605 347.124 496.361 347 496.104C346.912 495.927 346.789 495.757 346.632 495.596C346.475 495.435 346.27 495.247 346.016 495.031L345.272 494.397L343.241 496.783L343.878 497.325C344.187 497.588 344.464 497.793 344.708 497.94C344.96 498.086 345.214 498.161 345.469 498.167C345.706 498.177 345.925 498.134 346.124 498.037C346.327 497.943 346.535 497.771 346.747 497.521ZM348.355 509.768C347.677 509.19 347.136 508.617 346.732 508.047C346.332 507.48 345.995 506.912 345.72 506.343L347.513 504.238L347.715 504.41C347.839 505.165 348.082 505.871 348.445 506.529C348.808 507.188 349.241 507.731 349.745 508.16C349.872 508.268 350.05 508.396 350.28 508.544C350.514 508.695 350.719 508.795 350.897 508.843C351.109 508.908 351.319 508.926 351.528 508.898C351.739 508.866 351.93 508.751 352.098 508.553C352.288 508.331 352.354 508.076 352.298 507.789C352.241 507.502 352.119 507.223 351.932 506.954C351.698 506.618 351.439 506.267 351.154 505.902C350.874 505.54 350.629 505.181 350.42 504.825C349.94 503.999 349.725 503.255 349.775 502.593C349.826 501.932 350.113 501.294 350.636 500.679C351.342 499.85 352.263 499.479 353.401 499.565C354.542 499.647 355.638 500.136 356.688 501.031C357.216 501.48 357.694 501.979 358.122 502.528C358.554 503.081 358.899 503.625 359.156 504.158L357.434 506.18L357.237 506.013C357.148 505.451 356.948 504.871 356.638 504.271C356.331 503.675 355.928 503.164 355.429 502.739C355.234 502.573 355.048 502.439 354.87 502.335C354.692 502.231 354.483 502.146 354.245 502.08C354.053 502.025 353.851 502.017 353.639 502.056C353.436 502.095 353.268 502.192 353.136 502.346C352.944 502.572 352.869 502.82 352.913 503.09C352.964 503.359 353.174 503.743 353.543 504.242C353.783 504.563 354.013 504.871 354.232 505.168C354.456 505.468 354.677 505.806 354.896 506.184C355.321 506.93 355.522 507.617 355.499 508.247C355.483 508.877 355.213 509.499 354.69 510.113C353.94 510.994 352.99 511.406 351.841 511.35C350.695 511.298 349.533 510.771 348.355 509.768Z" fill="#428396" fill-opacity="0.7"/>
<path d="M451.929 594.558C450.209 595.504 448.558 595.736 446.976 595.256C445.392 594.77 444.081 593.585 443.045 591.701C442.045 589.884 441.754 588.158 442.172 586.523C442.593 584.881 443.663 583.587 445.383 582.64C445.84 582.389 446.264 582.189 446.657 582.04C447.05 581.89 447.439 581.77 447.823 581.679C448.127 581.612 448.47 581.56 448.852 581.525C449.233 581.489 449.546 581.467 449.789 581.46L451.293 584.194L451.001 584.355C450.794 584.308 450.539 584.258 450.235 584.204C449.929 584.145 449.597 584.107 449.24 584.09C448.882 584.072 448.511 584.096 448.125 584.161C447.742 584.218 447.376 584.343 447.027 584.535C446.611 584.763 446.265 585.041 445.99 585.366C445.716 585.684 445.512 586.09 445.377 586.586C445.25 587.037 445.231 587.562 445.321 588.162C445.415 588.759 445.648 589.396 446.021 590.073C446.414 590.787 446.839 591.335 447.297 591.719C447.753 592.097 448.217 592.35 448.688 592.478C449.144 592.602 449.59 592.628 450.025 592.555C450.465 592.48 450.868 592.343 451.232 592.142C451.612 591.933 451.94 591.672 452.216 591.36C452.49 591.042 452.702 590.742 452.853 590.458C453.022 590.157 453.159 589.871 453.264 589.6C453.369 589.328 453.458 589.089 453.531 588.881L453.793 588.737L455.275 591.432C455.119 591.646 454.937 591.893 454.73 592.174C454.521 592.449 454.294 592.711 454.049 592.96C453.749 593.265 453.458 593.532 453.176 593.761C452.894 593.99 452.478 594.255 451.929 594.558ZM464.687 579.785C465.706 581.638 466.013 583.368 465.607 584.976C465.201 586.584 464.135 587.862 462.41 588.811C460.68 589.763 459.027 589.974 457.451 589.443C455.872 588.907 454.58 587.725 453.575 585.898C452.561 584.055 452.253 582.328 452.651 580.718C453.047 579.103 454.109 577.819 455.839 576.868C457.564 575.919 459.216 575.706 460.794 576.228C462.37 576.746 463.667 577.931 464.687 579.785ZM461.71 581.412C461.334 580.729 460.943 580.189 460.537 579.79C460.133 579.384 459.728 579.092 459.323 578.914C458.904 578.736 458.501 578.667 458.115 578.706C457.73 578.736 457.371 578.844 457.038 579.027C456.683 579.222 456.398 579.463 456.181 579.749C455.961 580.031 455.807 580.407 455.718 580.877C455.645 581.305 455.67 581.806 455.793 582.38C455.92 582.952 456.172 583.58 456.547 584.263C456.934 584.966 457.325 585.513 457.721 585.904C458.114 586.29 458.517 586.573 458.931 586.753C459.352 586.936 459.758 587.01 460.147 586.977C460.534 586.938 460.894 586.827 461.227 586.643C461.566 586.457 461.855 586.204 462.095 585.885C462.331 585.561 462.48 585.182 462.541 584.747C462.604 584.277 462.581 583.785 462.472 583.27C462.359 582.75 462.106 582.131 461.71 581.412ZM468.316 585.251L465.881 571.654L469.023 569.926L479.205 579.261L476.24 580.892L474.236 578.945L470.632 580.928L471.204 583.663L468.316 585.251ZM472.461 577.213L469.21 574.076L470.12 578.501L472.461 577.213ZM485.411 576.137C483.691 577.083 482.041 577.316 480.459 576.836C478.874 576.35 477.563 575.165 476.527 573.281C475.527 571.463 475.236 569.738 475.655 568.103C476.075 566.461 477.145 565.166 478.865 564.22C479.322 563.969 479.747 563.769 480.14 563.619C480.532 563.47 480.921 563.35 481.306 563.259C481.61 563.192 481.953 563.14 482.334 563.104C482.715 563.068 483.028 563.047 483.272 563.04L484.776 565.774L484.483 565.935C484.277 565.888 484.021 565.837 483.718 565.784C483.411 565.725 483.079 565.687 482.722 565.669C482.365 565.652 481.993 565.676 481.608 565.741C481.224 565.798 480.858 565.922 480.509 566.114C480.093 566.343 479.748 566.62 479.472 566.946C479.199 567.264 478.994 567.67 478.859 568.166C478.733 568.617 478.714 569.142 478.803 569.742C478.897 570.338 479.131 570.976 479.504 571.653C479.896 572.367 480.322 572.915 480.78 573.298C481.235 573.677 481.699 573.93 482.171 574.058C482.627 574.182 483.072 574.207 483.507 574.135C483.948 574.06 484.35 573.922 484.714 573.722C485.094 573.513 485.422 573.252 485.699 572.94C485.972 572.622 486.184 572.321 486.336 572.038C486.505 571.737 486.642 571.451 486.746 571.18C486.851 570.908 486.94 570.668 487.013 570.461L487.275 570.317L488.758 573.012C488.601 573.226 488.419 573.473 488.213 573.754C488.003 574.029 487.776 574.291 487.532 574.539C487.232 574.845 486.94 575.112 486.658 575.341C486.376 575.57 485.961 575.835 485.411 576.137ZM500.559 567.513L497.679 569.097L494.883 564.015L490.963 566.171L493.759 571.254L490.879 572.838L484.571 561.372L487.451 559.788L489.76 563.984L493.679 561.828L491.371 557.631L494.251 556.047L500.559 567.513ZM502.938 566.204L496.63 554.738L504.385 550.472L505.588 552.659L500.698 555.349L501.804 557.359L506.309 554.88L507.512 557.067L503.007 559.546L504.6 562.441L509.49 559.751L510.693 561.938L502.938 566.204ZM516.298 559.125C515.42 559.608 514.601 559.948 513.84 560.146C513.085 560.341 512.353 560.47 511.645 560.532L510.145 557.805L510.407 557.661C511.25 557.833 512.09 557.859 512.927 557.739C513.764 557.62 514.509 557.381 515.161 557.022C515.325 556.932 515.531 556.795 515.778 556.612C516.03 556.427 516.217 556.25 516.339 556.083C516.492 555.885 516.595 555.672 516.649 555.441C516.7 555.206 516.654 554.96 516.513 554.703C516.355 554.416 516.114 554.244 515.789 554.189C515.464 554.133 515.123 554.151 514.764 554.241C514.318 554.353 513.846 554.486 513.348 554.639C512.856 554.789 512.38 554.904 511.922 554.982C510.861 555.158 509.993 555.087 509.317 554.77C508.641 554.453 508.085 553.897 507.647 553.101C507.057 552.028 507.034 550.91 507.578 549.748C508.119 548.581 509.07 547.623 510.431 546.874C511.114 546.499 511.829 546.195 512.578 545.964C513.332 545.73 514.041 545.584 514.705 545.526L516.145 548.145L515.891 548.284C515.264 548.154 514.574 548.133 513.819 548.22C513.07 548.305 512.372 548.525 511.725 548.881C511.474 549.019 511.258 549.162 511.077 549.308C510.897 549.454 510.724 549.639 510.56 549.863C510.426 550.044 510.337 550.253 510.294 550.491C510.253 550.721 510.288 550.936 510.398 551.136C510.559 551.429 510.79 551.606 511.091 551.667C511.395 551.721 511.883 551.653 512.555 551.464C512.988 551.34 513.404 551.221 513.803 551.108C514.208 550.993 514.652 550.895 515.137 550.816C516.091 550.665 516.895 550.728 517.548 551.004C518.204 551.272 518.75 551.804 519.188 552.6C519.815 553.739 519.87 554.903 519.353 556.09C518.841 557.275 517.822 558.286 516.298 559.125Z" fill="#428396" fill-opacity="0.7"/>
<path d="M207.792 340.375C206.152 339.779 205.03 338.811 204.425 337.472C203.822 336.128 203.846 334.558 204.499 332.761C205.129 331.028 206.113 329.823 207.451 329.145C208.795 328.465 210.287 328.422 211.927 329.018C212.363 329.177 212.746 329.343 213.075 329.519C213.405 329.694 213.713 329.883 213.999 330.087C214.222 330.251 214.458 330.45 214.705 330.684C214.952 330.918 215.15 331.115 215.297 331.273L214.35 333.88L214.071 333.779C213.981 333.613 213.866 333.413 213.724 333.179C213.584 332.939 213.415 332.695 213.217 332.446C213.019 332.197 212.786 331.962 212.517 331.743C212.254 331.52 211.956 331.348 211.623 331.227C211.227 331.083 210.839 331.014 210.46 331.02C210.088 331.023 209.696 331.125 209.285 331.325C208.91 331.504 208.548 331.799 208.199 332.21C207.855 332.623 207.566 333.152 207.331 333.798C207.084 334.479 206.966 335.084 206.978 335.615C206.992 336.141 207.094 336.6 207.285 336.99C207.469 337.367 207.713 337.68 208.016 337.929C208.324 338.18 208.652 338.368 208.999 338.494C209.362 338.626 209.728 338.693 210.099 338.694C210.471 338.691 210.797 338.657 211.075 338.592C211.375 338.529 211.646 338.453 211.889 338.364C212.132 338.275 212.345 338.194 212.526 338.122L212.776 338.212L211.842 340.782C211.607 340.802 211.336 340.826 211.027 340.852C210.72 340.873 210.412 340.875 210.102 340.857C209.722 340.835 209.373 340.797 209.055 340.742C208.737 340.688 208.316 340.565 207.792 340.375ZM225.142 340.254C224.5 342.021 223.523 343.24 222.21 343.91C220.897 344.58 219.418 344.616 217.773 344.018C216.123 343.419 215.015 342.437 214.446 341.072C213.88 339.703 213.914 338.146 214.547 336.404C215.185 334.646 216.16 333.429 217.469 332.753C218.781 332.071 220.262 332.03 221.911 332.63C223.556 333.227 224.666 334.207 225.241 335.568C225.817 336.925 225.785 338.487 225.142 340.254ZM222.311 339.217C222.547 338.566 222.68 337.988 222.708 337.483C222.743 336.974 222.701 336.533 222.583 336.157C222.457 335.773 222.267 335.463 222.015 335.227C221.769 334.988 221.487 334.811 221.169 334.696C220.831 334.573 220.503 334.523 220.184 334.546C219.868 334.563 219.526 334.68 219.159 334.896C218.831 335.098 218.51 335.409 218.198 335.827C217.89 336.247 217.618 336.783 217.381 337.434C217.137 338.104 217.001 338.686 216.971 339.18C216.943 339.668 216.99 340.104 217.111 340.486C217.236 340.875 217.424 341.19 217.674 341.43C217.927 341.666 218.212 341.842 218.53 341.958C218.853 342.075 219.191 342.12 219.545 342.093C219.9 342.062 220.241 341.939 220.568 341.725C220.918 341.493 221.234 341.189 221.514 340.814C221.796 340.435 222.062 339.902 222.311 339.217ZM223.613 345.882L231.279 336.291L234.275 337.38L233.995 349.655L231.168 348.628L231.296 346.148L227.86 344.899L226.366 346.883L223.613 345.882ZM231.415 343.946L231.609 339.935L229.183 343.135L231.415 343.946ZM239.719 351.976C238.079 351.38 236.956 350.413 236.351 349.073C235.748 347.729 235.773 346.159 236.426 344.362C237.055 342.629 238.039 341.424 239.377 340.747C240.721 340.066 242.214 340.024 243.854 340.619C244.289 340.778 244.672 340.945 245.002 341.12C245.331 341.295 245.639 341.485 245.926 341.688C246.149 341.852 246.384 342.051 246.631 342.285C246.879 342.519 247.076 342.716 247.223 342.875L246.276 345.481L245.997 345.38C245.908 345.214 245.792 345.014 245.65 344.78C245.51 344.541 245.341 344.296 245.143 344.047C244.946 343.798 244.712 343.564 244.443 343.344C244.18 343.121 243.883 342.949 243.55 342.828C243.153 342.684 242.765 342.615 242.386 342.622C242.014 342.625 241.622 342.726 241.212 342.926C240.836 343.106 240.474 343.401 240.125 343.811C239.781 344.224 239.492 344.753 239.257 345.4C239.01 346.08 238.892 346.686 238.904 347.216C238.918 347.742 239.021 348.201 239.211 348.591C239.395 348.969 239.639 349.282 239.942 349.53C240.25 349.781 240.578 349.969 240.926 350.095C241.288 350.227 241.654 350.294 242.025 350.295C242.397 350.292 242.723 350.258 243.001 350.193C243.301 350.13 243.573 350.054 243.816 349.965C244.059 349.876 244.271 349.795 244.452 349.723L244.702 349.814L243.768 352.384C243.534 352.404 243.262 352.427 242.953 352.453C242.646 352.475 242.338 352.476 242.029 352.458C241.649 352.436 241.3 352.398 240.981 352.343C240.663 352.289 240.242 352.166 239.719 351.976ZM254.357 357.054L251.61 356.056L253.371 351.21L249.634 349.852L247.873 354.698L245.127 353.7L249.1 342.767L251.846 343.765L250.392 347.767L254.129 349.125L255.583 345.123L258.33 346.121L254.357 357.054ZM256.626 357.879L260.598 346.945L267.993 349.632L267.235 351.717L262.572 350.023L261.876 351.94L266.171 353.5L265.414 355.586L261.118 354.025L260.115 356.786L264.777 358.48L264.02 360.565L256.626 357.879ZM269.183 362.666C268.346 362.362 267.639 362.013 267.061 361.621C266.488 361.23 265.974 360.815 265.517 360.378L266.462 357.779L266.712 357.87C267.091 358.534 267.566 359.111 268.136 359.601C268.706 360.09 269.302 360.448 269.923 360.674C270.08 360.731 270.292 360.789 270.559 360.847C270.831 360.907 271.058 360.929 271.242 360.912C271.463 360.898 271.666 360.842 271.852 360.743C272.039 360.639 272.177 360.465 272.266 360.22C272.366 359.946 272.339 359.684 272.186 359.435C272.033 359.185 271.821 358.967 271.551 358.78C271.214 358.547 270.849 358.309 270.455 358.066C270.066 357.825 269.712 357.574 269.391 357.314C268.652 356.707 268.191 356.085 268.007 355.448C267.823 354.81 267.869 354.112 268.145 353.353C268.517 352.33 269.251 351.66 270.346 351.344C271.444 351.022 272.642 351.097 273.939 351.568C274.59 351.805 275.212 352.106 275.805 352.471C276.403 352.838 276.916 353.227 277.343 353.637L276.436 356.133L276.194 356.045C275.914 355.55 275.524 355.076 275.023 354.622C274.528 354.171 273.972 353.833 273.355 353.609C273.115 353.522 272.894 353.461 272.69 353.426C272.487 353.39 272.262 353.384 272.016 353.405C271.816 353.421 271.624 353.484 271.44 353.595C271.263 353.702 271.139 353.851 271.07 354.042C270.969 354.321 270.986 354.579 271.121 354.817C271.263 355.051 271.594 355.338 272.114 355.676C272.45 355.893 272.774 356.102 273.083 356.303C273.397 356.506 273.723 356.746 274.06 357.024C274.719 357.573 275.147 358.147 275.345 358.746C275.55 359.341 275.515 360.018 275.239 360.777C274.844 361.864 274.098 362.582 273.002 362.932C271.91 363.283 270.637 363.194 269.183 362.666Z" fill="#428396" fill-opacity="0.7"/>
<path d="M631.792 150.375C630.152 149.779 629.03 148.811 628.425 147.472C627.821 146.128 627.846 144.558 628.499 142.761C629.129 141.028 630.112 139.823 631.45 139.145C632.795 138.465 634.287 138.422 635.927 139.018C636.363 139.177 636.745 139.343 637.075 139.519C637.405 139.694 637.713 139.883 637.999 140.087C638.222 140.251 638.457 140.45 638.705 140.684C638.952 140.918 639.15 141.115 639.297 141.273L638.35 143.88L638.071 143.779C637.981 143.613 637.865 143.413 637.723 143.179C637.583 142.939 637.414 142.695 637.217 142.446C637.019 142.197 636.786 141.962 636.516 141.743C636.254 141.52 635.956 141.348 635.623 141.227C635.227 141.083 634.839 141.014 634.46 141.02C634.087 141.023 633.696 141.125 633.285 141.325C632.91 141.504 632.547 141.799 632.199 142.21C631.855 142.623 631.565 143.152 631.331 143.798C631.083 144.479 630.966 145.084 630.978 145.615C630.992 146.141 631.094 146.6 631.285 146.99C631.469 147.367 631.713 147.68 632.016 147.929C632.324 148.18 632.651 148.368 632.999 148.494C633.361 148.626 633.728 148.693 634.098 148.694C634.471 148.691 634.796 148.657 635.075 148.592C635.375 148.529 635.646 148.453 635.889 148.364C636.132 148.275 636.344 148.194 636.526 148.122L636.776 148.212L635.842 150.782C635.607 150.802 635.335 150.826 635.027 150.852C634.72 150.873 634.412 150.875 634.102 150.857C633.722 150.835 633.373 150.797 633.055 150.742C632.737 150.688 632.316 150.565 631.792 150.375ZM649.142 150.254C648.5 152.021 647.522 153.24 646.209 153.91C644.896 154.58 643.418 154.616 641.773 154.018C640.123 153.419 639.014 152.437 638.446 151.072C637.88 149.703 637.913 148.146 638.547 146.404C639.185 144.646 640.159 143.429 641.469 142.753C642.781 142.071 644.262 142.03 645.911 142.63C647.556 143.227 648.666 144.207 649.241 145.568C649.817 146.925 649.784 148.487 649.142 150.254ZM646.311 149.217C646.547 148.566 646.68 147.988 646.708 147.483C646.743 146.974 646.701 146.533 646.583 146.157C646.456 145.773 646.267 145.463 646.015 145.227C645.769 144.988 645.487 144.811 645.169 144.696C644.831 144.573 644.503 144.523 644.184 144.546C643.867 144.563 643.526 144.68 643.159 144.896C642.831 145.098 642.51 145.409 642.197 145.827C641.89 146.247 641.617 146.783 641.381 147.434C641.137 148.104 641 148.686 640.971 149.18C640.943 149.668 640.99 150.104 641.111 150.486C641.236 150.875 641.424 151.19 641.674 151.43C641.926 151.666 642.212 151.842 642.53 151.958C642.853 152.075 643.191 152.12 643.545 152.093C643.9 152.062 644.241 151.939 644.568 151.725C644.918 151.493 645.234 151.189 645.514 150.814C645.796 150.435 646.061 149.902 646.311 149.217ZM647.612 155.882L655.279 146.291L658.274 147.38L657.995 159.655L655.168 158.628L655.296 156.148L651.86 154.899L650.366 156.883L647.612 155.882ZM655.415 153.946L655.608 149.935L653.182 153.135L655.415 153.946ZM663.718 161.976C662.078 161.38 660.956 160.413 660.351 159.073C659.748 157.729 659.772 156.159 660.425 154.362C661.055 152.629 662.039 151.424 663.377 150.747C664.721 150.066 666.213 150.024 667.853 150.619C668.289 150.778 668.672 150.945 669.001 151.12C669.331 151.295 669.639 151.485 669.925 151.688C670.148 151.852 670.384 152.051 670.631 152.285C670.878 152.519 671.076 152.716 671.223 152.875L670.276 155.481L669.997 155.38C669.908 155.214 669.792 155.014 669.65 154.78C669.51 154.541 669.341 154.296 669.143 154.047C668.945 153.798 668.712 153.564 668.443 153.344C668.18 153.121 667.882 152.949 667.549 152.828C667.153 152.684 666.765 152.615 666.386 152.622C666.014 152.625 665.622 152.726 665.211 152.926C664.836 153.106 664.474 153.401 664.125 153.811C663.781 154.224 663.492 154.753 663.257 155.4C663.01 156.08 662.892 156.686 662.904 157.216C662.918 157.742 663.02 158.201 663.211 158.591C663.395 158.969 663.639 159.282 663.942 159.53C664.25 159.781 664.578 159.969 664.925 160.095C665.288 160.227 665.654 160.294 666.025 160.295C666.397 160.292 666.723 160.258 667.001 160.193C667.301 160.13 667.572 160.054 667.815 159.965C668.058 159.876 668.271 159.795 668.452 159.723L668.702 159.814L667.768 162.384C667.533 162.404 667.262 162.427 666.953 162.453C666.646 162.475 666.338 162.476 666.029 162.458C665.649 162.436 665.299 162.398 664.981 162.343C664.663 162.289 664.242 162.166 663.718 161.976ZM678.356 167.054L675.61 166.056L677.371 161.21L673.634 159.852L671.873 164.698L669.127 163.7L673.099 152.767L675.846 153.765L674.391 157.767L678.129 159.125L679.583 155.123L682.329 156.121L678.356 167.054ZM680.625 167.879L684.598 156.945L691.992 159.632L691.235 161.717L686.572 160.023L685.876 161.94L690.171 163.5L689.413 165.586L685.118 164.025L684.115 166.786L688.777 168.48L688.019 170.565L680.625 167.879ZM693.183 172.666C692.346 172.362 691.638 172.013 691.061 171.621C690.488 171.23 689.973 170.815 689.517 170.378L690.462 167.779L690.711 167.87C691.091 168.534 691.565 169.111 692.135 169.601C692.706 170.09 693.301 170.448 693.923 170.674C694.08 170.731 694.292 170.789 694.559 170.847C694.831 170.907 695.058 170.929 695.241 170.912C695.463 170.898 695.666 170.842 695.852 170.743C696.039 170.639 696.177 170.465 696.266 170.22C696.365 169.946 696.339 169.684 696.186 169.435C696.032 169.185 695.821 168.967 695.551 168.78C695.214 168.547 694.849 168.309 694.455 168.066C694.066 167.825 693.711 167.574 693.39 167.314C692.652 166.707 692.191 166.085 692.007 165.448C691.823 164.81 691.869 164.112 692.145 163.353C692.516 162.33 693.25 161.66 694.346 161.344C695.444 161.022 696.641 161.097 697.939 161.568C698.59 161.805 699.212 162.106 699.805 162.471C700.403 162.838 700.916 163.227 701.343 163.637L700.436 166.133L700.194 166.045C699.914 165.55 699.524 165.076 699.023 164.622C698.528 164.171 697.972 163.833 697.355 163.609C697.115 163.522 696.894 163.461 696.69 163.426C696.487 163.39 696.262 163.384 696.016 163.405C695.816 163.421 695.624 163.484 695.44 163.595C695.263 163.702 695.139 163.851 695.07 164.042C694.968 164.321 694.985 164.579 695.121 164.817C695.263 165.051 695.594 165.338 696.113 165.676C696.45 165.893 696.773 166.102 697.083 166.303C697.397 166.506 697.722 166.746 698.059 167.024C698.718 167.573 699.147 168.147 699.345 168.746C699.55 169.341 699.515 170.018 699.239 170.777C698.844 171.864 698.098 172.582 697.001 172.932C695.909 173.283 694.637 173.194 693.183 172.666Z" fill="#428396" fill-opacity="0.7"/>
<path d="M38.792 626.375C37.1522 625.779 36.0297 624.811 35.4247 623.472C34.8214 622.128 34.8462 620.558 35.499 618.761C36.1287 617.028 37.1125 615.823 38.4504 615.145C39.7949 614.465 41.2872 614.422 42.927 615.018C43.3627 615.177 43.7454 615.343 44.0752 615.519C44.405 615.694 44.7129 615.883 44.9991 616.087C45.2221 616.251 45.4573 616.45 45.7048 616.684C45.9522 616.918 46.1496 617.115 46.2969 617.273L45.3497 619.88L45.0707 619.779C44.9812 619.613 44.8655 619.413 44.7235 619.179C44.5833 618.939 44.4143 618.695 44.2167 618.446C44.0191 618.197 43.7856 617.962 43.5164 617.743C43.2538 617.52 42.9561 617.348 42.6232 617.227C42.2267 617.083 41.8389 617.014 41.4597 617.02C41.0873 617.023 40.6957 617.125 40.2851 617.325C39.9096 617.504 39.5474 617.799 39.1986 618.21C38.8548 618.623 38.5654 619.152 38.3306 619.798C38.0834 620.479 37.9658 621.084 37.978 621.615C37.9919 622.141 38.0941 622.6 38.2846 622.99C38.469 623.367 38.7127 623.68 39.0157 623.929C39.3237 624.18 39.6515 624.368 39.999 624.494C40.3613 624.626 40.7277 624.693 41.0984 624.694C41.4709 624.691 41.7964 624.657 42.0749 624.592C42.3748 624.529 42.6462 624.453 42.8891 624.364C43.1321 624.275 43.3443 624.194 43.5259 624.122L43.7755 624.212L42.8416 626.782C42.6071 626.802 42.3355 626.826 42.0267 626.852C41.7197 626.873 41.4115 626.875 41.1022 626.857C40.7222 626.835 40.3731 626.797 40.055 626.742C39.7368 626.688 39.3158 626.565 38.792 626.375ZM56.1421 626.254C55.5 628.021 54.5224 629.24 53.2095 629.91C51.8965 630.58 50.4176 630.616 48.7728 630.018C47.1232 629.419 46.0143 628.437 45.4462 627.072C44.8798 625.703 44.9133 624.146 45.5466 622.404C46.1851 620.646 47.1594 619.429 48.4692 618.753C49.7809 618.071 51.2615 618.03 52.9112 618.63C54.556 619.227 55.6657 620.207 56.2405 621.568C56.8171 622.925 56.7843 624.487 56.1421 626.254ZM53.3105 625.217C53.5471 624.566 53.6796 623.988 53.7079 623.483C53.743 622.974 53.7012 622.533 53.5828 622.157C53.4563 621.773 53.2669 621.463 53.0146 621.227C52.7689 620.988 52.487 620.811 52.1688 620.696C51.831 620.573 51.5028 620.523 51.1842 620.546C50.8674 620.563 50.5257 620.68 50.1591 620.896C49.8307 621.098 49.5102 621.409 49.1975 621.827C48.8896 622.247 48.6174 622.783 48.3809 623.434C48.1372 624.104 48.0005 624.686 47.9708 625.18C47.9428 625.668 47.9897 626.104 48.1112 626.486C48.2359 626.875 48.4235 627.19 48.6741 627.43C48.9265 627.666 49.2117 627.842 49.5299 627.958C49.853 628.075 50.1912 628.12 50.5445 628.093C50.8996 628.062 51.2406 627.939 51.5677 627.725C51.9182 627.493 52.2337 627.189 52.5139 626.814C52.7959 626.435 53.0615 625.902 53.3105 625.217ZM54.6123 631.882L62.2786 622.291L65.2744 623.38L64.9949 635.655L62.168 634.628L62.2962 632.148L58.8598 630.899L57.3658 632.883L54.6123 631.882ZM62.4145 629.946L62.6085 625.935L60.1823 629.135L62.4145 629.946ZM70.7183 637.976C69.0784 637.38 67.956 636.413 67.3509 635.073C66.7477 633.729 66.7725 632.159 67.4253 630.362C68.055 628.629 69.0388 627.424 70.3767 626.747C71.7212 626.066 73.2134 626.024 74.8533 626.619C75.289 626.778 75.6717 626.945 76.0015 627.12C76.3313 627.295 76.6392 627.485 76.9254 627.688C77.1484 627.852 77.3836 628.051 77.631 628.285C77.8785 628.519 78.0759 628.716 78.2232 628.875L77.276 631.481L76.997 631.38C76.9075 631.214 76.7918 631.014 76.6498 630.78C76.5095 630.541 76.3406 630.296 76.143 630.047C75.9454 629.798 75.7119 629.564 75.4427 629.344C75.1801 629.121 74.8823 628.949 74.5495 628.828C74.153 628.684 73.7651 628.615 73.386 628.622C73.0136 628.625 72.622 628.726 72.2114 628.926C71.8358 629.106 71.4737 629.401 71.1249 629.811C70.781 630.224 70.4917 630.753 70.2569 631.4C70.0097 632.08 69.8921 632.686 69.9042 633.216C69.9182 633.742 70.0204 634.201 70.2109 634.591C70.3952 634.969 70.6389 635.282 70.942 635.53C71.25 635.781 71.5778 635.969 71.9253 636.095C72.2876 636.227 72.654 636.294 73.0247 636.295C73.3971 636.292 73.7226 636.258 74.0012 636.193C74.3011 636.13 74.5725 636.054 74.8154 635.965C75.0584 635.876 75.2706 635.795 75.4521 635.723L75.7018 635.814L74.7679 638.384C74.5334 638.404 74.2618 638.427 73.953 638.453C73.6459 638.475 73.3378 638.476 73.0285 638.458C72.6485 638.436 72.2994 638.398 71.9812 638.343C71.6631 638.289 71.2421 638.166 70.7183 637.976ZM85.3564 643.054L82.6102 642.056L84.3712 637.21L80.6337 635.852L78.8727 640.698L76.1265 639.7L80.0994 628.767L82.8456 629.765L81.3915 633.767L85.1289 635.125L86.5831 631.123L89.3293 632.121L85.3564 643.054ZM87.6253 643.879L91.5982 632.945L98.9923 635.632L98.2346 637.717L93.5719 636.023L92.8755 637.94L97.171 639.5L96.4133 641.586L92.1178 640.025L91.1145 642.786L95.7772 644.48L95.0194 646.565L87.6253 643.879ZM100.183 648.666C99.3457 648.362 98.6383 648.013 98.0606 647.621C97.4879 647.23 96.9734 646.815 96.5172 646.378L97.4617 643.779L97.7114 643.87C98.0906 644.534 98.5653 645.111 99.1355 645.601C99.7056 646.09 100.301 646.448 100.923 646.674C101.08 646.731 101.292 646.789 101.559 646.847C101.831 646.907 102.058 646.929 102.241 646.912C102.463 646.898 102.666 646.842 102.852 646.743C103.039 646.639 103.177 646.465 103.266 646.22C103.365 645.946 103.339 645.684 103.186 645.435C103.032 645.185 102.821 644.967 102.551 644.78C102.214 644.547 101.849 644.309 101.455 644.066C101.066 643.825 100.711 643.574 100.39 643.314C99.6521 642.707 99.1909 642.085 99.007 641.448C98.8231 640.81 98.869 640.112 99.1447 639.353C99.5165 638.33 100.25 637.66 101.346 637.344C102.444 637.022 103.641 637.097 104.939 637.568C105.59 637.805 106.212 638.106 106.805 638.471C107.403 638.838 107.916 639.227 108.343 639.637L107.436 642.133L107.194 642.045C106.914 641.55 106.524 641.076 106.023 640.622C105.528 640.171 104.972 639.833 104.355 639.609C104.115 639.522 103.894 639.461 103.69 639.426C103.487 639.39 103.262 639.384 103.016 639.405C102.816 639.421 102.624 639.484 102.44 639.595C102.263 639.702 102.139 639.851 102.07 640.042C101.968 640.321 101.985 640.579 102.121 640.817C102.263 641.051 102.594 641.338 103.113 641.676C103.45 641.893 103.773 642.102 104.083 642.303C104.397 642.506 104.722 642.746 105.059 643.024C105.718 643.573 106.147 644.147 106.345 644.746C106.55 645.341 106.515 646.018 106.239 646.777C105.844 647.864 105.098 648.582 104.001 648.932C102.909 649.283 101.637 649.194 100.183 648.666Z" fill="#428396" fill-opacity="0.7"/>
<path d="M222.353 150.049L218.097 150.992L215.596 139.699L214.109 147.673L211.192 148.319L206.477 141.718L208.978 153.011L204.95 153.902L201.178 136.866L206.109 135.774L211.747 143.347L213.65 134.104L218.581 133.013L222.353 150.049ZM225.888 149.266L222.116 132.23L233.638 129.679L234.358 132.928L227.092 134.537L227.753 137.523L234.447 136.041L235.166 139.291L228.473 140.772L229.425 145.075L236.691 143.466L237.41 146.715L225.888 149.266ZM254.904 142.842L250.785 143.754L241.588 133.332L244.218 145.208L240.305 146.074L236.533 129.038L241.785 127.875L249.38 136.431L247.219 126.672L251.132 125.805L254.904 142.842ZM261.632 141.352L258.58 127.565L253.545 128.68L252.826 125.43L267.174 122.254L267.893 125.503L262.859 126.618L265.911 140.405L261.632 141.352ZM286.338 126.952C286.947 129.706 286.691 132.035 285.568 133.94C284.446 135.845 282.603 137.081 280.04 137.649C277.47 138.218 275.276 137.867 273.458 136.598C271.639 135.32 270.429 133.323 269.828 130.608C269.221 127.87 269.475 125.545 270.588 123.634C271.699 121.716 273.541 120.472 276.111 119.903C278.674 119.335 280.867 119.682 282.691 120.942C284.512 122.195 285.728 124.199 286.338 126.952ZM281.919 127.919C281.694 126.904 281.397 126.066 281.026 125.404C280.661 124.733 280.253 124.207 279.801 123.827C279.331 123.443 278.842 123.203 278.333 123.108C277.83 123.003 277.33 123.006 276.834 123.115C276.308 123.232 275.852 123.433 275.468 123.718C275.081 123.996 274.742 124.419 274.452 124.987C274.199 125.507 274.043 126.158 273.984 126.939C273.933 127.719 274.019 128.616 274.244 129.63C274.475 130.675 274.771 131.522 275.13 132.17C275.488 132.811 275.898 133.325 276.36 133.711C276.831 134.102 277.321 134.35 277.832 134.453C278.342 134.548 278.844 134.541 279.34 134.431C279.843 134.32 280.308 134.105 280.733 133.786C281.157 133.461 281.49 133.031 281.732 132.497C281.989 131.92 282.143 131.282 282.196 130.582C282.248 129.874 282.155 128.987 281.919 127.919ZM306.518 131.414L301.3 132.569L295.169 127.374L293.636 127.713L295.019 133.96L290.763 134.903L286.991 117.866L293.844 116.349C294.79 116.139 295.627 116.018 296.356 115.984C297.083 115.943 297.786 116.044 298.463 116.286C299.16 116.54 299.754 116.929 300.246 117.452C300.736 117.967 301.083 118.687 301.288 119.61C301.576 120.914 301.517 122.039 301.111 122.985C300.702 123.924 300.06 124.742 299.182 125.441L306.518 131.414ZM297.013 121.12C296.918 120.693 296.753 120.345 296.518 120.077C296.289 119.8 295.965 119.62 295.546 119.536C295.254 119.481 294.94 119.475 294.606 119.517C294.271 119.559 293.859 119.634 293.371 119.742L291.941 120.059L292.957 124.647L294.181 124.376C294.776 124.244 295.272 124.098 295.669 123.938C296.071 123.769 296.391 123.534 296.629 123.234C296.856 122.959 297.002 122.659 297.065 122.333C297.137 122.005 297.119 121.601 297.013 121.12ZM313.119 130.277C311.815 130.566 310.639 130.694 309.592 130.662C308.552 130.628 307.568 130.518 306.638 130.331L305.741 126.281L306.13 126.195C307.145 126.73 308.21 127.079 309.326 127.24C310.442 127.401 311.484 127.374 312.453 127.16C312.697 127.105 313.012 127.008 313.397 126.867C313.789 126.724 314.095 126.568 314.313 126.4C314.582 126.204 314.794 125.969 314.949 125.695C315.103 125.413 315.138 125.081 315.053 124.699C314.959 124.272 314.714 123.962 314.319 123.77C313.925 123.577 313.481 123.471 312.989 123.452C312.375 123.428 311.721 123.421 311.027 123.43C310.341 123.438 309.69 123.406 309.074 123.335C307.651 123.162 306.567 122.746 305.821 122.087C305.075 121.428 304.571 120.507 304.309 119.325C303.956 117.73 304.346 116.292 305.478 115.009C306.609 113.718 308.185 112.849 310.206 112.402C311.22 112.177 312.25 112.057 313.295 112.042C314.347 112.025 315.309 112.104 316.18 112.279L317.041 116.17L316.664 116.253C315.911 115.852 315.035 115.565 314.037 115.394C313.047 115.222 312.071 115.242 311.11 115.454C310.736 115.537 310.406 115.638 310.121 115.757C309.835 115.877 309.545 116.049 309.251 116.274C309.011 116.455 308.819 116.69 308.675 116.978C308.536 117.256 308.5 117.545 308.566 117.842C308.662 118.277 308.892 118.59 309.254 118.782C309.623 118.964 310.272 119.061 311.202 119.071C311.803 119.074 312.38 119.078 312.934 119.083C313.495 119.087 314.1 119.129 314.75 119.209C316.027 119.375 317.031 119.757 317.764 120.354C318.502 120.943 319.003 121.829 319.264 123.011C319.639 124.704 319.273 126.214 318.166 127.539C317.067 128.863 315.385 129.775 313.119 130.277Z" fill="#428396" fill-opacity="0.7"/>
<path d="M597.12 304.308L599.103 285.997L603.771 284.963L613.298 300.726L608.893 301.701L607.059 298.458L601.704 299.644L601.41 303.358L597.12 304.308ZM605.437 295.577L602.454 290.344L601.958 296.347L605.437 295.577ZM630.747 296.862L625.529 298.017L619.398 292.822L617.865 293.161L619.248 299.408L614.991 300.351L611.219 283.314L618.073 281.797C619.019 281.587 619.856 281.466 620.585 281.432C621.312 281.391 622.014 281.492 622.692 281.734C623.388 281.988 623.983 282.376 624.474 282.9C624.965 283.415 625.312 284.135 625.516 285.058C625.805 286.362 625.746 287.487 625.34 288.433C624.931 289.372 624.288 290.19 623.411 290.889L630.747 296.862ZM621.242 286.568C621.147 286.141 620.982 285.793 620.747 285.525C620.517 285.248 620.193 285.068 619.775 284.984C619.483 284.929 619.169 284.923 618.834 284.965C618.5 285.007 618.088 285.082 617.6 285.19L616.17 285.507L617.186 290.095L618.41 289.824C619.005 289.692 619.501 289.546 619.897 289.386C620.3 289.217 620.62 288.982 620.858 288.682C621.085 288.407 621.23 288.107 621.294 287.781C621.366 287.453 621.348 287.049 621.242 286.568ZM635.289 295.857L632.236 282.069L627.202 283.184L626.483 279.935L640.83 276.758L641.55 280.007L636.515 281.122L639.568 294.909L635.289 295.857ZM658.561 291.028C657.257 291.317 656.081 291.445 655.033 291.413C653.994 291.379 653.009 291.269 652.08 291.083L651.183 287.032L651.572 286.946C652.587 287.482 653.652 287.83 654.768 287.991C655.884 288.152 656.926 288.125 657.895 287.911C658.139 287.857 658.453 287.759 658.838 287.618C659.231 287.475 659.536 287.319 659.755 287.151C660.024 286.955 660.236 286.72 660.391 286.446C660.545 286.164 660.579 285.832 660.495 285.451C660.4 285.024 660.156 284.714 659.761 284.521C659.366 284.328 658.923 284.222 658.43 284.203C657.817 284.179 657.163 284.172 656.469 284.182C655.783 284.19 655.131 284.158 654.515 284.086C653.093 283.913 652.008 283.497 651.262 282.838C650.516 282.179 650.013 281.258 649.751 280.076C649.398 278.482 649.787 277.043 650.92 275.76C652.05 274.47 653.626 273.601 655.648 273.153C656.662 272.928 657.692 272.809 658.737 272.793C659.789 272.776 660.751 272.855 661.622 273.031L662.483 276.921L662.105 277.004C661.352 276.603 660.477 276.317 659.479 276.146C658.488 275.973 657.513 275.993 656.551 276.206C656.178 276.288 655.848 276.389 655.562 276.509C655.277 276.628 654.987 276.8 654.693 277.025C654.453 277.206 654.26 277.441 654.116 277.729C653.978 278.008 653.942 278.296 654.007 278.593C654.104 279.028 654.333 279.341 654.696 279.533C655.064 279.716 655.714 279.812 656.644 279.822C657.245 279.825 657.822 279.829 658.375 279.835C658.936 279.839 659.542 279.881 660.191 279.961C661.468 280.126 662.473 280.508 663.206 281.106C663.944 281.694 664.444 282.58 664.706 283.762C665.081 285.456 664.715 286.965 663.608 288.29C662.509 289.614 660.826 290.526 658.561 291.028ZM671.353 287.872L668.3 274.084L663.266 275.199L662.547 271.95L676.894 268.773L677.614 272.022L672.58 273.137L675.632 286.924L671.353 287.872ZM689.395 284.249C687.107 284.756 685.222 284.593 683.742 283.76C682.269 282.926 681.297 281.445 680.825 279.317L678.416 268.436L682.695 267.489L685.049 278.118C685.311 279.3 685.727 280.132 686.298 280.614C686.876 281.094 687.669 281.223 688.675 281C689.659 280.782 690.319 280.344 690.653 279.686C690.995 279.026 691.03 278.082 690.758 276.854L688.405 266.224L692.684 265.277L695.091 276.147C695.555 278.244 695.31 279.991 694.354 281.387C693.405 282.773 691.752 283.727 689.395 284.249ZM713.086 269.714C713.438 271.3 713.406 272.8 712.99 274.212C712.573 275.617 711.909 276.772 710.997 277.678C710.239 278.446 709.356 279.029 708.348 279.429C707.346 279.818 706.258 280.143 705.083 280.404L699.751 281.584L695.979 264.547L701.265 263.377C702.463 263.112 703.601 262.94 704.68 262.861C705.758 262.782 706.821 262.935 707.866 263.32C709.146 263.789 710.245 264.561 711.164 265.638C712.081 266.708 712.722 268.066 713.086 269.714ZM708.685 270.652C708.437 269.531 708.03 268.617 707.466 267.909C706.907 267.193 706.177 266.698 705.277 266.426C704.626 266.234 703.977 266.193 703.33 266.305C702.69 266.414 701.927 266.567 701.043 266.763L700.963 266.781L703.324 277.444L703.404 277.427C704.365 277.214 705.17 277.02 705.819 276.844C706.474 276.659 707.058 276.313 707.57 275.808C708.174 275.21 708.573 274.482 708.767 273.623C708.961 272.764 708.933 271.773 708.685 270.652ZM725.998 275.773L716.822 277.804L716.164 274.83L718.612 274.287L716.157 263.2L713.709 263.743L713.05 260.768L722.226 258.736L722.885 261.711L720.436 262.253L722.891 273.34L725.34 272.798L725.998 275.773ZM742.466 263.197C743.076 265.95 742.819 268.28 741.697 270.184C740.574 272.089 738.731 273.326 736.168 273.893C733.598 274.462 731.404 274.112 729.586 272.842C727.767 271.564 726.557 269.568 725.956 266.852C725.349 264.114 725.603 261.789 726.716 259.878C727.828 257.96 729.669 256.716 732.239 256.147C734.802 255.58 736.995 255.926 738.819 257.187C740.641 258.44 741.856 260.443 742.466 263.197ZM738.047 264.163C737.822 263.149 737.525 262.31 737.154 261.648C736.789 260.977 736.381 260.451 735.929 260.071C735.46 259.687 734.97 259.447 734.461 259.352C733.958 259.247 733.458 259.25 732.963 259.36C732.436 259.476 731.981 259.677 731.596 259.962C731.209 260.24 730.871 260.663 730.58 261.231C730.328 261.751 730.172 262.402 730.112 263.183C730.061 263.963 730.148 264.86 730.372 265.874C730.604 266.919 730.899 267.766 731.259 268.415C731.617 269.056 732.026 269.569 732.488 269.955C732.959 270.347 733.45 270.594 733.961 270.697C734.47 270.792 734.972 270.785 735.468 270.675C735.971 270.564 736.436 270.349 736.862 270.031C737.286 269.705 737.619 269.275 737.86 268.741C738.117 268.165 738.272 267.526 738.325 266.826C738.376 266.119 738.283 265.231 738.047 264.163Z" fill="#428396" fill-opacity="0.7"/>
<path d="M468.75 260.733L466.779 258.853L471.767 253.621L467.111 255.628L465.759 254.339L467.543 249.593L462.554 254.825L460.688 253.046L468.214 245.153L470.499 247.331L468.533 252.895L473.992 250.662L476.276 252.841L468.75 260.733ZM470.388 262.295L477.914 254.402L483.252 259.492L481.817 260.998L478.451 257.788L477.132 259.171L480.232 262.128L478.797 263.634L475.696 260.677L473.796 262.67L477.162 265.879L475.726 267.385L470.388 262.295ZM483.831 275.113L481.923 273.293L484.127 264.89L478.88 270.392L477.067 268.664L484.593 260.771L487.026 263.091L485.233 270.013L489.544 265.492L491.357 267.22L483.831 275.113ZM486.948 278.085L493.038 271.698L490.706 269.474L492.141 267.968L498.788 274.307L497.353 275.812L495.021 273.588L488.93 279.975L486.948 278.085ZM503.027 285.888C501.811 287.163 500.513 287.842 499.133 287.923C497.754 288.004 496.47 287.479 495.283 286.346C494.092 285.211 493.509 283.95 493.535 282.565C493.564 281.176 494.179 279.852 495.378 278.594C496.588 277.326 497.882 276.647 499.262 276.559C500.644 276.468 501.931 276.99 503.122 278.125C504.309 279.257 504.894 280.516 504.875 281.901C504.859 283.283 504.243 284.612 503.027 285.888ZM500.986 283.931C501.434 283.461 501.765 283.015 501.98 282.592C502.201 282.169 502.332 281.774 502.371 281.407C502.407 281.029 502.361 280.692 502.233 280.395C502.112 280.097 501.937 279.839 501.707 279.62C501.463 279.387 501.2 279.221 500.918 279.12C500.639 279.016 500.302 278.988 499.906 279.036C499.548 279.086 499.156 279.231 498.73 279.473C498.308 279.718 497.872 280.075 497.424 280.545C496.963 281.029 496.626 281.478 496.415 281.89C496.207 282.299 496.083 282.691 496.044 283.065C496.005 283.446 496.047 283.786 496.172 284.087C496.3 284.385 496.479 284.643 496.708 284.862C496.942 285.084 497.215 285.251 497.528 285.361C497.845 285.467 498.184 285.49 498.545 285.43C498.934 285.362 499.319 285.22 499.701 285.003C500.086 284.783 500.514 284.426 500.986 283.931ZM507.742 297.913L505.325 295.609L505.885 290.617L505.175 289.94L502.415 292.834L500.443 290.953L507.969 283.061L511.144 286.088C511.583 286.506 511.937 286.898 512.208 287.265C512.483 287.628 512.676 288.027 512.786 288.463C512.897 288.913 512.902 289.357 512.802 289.794C512.705 290.228 512.453 290.659 512.046 291.087C511.469 291.691 510.865 292.053 510.232 292.171C509.603 292.286 508.954 292.238 508.286 292.026L507.742 297.913ZM509.773 289.395C509.961 289.197 510.084 288.99 510.141 288.775C510.205 288.559 510.186 288.328 510.083 288.082C510.01 287.911 509.904 287.746 509.766 287.587C509.627 287.428 509.445 287.241 509.219 287.025L508.556 286.393L506.529 288.519L507.097 289.06C507.372 289.323 507.621 289.529 507.842 289.679C508.07 289.829 508.303 289.913 508.542 289.932C508.764 289.954 508.97 289.925 509.162 289.845C509.357 289.768 509.56 289.618 509.773 289.395ZM510.633 300.943C510.028 300.366 509.552 299.801 509.204 299.246C508.859 298.695 508.573 298.146 508.346 297.599L510.135 295.722L510.316 295.894C510.391 296.607 510.582 297.281 510.887 297.916C511.192 298.551 511.569 299.083 512.018 299.511C512.131 299.619 512.291 299.748 512.499 299.898C512.709 300.052 512.897 300.157 513.06 300.211C513.255 300.283 513.451 300.311 513.648 300.296C513.848 300.277 514.032 300.18 514.2 300.003C514.389 299.805 514.465 299.57 514.427 299.298C514.389 299.026 514.29 298.759 514.128 298.497C513.927 298.17 513.703 297.829 513.456 297.472C513.213 297.118 513.003 296.769 512.825 296.425C512.419 295.626 512.258 294.919 512.34 294.302C512.422 293.685 512.724 293.103 513.246 292.555C513.95 291.817 514.833 291.518 515.893 291.658C516.956 291.795 517.956 292.31 518.893 293.203C519.363 293.651 519.784 294.144 520.156 294.681C520.531 295.221 520.825 295.748 521.038 296.261L519.319 298.063L519.144 297.896C519.09 297.365 518.934 296.811 518.675 296.234C518.419 295.66 518.069 295.16 517.624 294.736C517.45 294.571 517.283 294.435 517.122 294.328C516.96 294.221 516.77 294.131 516.551 294.057C516.373 293.995 516.184 293.977 515.985 294.003C515.792 294.028 515.63 294.11 515.498 294.248C515.306 294.449 515.224 294.677 515.25 294.932C515.284 295.187 515.46 295.557 515.779 296.044C515.987 296.357 516.186 296.657 516.376 296.946C516.569 297.239 516.759 297.568 516.943 297.933C517.302 298.653 517.454 299.307 517.399 299.896C517.351 300.484 517.066 301.052 516.544 301.6C515.796 302.384 514.885 302.72 513.812 302.608C512.742 302.498 511.682 301.943 510.633 300.943Z" fill="#428396" fill-opacity="0.7"/>
<path d="M42.9489 112.322L40.9771 110.442L45.9658 105.21L41.3096 107.217L39.9579 105.928L41.7411 101.182L36.7524 106.413L34.8866 104.634L42.4126 96.7415L44.6972 98.9199L42.7314 104.484L48.1903 102.251L50.4749 104.429L42.9489 112.322ZM44.5868 113.884L52.1128 105.991L57.4506 111.081L56.0152 112.586L52.6492 109.377L51.33 110.76L54.4309 113.717L52.9955 115.222L49.8946 112.266L47.9941 114.259L51.3601 117.468L49.9246 118.973L44.5868 113.884ZM58.0294 126.702L56.1211 124.882L58.325 116.479L53.0786 121.981L51.2657 120.252L58.7917 112.36L61.2247 114.679L59.4312 121.602L63.7425 117.08L65.5554 118.809L58.0294 126.702ZM61.1462 129.674L67.2367 123.286L64.9044 121.062L66.3399 119.557L72.987 125.895L71.5515 127.401L69.2192 125.177L63.1287 131.564L61.1462 129.674ZM77.2255 137.476C76.0091 138.752 74.7111 139.43 73.3315 139.512C71.952 139.593 70.6686 139.067 69.4812 137.935C68.2903 136.8 67.7078 135.539 67.7335 134.153C67.7627 132.764 68.377 131.441 69.5766 130.183C70.7863 128.914 72.0808 128.236 73.4601 128.148C74.8429 128.056 76.1297 128.578 77.3206 129.714C78.5079 130.846 79.0922 132.105 79.0733 133.49C79.0579 134.872 78.4419 136.201 77.2255 137.476ZM75.1845 135.52C75.6326 135.05 75.9639 134.604 76.1783 134.181C76.3997 133.757 76.5301 133.362 76.5698 132.995C76.6057 132.618 76.5597 132.281 76.4317 131.983C76.3107 131.686 76.1353 131.427 75.9056 131.208C75.6618 130.976 75.3988 130.809 75.1167 130.709C74.8379 130.605 74.5005 130.577 74.1044 130.624C73.7465 130.674 73.3545 130.82 72.9285 131.061C72.5061 131.306 72.0708 131.664 71.6226 132.134C71.161 132.618 70.8246 133.066 70.6134 133.479C70.4055 133.888 70.2819 134.279 70.2424 134.653C70.2031 135.034 70.2458 135.375 70.3703 135.676C70.4983 135.973 70.6771 136.232 70.9068 136.451C71.14 136.673 71.4134 136.839 71.7268 136.949C72.0436 137.056 72.3826 137.079 72.7438 137.018C73.1325 136.95 73.5176 136.808 73.8993 136.592C74.2843 136.372 74.7127 136.015 75.1845 135.52ZM81.9408 149.502L79.5237 147.197L80.0836 142.205L79.3733 141.528L76.6136 144.422L74.6418 142.542L82.1677 134.649L85.3429 137.677C85.7811 138.095 86.1357 138.487 86.4069 138.854C86.6815 139.217 86.8741 139.616 86.9846 140.052C87.0954 140.502 87.1008 140.945 87.0007 141.383C86.904 141.817 86.6517 142.248 86.244 142.675C85.6678 143.28 85.0634 143.641 84.4307 143.76C83.8015 143.875 83.1527 143.826 82.4846 143.614L81.9408 149.502ZM83.971 140.984C84.1597 140.786 84.2825 140.579 84.3396 140.364C84.4035 140.148 84.3842 139.917 84.2817 139.671C84.2085 139.5 84.1027 139.335 83.9642 139.176C83.8258 139.017 83.6435 138.829 83.4173 138.614L82.7547 137.982L80.7279 140.108L81.2951 140.648C81.5707 140.911 81.8191 141.118 82.0402 141.268C82.2683 141.418 82.5017 141.502 82.7404 141.521C82.962 141.543 83.1685 141.514 83.36 141.433C83.555 141.356 83.7587 141.206 83.971 140.984ZM84.831 152.531C84.2268 151.955 83.7505 151.39 83.4023 150.835C83.0577 150.284 82.7718 149.734 82.5446 149.187L84.3339 147.311L84.5141 147.483C84.5898 148.196 84.7802 148.87 85.0854 149.505C85.3906 150.14 85.7676 150.672 86.2164 151.1C86.3295 151.207 86.4897 151.336 86.6971 151.487C86.908 151.641 87.0952 151.745 87.2588 151.8C87.4539 151.871 87.6497 151.899 87.8462 151.884C88.0461 151.866 88.2303 151.768 88.3988 151.592C88.5875 151.394 88.663 151.159 88.6255 150.887C88.5879 150.615 88.4883 150.348 88.3267 150.086C88.1255 149.759 87.9015 149.417 87.6547 149.06C87.4115 148.707 87.2011 148.358 87.0237 148.013C86.6179 147.215 86.456 146.507 86.5381 145.891C86.6201 145.274 86.9223 144.692 87.4445 144.144C88.1488 143.405 89.031 143.106 90.0911 143.247C91.1547 143.384 92.1547 143.899 93.0911 144.792C93.5611 145.24 93.9821 145.733 94.354 146.269C94.7295 146.81 95.0235 147.336 95.236 147.849L93.5175 149.651L93.3426 149.485C93.2886 148.954 93.132 148.4 92.8731 147.823C92.6177 147.248 92.2674 146.749 91.8221 146.324C91.6489 146.159 91.4817 146.023 91.3203 145.917C91.1588 145.81 90.9685 145.72 90.7491 145.645C90.5715 145.584 90.3829 145.566 90.1832 145.592C89.9904 145.617 89.8283 145.698 89.6969 145.836C89.5048 146.038 89.4221 146.266 89.4489 146.521C89.4826 146.776 89.6589 147.146 89.9779 147.632C90.1856 147.945 90.3845 148.246 90.5744 148.535C90.7678 148.828 90.957 149.156 91.1418 149.521C91.5008 150.242 91.6528 150.896 91.5977 151.484C91.5496 152.073 91.2643 152.641 90.742 153.188C89.994 153.973 89.0833 154.309 88.01 154.196C86.9402 154.087 85.8806 153.532 84.831 152.531Z" fill="#428396" fill-opacity="0.7"/>
<path d="M666.949 607.322L664.977 605.442L669.966 600.21L665.31 602.217L663.958 600.928L665.741 596.182L660.752 601.413L658.887 599.634L666.413 591.741L668.697 593.92L666.731 599.484L672.19 597.251L674.475 599.429L666.949 607.322ZM668.587 608.884L676.113 600.991L681.451 606.081L680.015 607.586L676.649 604.377L675.33 605.76L678.431 608.717L676.995 610.222L673.895 607.266L671.994 609.259L675.36 612.468L673.925 613.973L668.587 608.884ZM682.029 621.702L680.121 619.882L682.325 611.479L677.079 616.981L675.266 615.252L682.792 607.36L685.225 609.679L683.431 616.602L687.743 612.08L689.555 613.809L682.029 621.702ZM685.146 624.674L691.237 618.286L688.904 616.062L690.34 614.557L696.987 620.895L695.551 622.401L693.219 620.177L687.129 626.564L685.146 624.674ZM701.225 632.476C700.009 633.752 698.711 634.43 697.332 634.512C695.952 634.593 694.669 634.067 693.481 632.935C692.29 631.8 691.708 630.539 691.733 629.153C691.763 627.764 692.377 626.441 693.577 625.183C694.786 623.914 696.081 623.236 697.46 623.148C698.843 623.056 700.13 623.578 701.321 624.714C702.508 625.846 703.092 627.105 703.073 628.49C703.058 629.872 702.442 631.201 701.225 632.476ZM699.184 630.52C699.633 630.05 699.964 629.604 700.178 629.181C700.4 628.757 700.53 628.362 700.57 627.995C700.606 627.618 700.56 627.281 700.432 626.983C700.311 626.686 700.135 626.427 699.906 626.208C699.662 625.976 699.399 625.809 699.117 625.709C698.838 625.605 698.5 625.577 698.104 625.624C697.746 625.674 697.354 625.82 696.928 626.061C696.506 626.306 696.071 626.664 695.623 627.134C695.161 627.618 694.825 628.066 694.613 628.479C694.405 628.888 694.282 629.279 694.242 629.653C694.203 630.034 694.246 630.375 694.37 630.676C694.498 630.973 694.677 631.232 694.907 631.451C695.14 631.673 695.413 631.839 695.727 631.949C696.044 632.056 696.383 632.079 696.744 632.018C697.132 631.95 697.518 631.808 697.899 631.592C698.284 631.372 698.713 631.015 699.184 630.52ZM705.941 644.502L703.524 642.197L704.084 637.205L703.373 636.528L700.614 639.422L698.642 637.542L706.168 629.649L709.343 632.677C709.781 633.095 710.136 633.487 710.407 633.854C710.681 634.217 710.874 634.616 710.985 635.052C711.095 635.502 711.101 635.945 711.001 636.383C710.904 636.817 710.652 637.248 710.244 637.675C709.668 638.28 709.063 638.641 708.431 638.76C707.801 638.875 707.153 638.826 706.485 638.614L705.941 644.502ZM707.971 635.984C708.16 635.786 708.283 635.579 708.34 635.364C708.404 635.148 708.384 634.917 708.282 634.671C708.208 634.5 708.103 634.335 707.964 634.176C707.826 634.017 707.643 633.829 707.417 633.614L706.755 632.982L704.728 635.108L705.295 635.648C705.571 635.911 705.819 636.118 706.04 636.268C706.268 636.418 706.502 636.502 706.74 636.521C706.962 636.543 707.169 636.514 707.36 636.433C707.555 636.356 707.759 636.206 707.971 635.984ZM708.831 647.531C708.227 646.955 707.75 646.39 707.402 645.835C707.058 645.284 706.772 644.734 706.545 644.187L708.334 642.311L708.514 642.483C708.59 643.196 708.78 643.87 709.085 644.505C709.391 645.14 709.768 645.672 710.216 646.1C710.329 646.207 710.49 646.336 710.697 646.487C710.908 646.641 711.095 646.745 711.259 646.8C711.454 646.871 711.65 646.899 711.846 646.884C712.046 646.866 712.23 646.768 712.399 646.592C712.587 646.394 712.663 646.159 712.625 645.887C712.588 645.615 712.488 645.348 712.327 645.086C712.125 644.759 711.901 644.417 711.655 644.06C711.411 643.707 711.201 643.358 711.024 643.013C710.618 642.215 710.456 641.507 710.538 640.891C710.62 640.274 710.922 639.692 711.445 639.144C712.149 638.405 713.031 638.106 714.091 638.247C715.155 638.384 716.155 638.899 717.091 639.792C717.561 640.24 717.982 640.733 718.354 641.269C718.729 641.81 719.023 642.336 719.236 642.849L717.518 644.651L717.343 644.485C717.289 643.954 717.132 643.4 716.873 642.823C716.618 642.248 716.267 641.749 715.822 641.324C715.649 641.159 715.482 641.023 715.32 640.917C715.159 640.81 714.968 640.72 714.749 640.645C714.572 640.584 714.383 640.566 714.183 640.592C713.99 640.617 713.828 640.698 713.697 640.836C713.505 641.038 713.422 641.266 713.449 641.521C713.483 641.776 713.659 642.146 713.978 642.632C714.186 642.945 714.384 643.246 714.574 643.535C714.768 643.828 714.957 644.156 715.142 644.521C715.501 645.242 715.653 645.896 715.598 646.484C715.55 647.073 715.264 647.641 714.742 648.188C713.994 648.973 713.083 649.309 712.01 649.196C710.94 649.087 709.881 648.532 708.831 647.531Z" fill="#428396" fill-opacity="0.7"/>
<path d="M426.534 153.318L428.137 145.238L425.186 144.653L425.564 142.748L433.973 144.416L433.595 146.32L430.645 145.735L429.042 153.815L426.534 153.318ZM433.025 154.605L435.005 144.621L441.757 145.96L441.38 147.865L437.122 147.02L436.775 148.77L440.697 149.548L440.32 151.452L436.397 150.674L435.897 153.196L440.155 154.04L439.777 155.944L433.025 154.605ZM440.401 156.068L445.754 146.753L448.49 147.296L449.882 157.949L447.3 157.437L447.081 155.275L443.943 154.652L442.915 156.567L440.401 156.068ZM446.89 153.355L446.524 149.861L444.852 152.951L446.89 153.355ZM455.141 159.194C453.643 158.897 452.544 158.209 451.842 157.132C451.141 156.05 450.954 154.688 451.279 153.048C451.593 151.465 452.283 150.292 453.35 149.528C454.422 148.76 455.707 148.525 457.205 148.822C457.603 148.901 457.956 148.994 458.264 149.102C458.573 149.21 458.864 149.332 459.139 149.471C459.354 149.583 459.584 149.724 459.829 149.893C460.074 150.063 460.271 150.206 460.419 150.324L459.947 152.704L459.692 152.654C459.593 152.522 459.466 152.365 459.312 152.181C459.159 151.993 458.981 151.804 458.776 151.615C458.572 151.426 458.339 151.254 458.077 151.1C457.82 150.942 457.54 150.833 457.236 150.773C456.874 150.701 456.529 150.693 456.202 150.749C455.881 150.801 455.556 150.941 455.227 151.169C454.926 151.374 454.652 151.677 454.405 152.079C454.163 152.481 453.983 152.978 453.866 153.568C453.743 154.189 453.722 154.729 453.803 155.186C453.885 155.639 454.034 156.022 454.251 156.334C454.461 156.636 454.713 156.874 455.009 157.049C455.308 157.225 455.617 157.344 455.934 157.407C456.265 157.472 456.591 157.481 456.911 157.433C457.233 157.381 457.51 157.308 457.742 157.215C457.993 157.121 458.218 157.019 458.416 156.91C458.614 156.8 458.787 156.702 458.935 156.615L459.163 156.66L458.697 159.007C458.497 159.056 458.265 159.112 458.002 159.176C457.739 159.235 457.473 159.278 457.203 159.303C456.871 159.335 456.564 159.348 456.282 159.344C455.999 159.339 455.619 159.289 455.141 159.194ZM468.476 161.637L465.968 161.139L466.846 156.714L463.433 156.037L462.555 160.462L460.047 159.965L462.028 149.981L464.535 150.478L463.811 154.133L467.224 154.81L467.948 151.155L470.456 151.653L468.476 161.637ZM470.548 162.048L472.528 152.064L479.28 153.403L478.903 155.307L474.645 154.463L474.298 156.213L478.22 156.991L477.843 158.895L473.92 158.117L473.42 160.638L477.678 161.483L477.3 163.387L470.548 162.048ZM488.23 165.555L485.172 164.948L483.116 160.735L482.217 160.557L481.491 164.218L478.996 163.724L480.977 153.739L484.993 154.536C485.548 154.646 486.023 154.777 486.42 154.931C486.818 155.079 487.17 155.298 487.475 155.586C487.788 155.885 488.014 156.232 488.154 156.626C488.295 157.017 488.312 157.482 488.204 158.023C488.053 158.788 487.757 159.375 487.318 159.785C486.88 160.191 486.345 160.477 485.712 160.644L488.23 165.555ZM485.567 157.828C485.617 157.577 485.61 157.353 485.547 157.155C485.49 156.953 485.359 156.781 485.155 156.638C485.012 156.54 484.846 156.463 484.657 156.407C484.468 156.351 484.231 156.294 483.945 156.238L483.107 156.071L482.573 158.76L483.291 158.903C483.64 158.972 483.939 159.01 484.188 159.018C484.443 159.022 484.669 158.971 484.866 158.866C485.052 158.773 485.2 158.647 485.311 158.488C485.426 158.329 485.511 158.109 485.567 157.828ZM492.022 166.495C491.258 166.344 490.6 166.137 490.048 165.874C489.501 165.612 489.001 165.322 488.548 165.005L489.019 162.631L489.247 162.676C489.663 163.2 490.15 163.636 490.709 163.984C491.267 164.331 491.83 164.562 492.398 164.674C492.541 164.703 492.732 164.724 492.97 164.739C493.213 164.755 493.413 164.743 493.569 164.705C493.759 164.663 493.927 164.587 494.074 164.477C494.223 164.363 494.319 164.193 494.363 163.97C494.413 163.72 494.355 163.497 494.189 163.301C494.024 163.106 493.812 162.945 493.553 162.82C493.231 162.663 492.884 162.506 492.511 162.348C492.142 162.191 491.802 162.022 491.49 161.839C490.77 161.413 490.289 160.936 490.045 160.409C489.801 159.882 489.748 159.273 489.885 158.58C490.07 157.645 490.616 156.968 491.521 156.549C492.428 156.124 493.473 156.03 494.658 156.265C495.253 156.383 495.831 156.56 496.392 156.797C496.958 157.035 497.454 157.303 497.878 157.6L497.425 159.88L497.204 159.836C496.896 159.445 496.496 159.087 496.003 158.762C495.514 158.437 494.988 158.219 494.425 158.107C494.206 158.064 494.006 158.04 493.826 158.037C493.645 158.034 493.45 158.058 493.24 158.109C493.069 158.15 492.912 158.23 492.767 158.35C492.628 158.466 492.541 158.612 492.506 158.786C492.456 159.041 492.505 159.262 492.653 159.449C492.807 159.633 493.132 159.837 493.626 160.06C493.947 160.203 494.254 160.341 494.548 160.473C494.847 160.607 495.16 160.771 495.489 160.966C496.132 161.354 496.579 161.794 496.83 162.285C497.086 162.772 497.146 163.363 497.008 164.056C496.812 165.048 496.262 165.768 495.36 166.217C494.463 166.666 493.35 166.759 492.022 166.495Z" fill="#428396" fill-opacity="0.7"/>
<path d="M606.534 486.318L608.137 478.238L605.186 477.653L605.564 475.748L613.972 477.416L613.595 479.32L610.644 478.735L609.042 486.815L606.534 486.318ZM613.025 487.605L615.005 477.621L621.757 478.96L621.38 480.865L617.122 480.02L616.775 481.77L620.697 482.548L620.32 484.452L616.397 483.674L615.897 486.196L620.155 487.04L619.777 488.944L613.025 487.605ZM620.401 489.068L625.754 479.753L628.489 480.296L629.882 490.949L627.3 490.437L627.081 488.275L623.943 487.652L622.915 489.567L620.401 489.068ZM626.89 486.355L626.524 482.861L624.852 485.951L626.89 486.355ZM635.141 492.194C633.643 491.897 632.543 491.209 631.842 490.132C631.141 489.05 630.954 487.688 631.279 486.048C631.593 484.465 632.283 483.292 633.35 482.528C634.422 481.76 635.707 481.525 637.205 481.822C637.603 481.901 637.956 481.994 638.264 482.102C638.573 482.21 638.864 482.332 639.139 482.471C639.354 482.583 639.584 482.724 639.829 482.893C640.074 483.063 640.271 483.206 640.419 483.324L639.947 485.704L639.692 485.654C639.593 485.522 639.466 485.365 639.312 485.181C639.159 484.993 638.98 484.804 638.776 484.615C638.572 484.426 638.339 484.254 638.077 484.1C637.82 483.942 637.54 483.833 637.236 483.773C636.874 483.701 636.529 483.693 636.202 483.749C635.881 483.801 635.556 483.941 635.227 484.169C634.926 484.374 634.652 484.677 634.405 485.079C634.163 485.481 633.983 485.978 633.866 486.568C633.743 487.189 633.722 487.729 633.803 488.186C633.885 488.639 634.034 489.022 634.251 489.334C634.461 489.636 634.713 489.874 635.008 490.049C635.308 490.225 635.617 490.344 635.934 490.407C636.265 490.472 636.591 490.481 636.911 490.433C637.233 490.381 637.51 490.308 637.742 490.215C637.993 490.121 638.218 490.019 638.416 489.91C638.614 489.8 638.787 489.702 638.934 489.615L639.162 489.66L638.697 492.007C638.497 492.056 638.265 492.112 638.001 492.176C637.739 492.235 637.472 492.278 637.203 492.303C636.871 492.335 636.564 492.348 636.282 492.344C635.999 492.339 635.619 492.289 635.141 492.194ZM648.476 494.637L645.968 494.139L646.846 489.714L643.433 489.037L642.555 493.462L640.047 492.965L642.027 482.981L644.535 483.478L643.81 487.133L647.223 487.81L647.948 484.155L650.456 484.653L648.476 494.637ZM650.548 495.048L652.528 485.064L659.28 486.403L658.903 488.307L654.645 487.463L654.298 489.213L658.22 489.991L657.842 491.895L653.92 491.117L653.42 493.638L657.678 494.483L657.3 496.387L650.548 495.048ZM668.23 498.555L665.172 497.948L663.115 493.735L662.217 493.557L661.491 497.218L658.996 496.724L660.977 486.739L664.993 487.536C665.547 487.646 666.023 487.777 666.42 487.931C666.818 488.079 667.17 488.298 667.475 488.586C667.787 488.885 668.014 489.232 668.154 489.626C668.295 490.017 668.311 490.482 668.204 491.023C668.053 491.788 667.757 492.375 667.318 492.785C666.88 493.191 666.345 493.477 665.712 493.644L668.23 498.555ZM665.567 490.828C665.616 490.577 665.61 490.353 665.547 490.155C665.489 489.953 665.359 489.781 665.155 489.638C665.012 489.54 664.846 489.463 664.657 489.407C664.468 489.351 664.231 489.294 663.945 489.238L663.107 489.071L662.573 491.76L663.291 491.903C663.639 491.972 663.938 492.01 664.188 492.018C664.443 492.022 664.669 491.971 664.866 491.866C665.052 491.773 665.2 491.647 665.31 491.488C665.426 491.329 665.511 491.109 665.567 490.828ZM672.022 499.495C671.258 499.344 670.6 499.137 670.048 498.874C669.501 498.612 669 498.322 668.548 498.005L669.019 495.631L669.247 495.676C669.663 496.2 670.15 496.636 670.709 496.984C671.267 497.331 671.83 497.562 672.398 497.674C672.541 497.703 672.731 497.724 672.97 497.739C673.213 497.755 673.413 497.743 673.569 497.705C673.759 497.663 673.927 497.587 674.074 497.477C674.223 497.363 674.319 497.193 674.363 496.97C674.413 496.72 674.355 496.497 674.189 496.301C674.023 496.106 673.811 495.945 673.553 495.82C673.231 495.663 672.883 495.506 672.51 495.348C672.142 495.191 671.802 495.022 671.489 494.839C670.77 494.413 670.289 493.936 670.045 493.409C669.801 492.882 669.747 492.273 669.885 491.58C670.07 490.645 670.616 489.968 671.521 489.549C672.428 489.124 673.473 489.03 674.658 489.265C675.252 489.383 675.831 489.56 676.392 489.797C676.958 490.035 677.453 490.303 677.878 490.6L677.425 492.88L677.204 492.836C676.896 492.445 676.495 492.087 676.003 491.762C675.514 491.437 674.988 491.219 674.425 491.107C674.206 491.064 674.006 491.04 673.825 491.037C673.645 491.034 673.45 491.058 673.24 491.109C673.069 491.15 672.911 491.23 672.767 491.35C672.628 491.466 672.541 491.612 672.506 491.786C672.456 492.041 672.505 492.262 672.653 492.449C672.807 492.633 673.132 492.837 673.626 493.06C673.946 493.203 674.254 493.341 674.548 493.473C674.847 493.607 675.16 493.771 675.489 493.966C676.132 494.354 676.579 494.794 676.83 495.285C677.086 495.772 677.146 496.363 677.008 497.056C676.812 498.048 676.262 498.768 675.36 499.217C674.463 499.666 673.35 499.759 672.022 499.495Z" fill="#428396" fill-opacity="0.7"/>
<path d="M355.671 95.5039L358.894 82.0717L362.465 81.7484L368.048 94.3834L364.678 94.6885L363.623 92.1012L359.527 92.4721L358.953 95.2068L355.671 95.5039ZM362.691 89.8028L360.972 85.6254L360.03 90.0437L362.691 89.8028ZM381.397 93.1749L377.405 93.5363L373.34 89.0859L372.167 89.1921L372.6 93.9713L369.344 94.2661L368.164 81.2325L373.407 80.7578C374.13 80.6923 374.765 80.682 375.31 80.7267C375.855 80.7656 376.368 80.9075 376.849 81.1522C377.343 81.4076 377.748 81.7533 378.064 82.1895C378.379 82.6198 378.569 83.188 378.633 83.8941C378.723 84.892 378.572 85.7235 378.179 86.3886C377.786 87.0478 377.229 87.5953 376.51 88.0311L381.397 93.1749ZM375.309 84.6099C375.279 84.2831 375.19 84.0088 375.04 83.787C374.896 83.5588 374.672 83.3937 374.369 83.2918C374.157 83.2227 373.924 83.1879 373.671 83.1873C373.418 83.1867 373.105 83.2032 372.731 83.2371L371.637 83.3361L371.955 86.8462L372.891 86.7614C373.347 86.7202 373.729 86.659 374.04 86.578C374.355 86.4906 374.616 86.3464 374.821 86.1454C375.017 85.963 375.153 85.7535 375.232 85.5169C375.316 85.2799 375.342 84.9775 375.309 84.6099ZM384.872 92.8603L383.917 82.3126L380.066 82.6613L379.841 80.1754L390.817 79.1816L391.042 81.6676L387.191 82.0162L388.146 92.5639L384.872 92.8603ZM402.645 91.4895C401.647 91.5799 400.76 91.5631 399.984 91.4392C399.214 91.3148 398.492 91.1389 397.818 90.9116L397.538 87.813L397.835 87.786C398.539 88.2812 399.298 88.642 400.113 88.8683C400.928 89.0946 401.706 89.1742 402.447 89.1071C402.634 89.0902 402.877 89.0475 403.177 88.9792C403.482 88.9104 403.724 88.8237 403.903 88.7193C404.122 88.5995 404.302 88.4449 404.444 88.2556C404.585 88.0604 404.642 87.817 404.616 87.5252C404.586 87.1984 404.434 86.9445 404.159 86.7635C403.883 86.5825 403.563 86.4614 403.199 86.4003C402.745 86.3237 402.259 86.2559 401.742 86.1968C401.231 86.1372 400.749 86.0514 400.298 85.9393C399.256 85.6747 398.489 85.2617 397.997 84.7003C397.505 84.1388 397.218 83.4059 397.136 82.5014C397.026 81.2817 397.453 80.2488 398.418 79.4025C399.382 78.5504 400.637 78.0543 402.184 77.9143C402.96 77.844 403.737 77.8531 404.516 77.9414C405.301 78.0293 406.008 78.1799 406.64 78.3934L406.909 81.3695L406.62 81.3957C406.098 81.0252 405.474 80.7287 404.748 80.5061C404.028 80.2831 403.3 80.2048 402.565 80.2714C402.279 80.2973 402.024 80.3409 401.8 80.4024C401.576 80.4638 401.344 80.5643 401.104 80.7037C400.908 80.8156 400.743 80.9717 400.608 81.1722C400.478 81.3663 400.424 81.5772 400.444 81.8048C400.474 82.1374 400.615 82.3923 400.867 82.5696C401.123 82.7405 401.597 82.8741 402.288 82.9704C402.735 83.03 403.164 83.0882 403.575 83.1451C403.992 83.2015 404.438 83.2905 404.914 83.4122C405.848 83.6571 406.559 84.0369 407.047 84.5517C407.54 85.0601 407.828 85.7665 407.91 86.671C408.027 87.9665 407.611 89.0544 406.661 89.9346C405.717 90.8143 404.378 91.3326 402.645 91.4895ZM412.462 90.3625L411.507 79.8148L407.656 80.1635L407.431 77.6776L418.407 76.6838L418.632 79.1697L414.781 79.5184L415.736 90.0661L412.462 90.3625ZM426.229 89.3897C424.479 89.5482 423.092 89.2471 422.07 88.4866C421.054 87.7255 420.473 86.5309 420.325 84.9028L419.572 76.5784L422.845 76.282L423.581 84.4138C423.663 85.3183 423.894 85.977 424.272 86.3899C424.657 86.8022 425.234 86.9735 426.004 86.9037C426.757 86.8356 427.289 86.5727 427.601 86.115C427.918 85.6568 428.034 84.9579 427.949 84.0184L427.213 75.8866L430.487 75.5902L431.24 83.9058C431.385 85.5106 431.036 86.7865 430.192 87.7337C429.353 88.6744 428.033 89.2264 426.229 89.3897ZM445.241 80.838C445.351 82.0517 445.184 83.1641 444.74 84.175C444.295 85.1801 443.691 85.9762 442.926 86.5631C442.289 87.0621 441.576 87.4119 440.789 87.6127C440.006 87.8071 439.165 87.945 438.267 88.0263L434.188 88.3956L433.008 75.362L437.052 74.9959C437.968 74.9129 438.831 74.8936 439.641 74.938C440.451 74.9823 441.227 75.1974 441.968 75.5834C442.875 76.0542 443.619 76.7341 444.2 77.6228C444.78 78.5058 445.127 79.5775 445.241 80.838ZM441.877 81.116C441.8 80.2582 441.584 79.5393 441.232 78.9593C440.885 78.373 440.389 77.9355 439.745 77.6466C439.279 77.4417 438.8 77.3497 438.308 77.3708C437.822 77.3913 437.24 77.4322 436.563 77.4935L436.502 77.499L437.24 85.6571L437.302 85.6515C438.037 85.5849 438.654 85.5173 439.154 85.4485C439.659 85.3734 440.126 85.1722 440.556 84.8451C441.062 84.458 441.428 83.9542 441.654 83.3336C441.881 82.713 441.955 81.9738 441.877 81.116ZM454.268 86.5777L447.248 87.2132L447.042 84.9374L448.915 84.7678L448.147 76.2859L446.274 76.4555L446.068 74.1796L453.088 73.5441L453.294 75.8199L451.421 75.9895L452.189 84.4714L454.062 84.3018L454.268 86.5777ZM467.718 78.7942C467.909 80.9008 467.496 82.6091 466.479 83.919C465.462 85.2289 463.973 85.9726 462.013 86.1501C460.046 86.3281 458.447 85.8581 457.217 84.7399C455.985 83.6159 455.276 82.0151 455.087 79.9377C454.898 77.8427 455.308 76.1377 456.319 74.8224C457.329 73.5014 458.817 72.7518 460.784 72.5738C462.744 72.3963 464.343 72.8634 465.579 73.9753C466.815 75.0812 467.528 76.6875 467.718 78.7942ZM464.339 79.0913C464.269 78.3152 464.127 77.6632 463.915 77.1353C463.707 76.601 463.454 76.1709 463.154 75.8451C462.841 75.5145 462.5 75.2894 462.131 75.1699C461.766 75.0441 461.394 74.9983 461.015 75.0327C460.612 75.0691 460.254 75.1751 459.941 75.3506C459.627 75.5202 459.334 75.8026 459.064 76.1977C458.827 76.5604 458.648 77.0296 458.53 77.6051C458.417 78.1801 458.396 78.8557 458.466 79.6318C458.539 80.4313 458.678 81.0894 458.883 81.6061C459.088 82.1171 459.344 82.5381 459.651 82.8692C459.964 83.2057 460.305 83.4366 460.675 83.5619C461.045 83.6814 461.419 83.724 461.799 83.6896C462.184 83.6548 462.55 83.5393 462.897 83.3431C463.244 83.1411 463.532 82.8532 463.763 82.4793C464.009 82.0746 464.185 81.6145 464.291 81.0989C464.397 80.5775 464.413 79.9083 464.339 79.0913Z" fill="#428396" fill-opacity="0.7"/>
<path d="M5.47439 467.422L4.51948 456.875L0.668042 457.223L0.442984 454.737L11.4196 453.744L11.6446 456.229L7.7932 456.578L8.74811 467.126L5.47439 467.422ZM19.2416 466.449C17.4909 466.608 16.1046 466.307 15.0827 465.546C14.0665 464.785 13.4848 463.591 13.3374 461.963L12.5838 453.638L15.8575 453.342L16.5937 461.474C16.6756 462.378 16.9058 463.037 17.2844 463.45C17.6689 463.862 18.2462 464.033 19.0165 463.964C19.7693 463.895 20.3015 463.632 20.613 463.175C20.9304 462.717 21.0466 462.018 20.9616 461.078L20.2254 452.946L23.4991 452.65L24.2519 460.966C24.3972 462.57 24.0479 463.846 23.2041 464.793C22.3656 465.734 21.0448 466.286 19.2416 466.449ZM29.7034 465.229L28.7485 454.681L24.8971 455.03L24.672 452.544L35.6486 451.55L35.8737 454.036L32.0222 454.385L32.9771 464.932L29.7034 465.229ZM49.4564 456.875C49.6471 458.981 49.2341 460.689 48.2172 461.999C47.2003 463.309 45.7115 464.053 43.7507 464.231C41.7842 464.409 40.1855 463.939 38.9546 462.82C37.7233 461.696 37.0135 460.096 36.8255 458.018C36.6358 455.923 37.0462 454.218 38.0568 452.903C39.0668 451.582 40.5551 450.832 42.5216 450.654C44.4823 450.477 46.0808 450.944 47.3169 452.056C48.5525 453.162 49.2657 454.768 49.4564 456.875ZM46.0769 457.172C46.0066 456.396 45.8652 455.744 45.6527 455.216C45.4455 454.681 45.1918 454.251 44.8917 453.926C44.5793 453.595 44.2383 453.37 43.8686 453.25C43.5042 453.125 43.1324 453.079 42.7531 453.113C42.3504 453.15 41.9923 453.256 41.6787 453.431C41.3646 453.601 41.0725 453.883 40.8023 454.278C40.5645 454.641 40.3864 455.11 40.2678 455.686C40.1552 456.261 40.134 456.936 40.2042 457.712C40.2766 458.512 40.4156 459.17 40.6212 459.687C40.8263 460.198 41.0821 460.619 41.3886 460.95C41.7015 461.286 42.043 461.517 42.4133 461.642C42.783 461.762 43.1575 461.804 43.5368 461.77C43.9219 461.735 44.288 461.62 44.635 461.424C44.9815 461.222 45.2702 460.934 45.5011 460.56C45.7469 460.155 45.9229 459.695 46.0292 459.179C46.1349 458.658 46.1508 457.989 46.0769 457.172ZM64.0425 462.12L60.051 462.481L55.9857 458.031L54.8128 458.137L55.2454 462.916L51.9892 463.211L50.8093 450.178L56.0525 449.703C56.7761 449.637 57.4105 449.627 57.9559 449.672C58.5006 449.711 59.0136 449.852 59.4946 450.097C59.9884 450.353 60.3933 450.698 60.7093 451.134C61.0248 451.565 61.2145 452.133 61.2784 452.839C61.3688 453.837 61.2175 454.668 60.8247 455.334C60.4314 455.993 59.875 456.54 59.1555 456.976L64.0425 462.12ZM57.9544 453.555C57.9248 453.228 57.8353 452.954 57.6858 452.732C57.5416 452.504 57.3177 452.339 57.0144 452.237C56.8022 452.168 56.5696 452.133 56.3165 452.132C56.0635 452.132 55.7502 452.148 55.3768 452.182L54.2826 452.281L54.6004 455.791L55.537 455.706C55.9922 455.665 56.3749 455.604 56.6853 455.523C57.001 455.436 57.2615 455.291 57.4668 455.09C57.6621 454.908 57.7991 454.699 57.8777 454.462C57.9621 454.225 57.9877 453.922 57.9544 453.555ZM69.062 461.904C68.0641 461.994 67.1772 461.977 66.4011 461.853C65.6309 461.729 64.909 461.553 64.2353 461.326L63.9548 458.227L64.2524 458.2C64.9562 458.695 65.7154 459.056 66.5302 459.282C67.3449 459.509 68.1228 459.588 68.8639 459.521C69.0507 459.504 69.2939 459.462 69.5937 459.393C69.8993 459.325 70.1415 459.238 70.3203 459.134C70.5389 459.014 70.719 458.859 70.8607 458.67C71.0019 458.475 71.0593 458.231 71.0329 457.939C71.0033 457.613 70.8509 457.359 70.5756 457.178C70.3004 456.997 69.9805 456.876 69.6161 456.814C69.1621 456.738 68.6764 456.67 68.1592 456.611C67.6479 456.551 67.1665 456.466 66.7151 456.353C65.6733 456.089 64.9064 455.676 64.4143 455.114C63.9222 454.553 63.6352 453.82 63.5534 452.916C63.4429 451.696 63.8701 450.663 64.8348 449.817C65.799 448.965 67.0544 448.469 68.6008 448.329C69.3769 448.258 70.1543 448.267 70.933 448.356C71.7176 448.443 72.4254 448.594 73.0566 448.808L73.3261 451.784L73.0372 451.81C72.5154 451.439 71.8914 451.143 71.1652 450.92C70.4449 450.697 69.7171 450.619 68.9818 450.686C68.6959 450.711 68.441 450.755 68.2171 450.817C67.9932 450.878 67.7611 450.978 67.5207 451.118C67.3249 451.23 67.1596 451.386 67.0248 451.586C66.8953 451.781 66.8408 451.991 66.8614 452.219C66.8916 452.552 67.0323 452.807 67.2837 452.984C67.5404 453.155 68.0143 453.288 68.7055 453.385C69.1521 453.444 69.581 453.502 69.9921 453.559C70.4091 453.616 70.8554 453.705 71.3312 453.826C72.2653 454.071 72.9763 454.451 73.4641 454.966C73.9573 455.474 74.2448 456.181 74.3267 457.085C74.444 458.381 74.0277 459.469 73.0778 460.349C72.1337 461.229 70.7951 461.747 69.062 461.904Z" fill="#428396" fill-opacity="0.7"/>
</g>
<defs>
<clipPath id="clip0_2118_565">
<rect width="767" height="667" fill="white"/>
</clipPath>
</defs>
</svg>
