<svg width="767" height="667" viewBox="0 0 767 667" fill="none" xmlns="http://www.w3.org/2000/svg">
<g clip-path="url(#clip0_986_3455)">
<rect width="767" height="667" fill="#5D737E"/>
<rect x="303.403" y="402.506" width="205.19" height="205.19" rx="19" transform="rotate(-45 303.403 402.506)" stroke="#507C92" stroke-width="2"/>
<rect x="295.409" y="402.506" width="205.19" height="205.19" rx="19" transform="rotate(-45 295.409 402.506)" stroke="#356F8C" stroke-width="2"/>
<rect x="287.414" y="402.506" width="205.19" height="205.19" rx="19" transform="rotate(-45 287.414 402.506)" stroke="#286888" stroke-width="2"/>
<rect x="162.523" y="627.446" width="193.791" height="193.791" rx="19" transform="rotate(-45 162.523 627.446)" stroke="#507C92" stroke-width="2"/>
<rect x="154.969" y="627.446" width="193.791" height="193.791" rx="19" transform="rotate(-45 154.969 627.446)" stroke="#356F8C" stroke-width="2"/>
<rect x="147.414" y="627.445" width="193.791" height="193.791" rx="19" transform="rotate(-45 147.414 627.445)" stroke="#286888" stroke-width="2"/>
<rect x="-75.9603" y="240.688" width="161.607" height="161.607" rx="19" transform="rotate(-45 -75.9603 240.688)" stroke="#507C92" stroke-width="2"/>
<rect x="-82.2726" y="240.688" width="161.607" height="161.607" rx="19" transform="rotate(-45 -82.2726 240.688)" stroke="#356F8C" stroke-width="2"/>
<rect x="-88.5858" y="240.687" width="161.607" height="161.607" rx="19" transform="rotate(-45 -88.5858 240.687)" stroke="#286888" stroke-width="2"/>
<rect x="711.893" y="117.688" width="107.866" height="107.866" rx="19" transform="rotate(-45 711.893 117.688)" stroke="#507C92" stroke-width="2"/>
<rect x="707.654" y="117.688" width="107.866" height="107.866" rx="19" transform="rotate(-45 707.654 117.688)" stroke="#356F8C" stroke-width="2"/>
<rect x="703.414" y="117.687" width="107.866" height="107.866" rx="19" transform="rotate(-45 703.414 117.687)" stroke="#286888" stroke-width="2"/>
<path d="M269.361 442.218L266.779 440.02L267.484 435.746L263.341 437.092L260.879 434.995L267.551 432.981L268.534 426.235L271.11 428.428L270.429 432.457L274.339 431.179L276.808 433.281L270.363 435.222L269.361 442.218ZM270.205 442.938L277.747 434.081L283.737 439.182L282.298 440.871L278.522 437.655L277.199 439.207L280.679 442.17L279.24 443.86L275.761 440.896L273.856 443.133L277.633 446.349L276.195 448.038L270.205 442.938ZM284.152 458.324L282.111 456.587L283.869 454.523L278.92 450.308L277.163 452.372L275.123 450.635L278.299 446.906L278.893 447.412C280.046 446.902 281.27 446.132 282.565 445.101C283.864 444.065 285.123 442.832 286.342 441.401L292.588 446.719L286.489 453.88L287.328 454.595L284.152 458.324ZM284.264 451.986L288.924 446.514L286.985 444.863C285.998 445.869 284.994 446.748 283.971 447.498C282.952 448.245 281.975 448.826 281.041 449.241L284.264 451.986ZM296.097 464.987L293.884 463.103L298.883 457.232L294.045 459.648L292.528 458.357L294.143 453.195L289.143 459.066L287.05 457.283L294.592 448.426L297.156 450.609L295.395 456.653L301.075 453.947L303.639 456.13L296.097 464.987ZM297.934 466.552L305.477 457.696L311.466 462.796L310.028 464.486L306.251 461.269L304.929 462.822L308.408 465.785L306.97 467.474L303.49 464.511L301.586 466.747L305.363 469.964L303.924 471.653L297.934 466.552ZM313.078 479.448L310.889 477.584L315.858 471.749L307.487 474.687L305.429 472.934L312.971 464.078L315.16 465.942L310.667 471.218L318.306 468.621L320.62 470.592L313.078 479.448ZM322.435 467.099C321.823 467.809 321.079 468.161 320.203 468.154C319.331 468.15 318.359 467.692 317.289 466.78C316.238 465.885 315.637 465 315.485 464.126C315.337 463.247 315.56 462.455 316.154 461.75L318.105 463.411C317.745 463.85 317.568 464.243 317.573 464.59C317.582 464.933 317.805 465.29 318.241 465.662C318.677 466.033 319.067 466.194 319.41 466.144C319.754 466.095 320.112 465.859 320.484 465.438L322.435 467.099ZM321.326 489.982L319.286 488.245L321.044 486.181L316.095 481.966L314.337 484.03L312.297 482.293L315.473 478.564L316.068 479.07C317.221 478.56 318.445 477.79 319.74 476.759C321.039 475.723 322.298 474.49 323.517 473.059L329.762 478.377L323.664 485.539L324.502 486.253L321.326 489.982ZM321.439 483.644L326.099 478.172L324.16 476.521C323.173 477.527 322.168 478.406 321.146 479.156C320.127 479.903 319.15 480.484 318.215 480.899L321.439 483.644ZM324.224 488.941L331.767 480.084L337.756 485.185L336.318 486.874L332.541 483.658L331.219 485.21L334.698 488.173L333.26 489.863L329.78 486.899L327.876 489.136L331.653 492.352L330.214 494.041L324.224 488.941ZM343.697 495.067C343.345 495.479 342.946 495.816 342.497 496.077C342.049 496.339 341.596 496.49 341.137 496.53C340.855 496.556 340.567 496.557 340.273 496.533C339.983 496.512 339.69 496.454 339.394 496.359C339.099 496.265 338.8 496.134 338.498 495.966C338.201 495.801 337.893 495.584 337.576 495.314L336.41 494.321L333.943 497.217L331.719 495.323L339.261 486.466L342.699 489.394C343.21 489.83 343.61 490.252 343.898 490.661C344.193 491.07 344.405 491.504 344.534 491.963C344.678 492.468 344.683 492.985 344.548 493.513C344.416 494.037 344.132 494.555 343.697 495.067ZM341.367 493.175C341.58 492.925 341.703 492.661 341.736 492.381C341.772 492.097 341.736 491.851 341.627 491.642C341.494 491.371 341.336 491.148 341.152 490.97C340.975 490.792 340.722 490.563 340.393 490.283L340.077 490.014L337.818 492.667L337.973 492.799C338.183 492.978 338.383 493.145 338.573 493.299C338.763 493.454 338.937 493.579 339.096 493.673C339.232 493.755 339.389 493.823 339.567 493.879C339.752 493.935 339.911 493.957 340.043 493.946C340.319 493.928 340.55 493.861 340.737 493.747C340.927 493.635 341.137 493.445 341.367 493.175ZM338.773 501.33L349.307 495.022L351.734 497.088L347.183 508.493L344.893 506.543L345.88 504.263L343.097 501.893L341.004 503.23L338.773 501.33ZM346.76 502.242L348.343 498.552L344.952 500.702L346.76 502.242ZM357.111 516.947L354.898 515.062L359.897 509.192L355.059 511.608L353.542 510.316L355.157 505.155L350.157 511.025L348.064 509.242L355.606 500.386L358.17 502.569L356.409 508.612L362.089 505.907L364.653 508.09L357.111 516.947Z" fill="#428396" fill-opacity="0.7"/>
<path d="M451.929 594.558C450.209 595.504 448.558 595.736 446.976 595.256C445.392 594.77 444.081 593.585 443.045 591.701C442.045 589.884 441.754 588.158 442.172 586.523C442.593 584.881 443.663 583.587 445.383 582.64C445.84 582.389 446.264 582.189 446.657 582.04C447.05 581.89 447.439 581.77 447.823 581.679C448.127 581.612 448.47 581.56 448.852 581.525C449.233 581.489 449.546 581.467 449.789 581.46L451.293 584.194L451.001 584.355C450.794 584.308 450.539 584.258 450.235 584.204C449.929 584.145 449.597 584.107 449.24 584.09C448.882 584.072 448.511 584.096 448.125 584.161C447.742 584.218 447.376 584.343 447.027 584.535C446.611 584.763 446.265 585.041 445.99 585.366C445.716 585.684 445.512 586.09 445.377 586.586C445.25 587.037 445.231 587.562 445.321 588.162C445.415 588.759 445.648 589.396 446.021 590.073C446.414 590.787 446.839 591.335 447.297 591.719C447.753 592.097 448.217 592.35 448.688 592.478C449.144 592.602 449.59 592.628 450.025 592.555C450.465 592.48 450.868 592.343 451.232 592.142C451.612 591.933 451.94 591.672 452.216 591.36C452.49 591.042 452.702 590.742 452.853 590.458C453.022 590.157 453.159 589.871 453.264 589.6C453.369 589.328 453.458 589.089 453.531 588.881L453.793 588.737L455.275 591.432C455.119 591.646 454.937 591.893 454.73 592.174C454.521 592.449 454.294 592.711 454.049 592.96C453.749 593.265 453.458 593.532 453.176 593.761C452.894 593.99 452.478 594.255 451.929 594.558ZM459.599 590.047L454.494 580.768L451.106 582.632L449.903 580.445L459.559 575.132L460.762 577.319L457.374 579.183L462.479 588.462L459.599 590.047ZM470.217 569.269L471.435 580.546C471.503 581.204 471.481 581.765 471.368 582.228C471.26 582.689 471.096 583.083 470.875 583.412C470.655 583.74 470.406 584.018 470.129 584.244C469.85 584.464 469.54 584.668 469.201 584.854C468.847 585.049 468.43 585.269 467.949 585.513C467.473 585.755 467.152 585.912 466.984 585.984L465.645 583.551L465.822 583.453C465.874 583.438 465.953 583.411 466.059 583.373C466.165 583.335 466.297 583.283 466.454 583.216C466.583 583.158 466.722 583.095 466.872 583.027C467.021 582.958 467.155 582.891 467.273 582.826C467.617 582.637 467.918 582.418 468.175 582.169C468.435 581.912 468.56 581.653 468.55 581.391L459.575 575.124L462.686 573.412L468.099 577.436L467.221 570.917L470.217 569.269ZM489.648 576.946L487.007 578.399L485.537 575.727L479.13 579.252L480.6 581.924L477.959 583.377L475.302 578.549L476.072 578.125C475.996 576.71 475.673 575.115 475.105 573.341C474.534 571.562 473.739 569.745 472.72 567.892L480.805 563.444L485.906 572.715L486.992 572.118L489.648 576.946ZM483.026 574.3L479.128 567.215L476.618 568.596C477.283 570.036 477.807 571.443 478.188 572.818C478.567 574.188 478.789 575.447 478.852 576.596L483.026 574.3ZM495.422 570.339L489.247 573.736L488.145 571.734L489.793 570.828L485.688 563.366L484.04 564.272L482.938 562.27L489.114 558.873L490.216 560.875L488.568 561.781L492.673 569.243L494.321 568.337L495.422 570.339ZM506.257 564.378L503.393 565.954L501.079 561.749L499.994 562.347L499.419 568.14L496 570.021L496.805 563.389C495.935 563.473 495.157 563.346 494.469 563.009C493.787 562.668 493.208 562.064 492.73 561.197C492.408 560.611 492.256 560.03 492.272 559.452C492.294 558.872 492.429 558.333 492.677 557.836C492.893 557.402 493.219 556.992 493.655 556.605C494.093 556.21 494.636 555.835 495.283 555.479L499.949 552.912L506.257 564.378ZM499.944 559.686L498.245 556.598L497.321 557.106C496.875 557.352 496.539 557.556 496.315 557.72C496.088 557.878 495.908 558.104 495.775 558.398C495.671 558.623 495.631 558.865 495.654 559.127C495.675 559.383 495.754 559.637 495.893 559.888C496.037 560.15 496.215 560.359 496.429 560.516C496.639 560.668 496.868 560.763 497.116 560.8C497.396 560.847 497.677 560.816 497.958 560.708C498.245 560.597 498.604 560.423 499.035 560.186L499.944 559.686ZM520.349 556.625L517.485 558.201L513.303 550.601L513.915 556.654L511.951 557.734L507.166 553.977L511.347 561.578L508.637 563.069L502.329 551.603L505.648 549.777L511.303 554.039L510.722 546.985L514.041 545.159L520.349 556.625Z" fill="#428396" fill-opacity="0.7"/>
<path d="M205.256 339.212L208.471 330.364L205.24 329.19L205.998 327.105L215.206 330.45L214.448 332.536L211.217 331.362L208.002 340.21L205.256 339.212ZM223.497 337.37C223.312 337.879 223.055 338.335 222.726 338.736C222.398 339.137 222.026 339.437 221.61 339.635C221.355 339.759 221.085 339.86 220.801 339.94C220.522 340.021 220.228 340.07 219.917 340.084C219.607 340.099 219.282 340.08 218.94 340.028C218.604 339.978 218.24 339.882 217.848 339.74L216.409 339.217L215.11 342.793L212.363 341.795L216.336 330.861L220.58 332.404C221.212 332.633 221.734 332.889 222.146 333.172C222.566 333.452 222.916 333.784 223.197 334.169C223.509 334.593 223.694 335.075 223.752 335.617C223.811 336.154 223.727 336.739 223.497 337.37ZM220.653 336.412C220.766 336.103 220.788 335.812 220.721 335.539C220.656 335.26 220.536 335.042 220.361 334.884C220.142 334.677 219.916 334.523 219.681 334.421C219.453 334.316 219.136 334.19 218.73 334.042L218.341 333.901L217.151 337.175L217.342 337.245C217.601 337.339 217.847 337.426 218.079 337.504C218.31 337.583 218.517 337.639 218.699 337.672C218.855 337.701 219.026 337.71 219.213 337.7C219.406 337.687 219.562 337.653 219.683 337.597C219.934 337.483 220.128 337.34 220.262 337.167C220.402 336.996 220.532 336.745 220.653 336.412ZM222.247 345.386L226.22 334.453L233.614 337.14L232.856 339.225L228.193 337.531L227.497 339.447L231.793 341.008L231.035 343.093L226.739 341.532L225.736 344.293L230.399 345.988L229.641 348.073L222.247 345.386ZM240.728 352.102L237.982 351.104L239.743 346.258L236.006 344.9L234.245 349.746L231.499 348.748L235.472 337.815L238.218 338.813L236.764 342.814L240.501 344.172L241.955 340.171L244.701 341.169L240.728 352.102ZM242.997 352.926L246.97 341.993L254.364 344.68L253.607 346.765L248.944 345.071L248.248 346.987L252.543 348.548L251.785 350.634L247.49 349.073L246.487 351.834L251.149 353.528L250.392 355.613L242.997 352.926ZM263.383 351.864C263.198 352.373 262.941 352.828 262.612 353.23C262.284 353.631 261.911 353.931 261.496 354.129C261.24 354.252 260.971 354.354 260.687 354.433C260.408 354.515 260.113 354.563 259.803 354.578C259.493 354.593 259.167 354.574 258.826 354.522C258.49 354.472 258.126 354.376 257.734 354.233L256.295 353.71L254.995 357.286L252.249 356.288L256.222 345.355L260.466 346.897C261.098 347.127 261.62 347.383 262.032 347.666C262.452 347.946 262.802 348.278 263.083 348.663C263.395 349.086 263.579 349.569 263.637 350.111C263.697 350.648 263.612 351.232 263.383 351.864ZM260.539 350.905C260.651 350.597 260.674 350.306 260.607 350.032C260.542 349.754 260.422 349.535 260.247 349.378C260.028 349.171 259.802 349.016 259.567 348.914C259.339 348.809 259.022 348.683 258.616 348.536L258.227 348.394L257.037 351.669L257.227 351.738C257.487 351.833 257.733 351.919 257.964 351.998C258.196 352.077 258.403 352.132 258.585 352.165C258.741 352.194 258.912 352.204 259.099 352.194C259.292 352.181 259.448 352.146 259.568 352.09C259.82 351.977 260.014 351.834 260.148 351.661C260.288 351.49 260.418 351.238 260.539 350.905ZM260.958 359.453L268.624 349.862L271.62 350.95L271.34 363.226L268.513 362.198L268.642 359.718L265.205 358.469L263.711 360.453L260.958 359.453ZM268.76 357.517L268.954 353.506L266.528 356.706L268.76 357.517ZM283.595 367.679L280.864 366.686L283.497 359.439L279.808 363.393L277.936 362.713L277.645 357.312L275.012 364.56L272.427 363.62L276.4 352.687L279.565 353.837L280.027 360.115L284.404 355.595L287.568 356.745L283.595 367.679Z" fill="#428396" fill-opacity="0.7"/>
<path d="M629.255 149.212L632.471 140.364L629.24 139.19L629.998 137.105L639.205 140.45L638.448 142.536L635.217 141.362L632.002 150.21L629.255 149.212ZM647.497 147.37C647.312 147.879 647.055 148.335 646.726 148.736C646.397 149.137 646.025 149.437 645.61 149.635C645.354 149.759 645.085 149.86 644.801 149.94C644.522 150.021 644.227 150.07 643.917 150.084C643.607 150.099 643.281 150.08 642.94 150.028C642.604 149.978 642.24 149.882 641.848 149.74L640.409 149.217L639.109 152.793L636.363 151.795L640.336 140.861L644.58 142.404C645.212 142.633 645.734 142.889 646.146 143.172C646.565 143.452 646.916 143.784 647.197 144.169C647.509 144.593 647.693 145.075 647.751 145.617C647.811 146.154 647.726 146.739 647.497 147.37ZM644.653 146.412C644.765 146.103 644.788 145.812 644.721 145.539C644.656 145.26 644.536 145.042 644.361 144.884C644.142 144.677 643.915 144.523 643.681 144.421C643.453 144.316 643.136 144.19 642.73 144.042L642.341 143.901L641.151 147.175L641.341 147.245C641.601 147.339 641.847 147.426 642.078 147.504C642.31 147.583 642.517 147.639 642.699 147.672C642.855 147.701 643.026 147.71 643.212 147.7C643.406 147.687 643.562 147.653 643.682 147.597C643.934 147.483 644.127 147.34 644.262 147.167C644.402 146.996 644.532 146.745 644.653 146.412ZM646.247 155.386L650.219 144.453L657.614 147.14L656.856 149.225L652.193 147.531L651.497 149.447L655.792 151.008L655.035 153.093L650.739 151.532L649.736 154.293L654.398 155.988L653.641 158.073L646.247 155.386ZM664.728 162.102L661.982 161.104L663.743 156.258L660.006 154.9L658.245 159.746L655.498 158.748L659.471 147.815L662.217 148.813L660.763 152.814L664.501 154.172L665.955 150.171L668.701 151.169L664.728 162.102ZM666.997 162.926L670.97 151.993L678.364 154.68L677.606 156.765L672.944 155.071L672.247 156.987L676.543 158.548L675.785 160.634L671.49 159.073L670.486 161.834L675.149 163.528L674.391 165.613L666.997 162.926ZM687.383 161.864C687.198 162.373 686.941 162.828 686.612 163.23C686.283 163.631 685.911 163.931 685.496 164.129C685.24 164.252 684.971 164.354 684.687 164.433C684.408 164.515 684.113 164.563 683.803 164.578C683.493 164.593 683.167 164.574 682.826 164.522C682.489 164.472 682.125 164.376 681.734 164.233L680.295 163.71L678.995 167.286L676.249 166.288L680.222 155.355L684.466 156.897C685.097 157.127 685.62 157.383 686.032 157.666C686.451 157.946 686.802 158.278 687.083 158.663C687.394 159.086 687.579 159.569 687.637 160.111C687.697 160.648 687.612 161.232 687.383 161.864ZM684.539 160.905C684.651 160.597 684.674 160.306 684.607 160.032C684.542 159.754 684.422 159.535 684.246 159.378C684.028 159.171 683.801 159.016 683.567 158.914C683.339 158.809 683.022 158.683 682.616 158.536L682.226 158.394L681.036 161.669L681.227 161.738C681.487 161.833 681.732 161.919 681.964 161.998C682.196 162.077 682.403 162.132 682.585 162.165C682.741 162.194 682.912 162.204 683.098 162.194C683.291 162.181 683.448 162.146 683.568 162.09C683.82 161.977 684.013 161.834 684.148 161.661C684.288 161.49 684.418 161.238 684.539 160.905ZM684.957 169.453L692.624 159.862L695.62 160.95L695.34 173.226L692.513 172.198L692.641 169.718L689.205 168.469L687.711 170.453L684.957 169.453ZM692.76 167.517L692.954 163.506L690.528 166.706L692.76 167.517ZM707.595 177.679L704.864 176.686L707.497 169.439L703.808 173.393L701.935 172.713L701.645 167.312L699.012 174.56L696.427 173.62L700.4 162.687L703.565 163.837L704.027 170.115L708.403 165.595L711.568 166.745L707.595 177.679Z" fill="#428396" fill-opacity="0.7"/>
<path d="M36.2554 625.212L39.4705 616.364L36.2397 615.19L36.9975 613.105L46.2053 616.45L45.4475 618.536L42.2167 617.362L39.0016 626.21L36.2554 625.212ZM54.4968 623.37C54.3118 623.879 54.055 624.335 53.7262 624.736C53.3975 625.137 53.0253 625.437 52.6098 625.635C52.3544 625.759 52.0847 625.86 51.8009 625.94C51.5219 626.021 51.2273 626.07 50.9172 626.084C50.607 626.099 50.2813 626.08 49.94 626.028C49.6036 625.978 49.2396 625.882 48.8479 625.74L47.4088 625.217L46.1094 628.793L43.3632 627.795L47.3361 616.861L51.5802 618.404C52.2117 618.633 52.7337 618.889 53.1463 619.172C53.5655 619.452 53.9158 619.784 54.1971 620.169C54.5087 620.593 54.6934 621.075 54.7514 621.617C54.8112 622.154 54.7263 622.739 54.4968 623.37ZM51.6532 622.412C51.7653 622.103 51.7879 621.812 51.7211 621.539C51.6561 621.26 51.5359 621.042 51.3605 620.884C51.142 620.677 50.9154 620.523 50.6809 620.421C50.4531 620.316 50.136 620.19 49.7297 620.042L49.3405 619.901L48.1505 623.175L48.3414 623.245C48.6009 623.339 48.8465 623.426 49.0784 623.504C49.3102 623.583 49.5172 623.639 49.6992 623.672C49.8549 623.701 50.026 623.71 50.2124 623.7C50.4056 623.687 50.5622 623.653 50.6823 623.597C50.9341 623.483 51.1275 623.34 51.2622 623.167C51.4019 622.996 51.5323 622.745 51.6532 622.412ZM53.2465 631.386L57.2194 620.453L64.6136 623.14L63.8558 625.225L59.1932 623.531L58.4968 625.447L62.7923 627.008L62.0345 629.093L57.739 627.532L56.7358 630.293L61.3984 631.988L60.6407 634.073L53.2465 631.386ZM71.7282 638.102L68.982 637.104L70.743 632.258L67.0056 630.9L65.2446 635.746L62.4984 634.748L66.4713 623.815L69.2175 624.813L67.7633 628.814L71.5008 630.172L72.9549 626.171L75.7011 627.169L71.7282 638.102ZM73.9971 638.926L77.97 627.993L85.3642 630.68L84.6064 632.765L79.9438 631.071L79.2474 632.987L83.5429 634.548L82.7851 636.634L78.4896 635.073L77.4864 637.834L82.149 639.528L81.3913 641.613L73.9971 638.926ZM94.3827 637.864C94.1977 638.373 93.9408 638.828 93.612 639.23C93.2833 639.631 92.9111 639.931 92.4956 640.129C92.2402 640.252 91.9706 640.354 91.6867 640.433C91.4077 640.515 91.1131 640.563 90.803 640.578C90.4928 640.593 90.1671 640.574 89.8258 640.522C89.4894 640.472 89.1254 640.376 88.7338 640.233L87.2946 639.71L85.9952 643.286L83.249 642.288L87.2219 631.355L91.466 632.897C92.0975 633.127 92.6195 633.383 93.0321 633.666C93.4513 633.946 93.8016 634.278 94.0829 634.663C94.3945 635.086 94.5792 635.569 94.6372 636.111C94.697 636.648 94.6121 637.232 94.3827 637.864ZM91.539 636.905C91.6511 636.597 91.6737 636.306 91.6069 636.032C91.5419 635.754 91.4217 635.535 91.2463 635.378C91.0278 635.171 90.8013 635.016 90.5667 634.914C90.3389 634.809 90.0218 634.683 89.6155 634.536L89.2263 634.394L88.0363 637.669L88.2272 637.738C88.4867 637.833 88.7323 637.919 88.9642 637.998C89.196 638.077 89.403 638.132 89.585 638.165C89.7407 638.194 89.9118 638.204 90.0983 638.194C90.2914 638.181 90.448 638.146 90.5681 638.09C90.82 637.977 91.0133 637.834 91.1481 637.661C91.2877 637.49 91.4181 637.238 91.539 636.905ZM91.9575 645.453L99.6238 635.862L102.62 636.95L102.34 649.226L99.5132 648.198L99.6414 645.718L96.205 644.469L94.711 646.453L91.9575 645.453ZM99.7597 643.517L99.9537 639.506L97.5275 642.706L99.7597 643.517ZM114.595 653.679L111.864 652.686L114.497 645.439L110.808 649.393L108.935 648.713L108.645 643.312L106.012 650.56L103.427 649.62L107.4 638.687L110.565 639.837L111.027 646.115L115.403 641.595L118.568 642.745L114.595 653.679Z" fill="#428396" fill-opacity="0.7"/>
<path d="M213.385 137.572L206.177 139.168L209.229 152.955L204.95 153.902L201.178 136.866L212.666 134.322L213.385 137.572ZM228.501 130.816L225.831 145.702C225.671 146.57 225.432 147.279 225.114 147.829C224.804 148.378 224.446 148.822 224.04 149.159C223.635 149.497 223.213 149.759 222.774 149.944C222.333 150.122 221.861 150.266 221.357 150.378C220.831 150.494 220.215 150.619 219.508 150.751C218.809 150.882 218.338 150.962 218.097 150.992L217.296 147.376L217.559 147.318C217.631 147.318 217.742 147.313 217.892 147.304C218.042 147.295 218.23 147.277 218.457 147.251C218.643 147.226 218.845 147.197 219.062 147.165C219.279 147.133 219.475 147.098 219.65 147.059C220.161 146.946 220.629 146.778 221.052 146.556C221.48 146.325 221.737 146.041 221.822 145.702L212.688 134.317L217.311 133.294L222.729 140.472L224.05 131.802L228.501 130.816ZM244.405 132.936C244.581 133.729 244.622 134.512 244.529 135.285C244.436 136.058 244.207 136.737 243.84 137.322C243.616 137.684 243.357 138.029 243.062 138.359C242.774 138.686 242.44 138.984 242.059 139.253C241.679 139.521 241.251 139.76 240.777 139.969C240.311 140.176 239.773 140.347 239.163 140.482L236.92 140.979L238.154 146.551L233.875 147.498L230.103 130.461L236.716 128.997C237.7 128.779 238.567 128.683 239.317 128.709C240.073 128.726 240.783 128.865 241.449 129.125C242.185 129.411 242.807 129.873 243.317 130.512C243.825 131.144 244.188 131.952 244.405 132.936ZM240.035 134.012C239.928 133.531 239.723 133.145 239.418 132.852C239.111 132.552 238.783 132.372 238.434 132.314C237.991 132.228 237.58 132.215 237.201 132.274C236.829 132.325 236.326 132.42 235.692 132.561L235.086 132.695L236.216 137.798L236.513 137.732C236.918 137.642 237.298 137.554 237.655 137.467C238.012 137.38 238.319 137.284 238.576 137.179C238.796 137.091 239.02 136.965 239.248 136.802C239.482 136.631 239.653 136.461 239.76 136.293C239.987 135.947 240.116 135.61 240.148 135.283C240.187 134.954 240.149 134.53 240.035 134.012ZM252.547 143.364L249.495 129.577L244.461 130.691L243.741 127.442L258.089 124.265L258.808 127.515L253.774 128.629L256.827 142.416L252.547 143.364ZM278.646 137.585L273.543 138.715L267.455 132.85L266.38 133.088L267.902 139.964L263.623 140.912L259.851 123.875L264.13 122.928L265.668 129.873C266.332 129.693 266.799 129.434 267.068 129.095C267.344 128.753 267.611 128.078 267.868 127.069C267.938 126.773 268.017 126.424 268.104 126.021C268.198 125.616 268.28 125.261 268.349 124.958C268.616 123.819 269.057 122.953 269.67 122.361C270.289 121.76 271.182 121.33 272.349 121.072C272.73 120.987 273.049 120.925 273.304 120.884C273.557 120.836 273.753 120.797 273.89 120.767L274.698 124.417L273.714 124.634C273.226 124.742 272.832 124.99 272.534 125.376C272.241 125.753 272.008 126.432 271.833 127.415C271.694 128.198 271.533 128.806 271.349 129.239C271.17 129.662 270.981 129.964 270.781 130.145L278.646 137.585ZM278.2 137.684L280.183 119.373L284.851 118.34L294.378 134.102L289.973 135.077L288.139 131.835L282.784 133.02L282.49 136.734L278.2 137.684ZM286.517 128.953L283.534 123.72L283.038 129.723L286.517 128.953ZM313.474 129.874L309.218 130.816L306.718 119.524L305.231 127.498L302.313 128.144L297.599 121.543L300.099 132.835L296.072 133.727L292.299 116.691L297.231 115.599L302.869 123.172L304.771 113.929L309.702 112.837L313.474 129.874Z" fill="#428396" fill-opacity="0.7"/>
<path d="M649.385 287.572L642.177 289.168L645.229 302.955L640.95 303.902L637.178 286.866L648.666 284.322L649.385 287.572ZM664.501 280.816L661.831 295.702C661.671 296.57 661.432 297.279 661.114 297.829C660.804 298.378 660.446 298.822 660.04 299.159C659.635 299.497 659.213 299.759 658.774 299.944C658.333 300.122 657.861 300.266 657.357 300.378C656.831 300.494 656.215 300.619 655.508 300.751C654.809 300.882 654.338 300.962 654.097 300.992L653.296 297.376L653.559 297.318C653.631 297.318 653.742 297.313 653.892 297.304C654.042 297.295 654.23 297.277 654.457 297.251C654.643 297.226 654.845 297.197 655.062 297.165C655.279 297.133 655.475 297.098 655.65 297.059C656.161 296.946 656.629 296.778 657.052 296.556C657.48 296.325 657.737 296.041 657.822 295.702L648.688 284.317L653.311 283.294L658.729 290.472L660.05 281.802L664.501 280.816ZM680.405 282.936C680.581 283.729 680.622 284.512 680.529 285.285C680.436 286.058 680.207 286.737 679.84 287.322C679.616 287.684 679.357 288.029 679.062 288.359C678.774 288.686 678.44 288.984 678.059 289.253C677.679 289.521 677.251 289.76 676.777 289.969C676.311 290.176 675.773 290.347 675.163 290.482L672.92 290.979L674.154 296.551L669.875 297.498L666.103 280.461L672.716 278.997C673.7 278.779 674.567 278.683 675.317 278.709C676.073 278.726 676.783 278.865 677.449 279.125C678.185 279.411 678.807 279.873 679.317 280.512C679.825 281.144 680.188 281.952 680.405 282.936ZM676.035 284.012C675.928 283.531 675.723 283.145 675.418 282.852C675.111 282.552 674.783 282.372 674.434 282.314C673.991 282.228 673.58 282.215 673.201 282.274C672.829 282.325 672.326 282.42 671.692 282.561L671.086 282.695L672.216 287.798L672.513 287.732C672.918 287.642 673.298 287.554 673.655 287.467C674.012 287.38 674.319 287.284 674.576 287.179C674.796 287.091 675.02 286.965 675.248 286.802C675.482 286.631 675.653 286.461 675.76 286.293C675.987 285.947 676.116 285.61 676.148 285.283C676.187 284.954 676.149 284.53 676.035 284.012ZM688.547 293.364L685.495 279.577L680.461 280.691L679.741 277.442L694.089 274.265L694.808 277.515L689.774 278.629L692.827 292.416L688.547 293.364ZM714.646 287.585L709.543 288.715L703.455 282.85L702.38 283.088L703.902 289.964L699.623 290.912L695.851 273.875L700.13 272.928L701.668 279.873C702.332 279.693 702.799 279.434 703.068 279.095C703.344 278.753 703.611 278.078 703.868 277.069C703.938 276.773 704.017 276.424 704.104 276.021C704.198 275.616 704.28 275.261 704.349 274.958C704.616 273.819 705.057 272.953 705.67 272.361C706.289 271.76 707.182 271.33 708.349 271.072C708.73 270.987 709.049 270.925 709.304 270.884C709.557 270.836 709.753 270.797 709.89 270.767L710.698 274.417L709.714 274.634C709.226 274.742 708.832 274.99 708.534 275.376C708.241 275.753 708.008 276.432 707.833 277.415C707.694 278.198 707.533 278.806 707.349 279.239C707.17 279.662 706.981 279.964 706.781 280.145L714.646 287.585ZM714.2 287.684L716.183 269.373L720.851 268.34L730.378 284.102L725.973 285.077L724.139 281.835L718.784 283.02L718.49 286.734L714.2 287.684ZM722.517 278.953L719.534 273.72L719.038 279.723L722.517 278.953ZM749.474 279.874L745.218 280.816L742.718 269.524L741.231 277.498L738.313 278.144L733.599 271.543L736.099 282.835L732.072 283.727L728.299 266.691L733.231 265.599L738.869 273.172L740.771 263.929L745.702 262.837L749.474 279.874Z" fill="#428396" fill-opacity="0.7"/>
<path d="M468.75 260.733L466.779 258.853L471.767 253.621L467.111 255.628L465.759 254.339L467.543 249.593L462.554 254.825L460.688 253.046L468.214 245.153L470.499 247.331L468.533 252.895L473.992 250.662L476.276 252.841L468.75 260.733ZM470.388 262.295L477.914 254.402L483.252 259.492L481.817 260.998L478.451 257.788L477.132 259.171L480.232 262.128L478.797 263.634L475.696 260.677L473.796 262.67L477.162 265.879L475.726 267.385L470.388 262.295ZM483.73 275.017L481.748 273.127L485.084 269.628L482.386 267.056L479.05 270.554L477.067 268.664L484.593 260.771L486.576 262.661L483.821 265.55L486.519 268.123L489.274 265.234L491.256 267.124L483.73 275.017ZM486.884 278.024L492.975 271.637L490.642 269.413L492.078 267.908L498.725 274.246L497.289 275.751L494.957 273.527L488.867 279.915L486.884 278.024ZM502.963 285.827C501.747 287.103 500.449 287.781 499.069 287.862C497.69 287.944 496.407 287.418 495.219 286.286C494.028 285.15 493.446 283.89 493.471 282.504C493.501 281.115 494.115 279.792 495.315 278.534C496.524 277.265 497.819 276.587 499.198 276.499C500.581 276.407 501.868 276.929 503.059 278.064C504.246 279.197 504.83 280.455 504.811 281.841C504.796 283.223 504.18 284.551 502.963 285.827ZM500.922 283.871C501.371 283.401 501.702 282.954 501.916 282.531C502.138 282.108 502.268 281.713 502.308 281.346C502.344 280.969 502.298 280.631 502.17 280.334C502.049 280.036 501.873 279.778 501.644 279.559C501.4 279.326 501.137 279.16 500.855 279.06C500.576 278.956 500.238 278.928 499.842 278.975C499.484 279.025 499.092 279.171 498.666 279.412C498.244 279.657 497.809 280.015 497.361 280.485C496.899 280.969 496.563 281.417 496.351 281.83C496.143 282.239 496.02 282.63 495.98 283.004C495.941 283.385 495.984 283.726 496.108 284.027C496.236 284.324 496.415 284.582 496.645 284.801C496.878 285.024 497.151 285.19 497.465 285.3C497.782 285.406 498.121 285.429 498.482 285.369C498.87 285.301 499.256 285.159 499.637 284.943C500.022 284.723 500.451 284.365 500.922 283.871ZM511.605 291.284C511.254 291.651 510.862 291.946 510.429 292.167C509.996 292.387 509.563 292.505 509.132 292.519C508.866 292.528 508.596 292.514 508.323 292.476C508.053 292.441 507.781 292.371 507.51 292.267C507.238 292.163 506.965 292.024 506.692 291.851C506.422 291.682 506.145 291.462 505.863 291.192L504.824 290.202L502.362 292.783L500.38 290.893L507.906 283L510.969 285.922C511.425 286.356 511.777 286.773 512.025 287.171C512.28 287.569 512.455 287.986 512.552 288.422C512.66 288.903 512.637 289.387 512.483 289.875C512.332 290.358 512.039 290.828 511.605 291.284ZM509.524 289.391C509.736 289.168 509.865 288.927 509.911 288.666C509.96 288.403 509.939 288.17 509.847 287.969C509.738 287.709 509.601 287.491 509.438 287.315C509.282 287.139 509.057 286.912 508.764 286.632L508.483 286.364L506.229 288.728L506.367 288.86C506.554 289.038 506.732 289.205 506.902 289.36C507.071 289.515 507.228 289.64 507.372 289.737C507.495 289.82 507.638 289.893 507.802 289.955C507.972 290.016 508.12 290.046 508.244 290.043C508.503 290.04 508.723 289.99 508.904 289.892C509.088 289.798 509.295 289.631 509.524 289.391ZM506.666 296.887L516.859 291.537L519.021 293.599L514.161 304.034L512.121 302.088L513.164 300.007L510.684 297.641L508.654 298.783L506.666 296.887ZM514.094 298.161L515.77 294.79L512.483 296.625L514.094 298.161ZM523.008 312.47L521.036 310.59L526.025 305.358L521.369 307.365L520.017 306.076L521.801 301.33L516.812 306.561L514.946 304.782L522.472 296.89L524.757 299.068L522.791 304.632L528.25 302.399L530.534 304.577L523.008 312.47Z" fill="#428396" fill-opacity="0.7"/>
<path d="M42.9489 112.322L40.977 110.442L45.9657 105.21L41.3096 107.217L39.9579 105.928L41.7411 101.182L36.7524 106.413L34.8865 104.634L42.4125 96.7415L44.6971 98.9199L42.7314 104.484L48.1903 102.251L50.4749 104.429L42.9489 112.322ZM44.5868 113.884L52.1128 105.991L57.4506 111.081L56.0151 112.586L52.6492 109.377L51.33 110.76L54.4309 113.717L52.9955 115.222L49.8946 112.266L47.9941 114.259L51.3601 117.468L49.9246 118.973L44.5868 113.884ZM57.9287 126.606L55.9462 124.715L59.2821 121.217L56.584 118.644L53.2481 122.143L51.2657 120.252L58.7917 112.36L60.7741 114.25L58.0195 117.139L60.7175 119.711L63.4722 116.823L65.4546 118.713L57.9287 126.606ZM61.0826 129.613L67.1731 123.226L64.8408 121.002L66.2762 119.496L72.9233 125.835L71.4879 127.34L69.1556 125.116L63.065 131.503L61.0826 129.613ZM77.1618 137.416C75.9454 138.691 74.6474 139.37 73.2679 139.451C71.8884 139.532 70.6049 139.007 69.4176 137.874C68.2267 136.739 67.6441 135.478 67.6699 134.093C67.699 132.704 68.3134 131.38 69.5129 130.122C70.7226 128.854 72.0171 128.175 73.3965 128.087C74.7792 127.996 76.0661 128.518 77.2569 129.653C78.4443 130.785 79.0285 132.044 79.0097 133.429C78.9942 134.811 78.3783 136.14 77.1618 137.416ZM75.1208 135.459C75.569 134.989 75.9003 134.543 76.1147 134.12C76.336 133.697 76.4665 133.302 76.5061 132.935C76.542 132.557 76.496 132.22 76.3681 131.923C76.247 131.625 76.0717 131.367 75.842 131.148C75.5981 130.915 75.3351 130.749 75.053 130.648C74.7743 130.544 74.4368 130.516 74.0408 130.564C73.6828 130.614 73.2908 130.759 72.8649 131.001C72.4425 131.246 72.0072 131.603 71.559 132.073C71.0974 132.557 70.7609 133.006 70.5497 133.418C70.3419 133.827 70.2182 134.219 70.1788 134.593C70.1395 134.973 70.1821 135.314 70.3067 135.615C70.4346 135.913 70.6135 136.171 70.8432 136.39C71.0764 136.612 71.3497 136.779 71.6632 136.889C71.98 136.995 72.319 137.018 72.6802 136.958C73.0688 136.89 73.454 136.748 73.8357 136.531C74.2207 136.311 74.6491 135.954 75.1208 135.459ZM85.8031 142.872C85.4527 143.24 85.0608 143.534 84.6274 143.755C84.1941 143.976 83.7617 144.093 83.3303 144.107C83.0646 144.117 82.7949 144.103 82.5212 144.064C82.2509 144.029 81.9799 143.96 81.7081 143.856C81.4362 143.752 81.1635 143.613 80.89 143.44C80.62 143.27 80.3437 143.051 80.061 142.781L79.0221 141.79L76.5606 144.372L74.5781 142.481L82.1041 134.589L85.1679 137.51C85.6238 137.945 85.9756 138.361 86.2234 138.759C86.478 139.157 86.6537 139.575 86.7504 140.011C86.8586 140.492 86.8356 140.976 86.6814 141.463C86.5306 141.947 86.2378 142.417 85.8031 142.872ZM83.7222 140.979C83.9345 140.757 84.0634 140.515 84.109 140.255C84.158 139.991 84.1369 139.759 84.0458 139.557C83.936 139.297 83.7996 139.08 83.6366 138.904C83.4804 138.728 83.2557 138.5 82.9624 138.221L82.6814 137.953L80.4272 140.317L80.565 140.448C80.7523 140.627 80.9307 140.793 81.1001 140.948C81.2696 141.103 81.4263 141.229 81.5702 141.326C81.693 141.409 81.8364 141.482 82.0001 141.543C82.1708 141.605 82.3183 141.634 82.4426 141.631C82.7015 141.629 82.9214 141.578 83.1021 141.481C83.2864 141.387 83.4931 141.22 83.7222 140.979ZM80.8647 148.476L91.057 143.126L93.2197 145.188L88.3599 155.623L86.3192 153.677L87.3627 151.595L84.882 149.23L82.8525 150.371L80.8647 148.476ZM88.2928 149.75L89.9688 146.379L86.6813 148.213L88.2928 149.75ZM97.2068 164.059L95.2349 162.178L100.224 156.947L95.5675 158.953L94.2158 157.665L95.9989 152.918L91.0103 158.15L89.1444 156.371L96.6704 148.478L98.955 150.657L96.9893 156.221L102.448 153.987L104.733 156.166L97.2068 164.059Z" fill="#428396" fill-opacity="0.7"/>
<path d="M666.949 607.322L664.977 605.442L669.966 600.21L665.31 602.217L663.958 600.928L665.741 596.182L660.752 601.413L658.887 599.634L666.413 591.741L668.697 593.92L666.731 599.484L672.19 597.251L674.475 599.429L666.949 607.322ZM668.587 608.884L676.113 600.991L681.451 606.081L680.015 607.586L676.649 604.377L675.33 605.76L678.431 608.717L676.995 610.222L673.895 607.266L671.994 609.259L675.36 612.468L673.925 613.973L668.587 608.884ZM681.929 621.606L679.946 619.715L683.282 616.217L680.584 613.644L677.248 617.143L675.266 615.252L682.792 607.36L684.774 609.25L682.019 612.139L684.718 614.711L687.472 611.823L689.455 613.713L681.929 621.606ZM685.083 624.613L691.173 618.226L688.841 616.002L690.276 614.496L696.923 620.835L695.488 622.34L693.156 620.116L687.065 626.503L685.083 624.613ZM701.162 632.416C699.945 633.691 698.647 634.37 697.268 634.451C695.888 634.532 694.605 634.007 693.418 632.874C692.227 631.739 691.644 630.478 691.67 629.093C691.699 627.704 692.313 626.38 693.513 625.122C694.723 623.854 696.017 623.175 697.397 623.087C698.779 622.996 700.066 623.518 701.257 624.653C702.444 625.785 703.029 627.044 703.01 628.429C702.994 629.811 702.378 631.14 701.162 632.416ZM699.121 630.459C699.569 629.989 699.9 629.543 700.115 629.12C700.336 628.697 700.466 628.302 700.506 627.935C700.542 627.557 700.496 627.22 700.368 626.923C700.247 626.625 700.072 626.367 699.842 626.148C699.598 625.915 699.335 625.749 699.053 625.648C698.774 625.544 698.437 625.516 698.041 625.564C697.683 625.614 697.291 625.759 696.865 626.001C696.442 626.246 696.007 626.603 695.559 627.073C695.097 627.557 694.761 628.006 694.55 628.418C694.342 628.827 694.218 629.219 694.179 629.593C694.139 629.973 694.182 630.314 694.307 630.615C694.435 630.913 694.613 631.171 694.843 631.39C695.076 631.612 695.35 631.779 695.663 631.889C695.98 631.995 696.319 632.018 696.68 631.958C697.069 631.89 697.454 631.748 697.836 631.531C698.221 631.311 698.649 630.954 699.121 630.459ZM709.803 637.872C709.453 638.24 709.061 638.534 708.627 638.755C708.194 638.976 707.762 639.093 707.33 639.107C707.065 639.117 706.795 639.103 706.521 639.064C706.251 639.029 705.98 638.96 705.708 638.856C705.436 638.752 705.164 638.613 704.89 638.44C704.62 638.27 704.344 638.051 704.061 637.781L703.022 636.79L700.561 639.372L698.578 637.481L706.104 629.589L709.168 632.51C709.624 632.945 709.976 633.361 710.223 633.759C710.478 634.157 710.654 634.575 710.75 635.011C710.859 635.492 710.836 635.976 710.681 636.463C710.531 636.947 710.238 637.417 709.803 637.872ZM707.722 635.979C707.934 635.757 708.063 635.515 708.109 635.255C708.158 634.991 708.137 634.759 708.046 634.557C707.936 634.297 707.8 634.08 707.637 633.904C707.48 633.728 707.256 633.5 706.962 633.221L706.681 632.953L704.427 635.317L704.565 635.448C704.752 635.627 704.931 635.793 705.1 635.948C705.27 636.103 705.426 636.229 705.57 636.326C705.693 636.409 705.836 636.482 706 636.543C706.171 636.605 706.318 636.634 706.443 636.631C706.702 636.629 706.921 636.578 707.102 636.481C707.286 636.387 707.493 636.22 707.722 635.979ZM704.865 643.476L715.057 638.126L717.22 640.188L712.36 650.623L710.319 648.677L711.363 646.595L708.882 644.23L706.853 645.371L704.865 643.476ZM712.293 644.75L713.969 641.379L710.681 643.213L712.293 644.75ZM721.207 659.059L719.235 657.178L724.224 651.947L719.567 653.953L718.216 652.665L719.999 647.918L715.01 653.15L713.144 651.371L720.67 643.478L722.955 645.657L720.989 651.221L726.448 648.987L728.733 651.166L721.207 659.059Z" fill="#428396" fill-opacity="0.7"/>
<path d="M433.209 151.464C433.11 151.96 432.93 152.377 432.668 152.715C432.406 153.054 432.092 153.314 431.725 153.497C431.291 153.718 430.836 153.846 430.36 153.881C429.888 153.918 429.306 153.867 428.613 153.73L424.616 152.937L426.597 142.953L430.124 143.653C430.857 143.798 431.405 143.937 431.769 144.07C432.139 144.199 432.471 144.385 432.766 144.63C433.086 144.893 433.301 145.203 433.411 145.559C433.526 145.917 433.542 146.305 433.459 146.725C433.362 147.213 433.153 147.622 432.832 147.953C432.515 148.285 432.125 148.498 431.66 148.592L431.649 148.645C432.24 148.897 432.682 149.261 432.973 149.737C433.265 150.209 433.344 150.784 433.209 151.464ZM430.811 146.723C430.843 146.562 430.833 146.388 430.782 146.202C430.735 146.016 430.632 145.867 430.473 145.757C430.322 145.653 430.133 145.576 429.906 145.526C429.684 145.473 429.349 145.402 428.902 145.313L428.728 145.278L428.309 147.391L428.624 147.453C429.053 147.538 429.354 147.593 429.525 147.618C429.702 147.644 429.89 147.632 430.09 147.583C430.31 147.529 430.474 147.427 430.583 147.277C430.691 147.127 430.768 146.942 430.811 146.723ZM430.637 150.905C430.698 150.596 430.683 150.342 430.593 150.143C430.502 149.944 430.34 149.775 430.108 149.636C429.967 149.548 429.763 149.475 429.496 149.417C429.234 149.356 428.88 149.281 428.433 149.192L427.97 149.1L427.474 151.601L427.608 151.628C428.261 151.758 428.713 151.843 428.965 151.883C429.217 151.924 429.484 151.914 429.765 151.854C430.013 151.801 430.207 151.691 430.347 151.523C430.492 151.352 430.589 151.146 430.637 150.905ZM442.667 156.518L440.2 156.028L441.504 149.45L436.364 155.267L434.044 154.807L436.024 144.823L438.492 145.312L437.312 151.26L442.039 146.016L444.647 146.533L442.667 156.518ZM453.496 158.666L450.506 158.072L448.63 153.512L447.999 153.387L447.2 157.417L444.692 156.919L446.672 146.935L449.18 147.433L448.373 151.503C448.77 151.563 449.08 151.534 449.303 151.415C449.531 151.298 449.832 151 450.205 150.521C450.312 150.38 450.436 150.211 450.577 150.016C450.723 149.822 450.849 149.652 450.957 149.506C451.367 148.96 451.806 148.601 452.272 148.429C452.744 148.253 453.321 148.233 454.005 148.369C454.229 148.413 454.413 148.454 454.559 148.492C454.706 148.526 454.819 148.551 454.9 148.567L454.476 150.706L453.899 150.592C453.613 150.535 453.345 150.575 453.095 150.711C452.85 150.844 452.566 151.152 452.242 151.636C451.985 152.022 451.756 152.308 451.556 152.496C451.361 152.681 451.189 152.798 451.04 152.847L453.496 158.666ZM462.904 160.532L460.396 160.034L461.999 151.954L459.477 151.454C459.382 151.84 459.292 152.2 459.207 152.536C459.127 152.869 459.048 153.186 458.97 153.486C458.748 154.348 458.518 155.085 458.28 155.698C458.043 156.306 457.814 156.797 457.591 157.171C457.349 157.569 457.124 157.875 456.914 158.089C456.704 158.303 456.514 158.467 456.342 158.582C456.085 158.754 455.783 158.871 455.436 158.932C455.091 158.989 454.761 158.986 454.448 158.924C454.238 158.882 454.01 158.828 453.763 158.76C453.516 158.693 453.36 158.648 453.295 158.626L453.733 156.42L453.826 156.438C453.87 156.452 453.912 156.464 453.951 156.477C453.995 156.49 454.05 156.504 454.117 156.517C454.229 156.539 454.376 156.55 454.557 156.548C454.739 156.547 454.883 156.513 454.989 156.446C455.371 156.206 455.683 155.78 455.925 155.168C456.173 154.553 456.447 153.65 456.748 152.46C456.884 151.915 456.998 151.425 457.089 150.987C457.185 150.551 457.329 149.918 457.522 149.087L464.884 150.547L462.904 160.532ZM463.896 160.728L469.249 151.413L471.985 151.956L473.377 162.609L470.796 162.097L470.577 159.935L467.438 159.312L466.411 161.227L463.896 160.728ZM470.386 158.015L470.02 154.521L468.347 157.611L470.386 158.015ZM483.141 166.929L480.842 166.473L481.303 164.146L475.724 163.04L475.263 165.366L472.963 164.91L473.797 160.706L474.467 160.839C475.13 159.958 475.736 158.847 476.285 157.506C476.835 156.161 477.271 154.681 477.591 153.068L484.631 154.464L483.03 162.537L483.975 162.725L483.141 166.929ZM480.522 162.04L481.746 155.871L479.56 155.438C479.235 156.628 478.843 157.728 478.383 158.737C477.923 159.743 477.425 160.603 476.888 161.319L480.522 162.04ZM483.838 164.684L489.191 155.369L491.927 155.911L493.319 166.564L490.737 166.052L490.518 163.89L487.38 163.268L486.352 165.183L483.838 164.684ZM490.327 161.971L489.961 158.476L488.289 161.566L490.327 161.971ZM502.116 168.309L499.609 167.812L500.341 164.117C499.846 164.131 499.419 164.132 499.058 164.121C498.699 164.105 498.238 164.042 497.675 163.93C497.245 163.845 496.856 163.71 496.508 163.524C496.159 163.339 495.865 163.097 495.627 162.799C495.394 162.497 495.233 162.149 495.144 161.755C495.055 161.361 495.062 160.905 495.165 160.387L495.896 156.699L498.417 157.199L497.948 159.566C497.864 159.986 497.812 160.319 497.791 160.566C497.775 160.814 497.818 161.064 497.921 161.317C498.015 161.544 498.173 161.734 498.394 161.884C498.619 162.036 498.951 162.155 499.389 162.242C499.546 162.273 499.758 162.303 500.026 162.333C500.299 162.364 500.519 162.38 500.686 162.381L501.589 157.828L504.097 158.325L502.116 168.309ZM503.109 168.506L508.462 159.191L511.198 159.734L512.59 170.387L510.008 169.875L509.789 167.713L506.651 167.09L505.623 169.005L503.109 168.506ZM509.598 165.793L509.232 162.299L507.56 165.389L509.598 165.793ZM523.781 172.607L521.287 172.112L522.6 165.494L519.935 169.405L518.225 169.065L517.255 164.434L515.943 171.052L513.582 170.584L515.563 160.599L518.453 161.173L519.688 166.54L522.872 162.049L525.762 162.622L523.781 172.607Z" fill="#428396" fill-opacity="0.7"/>
<path d="M613.209 484.464C613.11 484.96 612.93 485.377 612.668 485.715C612.406 486.054 612.091 486.314 611.725 486.497C611.291 486.718 610.836 486.846 610.36 486.881C609.888 486.918 609.306 486.867 608.613 486.73L604.616 485.937L606.597 475.953L610.124 476.653C610.857 476.798 611.405 476.937 611.769 477.07C612.139 477.199 612.471 477.385 612.766 477.63C613.086 477.893 613.301 478.203 613.411 478.559C613.526 478.917 613.542 479.305 613.459 479.725C613.362 480.213 613.153 480.622 612.832 480.953C612.515 481.285 612.124 481.498 611.66 481.592L611.649 481.645C612.24 481.897 612.682 482.261 612.973 482.737C613.265 483.209 613.344 483.784 613.209 484.464ZM610.811 479.723C610.843 479.562 610.833 479.388 610.782 479.202C610.735 479.016 610.632 478.867 610.473 478.757C610.322 478.653 610.132 478.576 609.905 478.526C609.684 478.473 609.349 478.402 608.902 478.313L608.728 478.278L608.309 480.391L608.624 480.453C609.053 480.538 609.354 480.593 609.525 480.618C609.701 480.644 609.89 480.632 610.09 480.583C610.309 480.529 610.474 480.427 610.583 480.277C610.691 480.127 610.767 479.942 610.811 479.723ZM610.637 483.905C610.698 483.596 610.683 483.342 610.592 483.143C610.502 482.944 610.34 482.775 610.108 482.636C609.967 482.548 609.763 482.475 609.496 482.417C609.234 482.356 608.88 482.281 608.432 482.192L607.97 482.1L607.474 484.601L607.608 484.628C608.261 484.758 608.713 484.843 608.965 484.883C609.217 484.924 609.484 484.914 609.765 484.854C610.013 484.801 610.207 484.691 610.347 484.523C610.492 484.352 610.589 484.146 610.637 483.905ZM622.667 489.518L620.199 489.028L621.504 482.45L616.364 488.267L614.044 487.807L616.024 477.823L618.492 478.312L617.312 484.26L622.039 479.016L624.647 479.533L622.667 489.518ZM633.496 491.666L630.505 491.072L628.629 486.512L627.999 486.387L627.2 490.417L624.692 489.919L626.672 479.935L629.18 480.433L628.373 484.503C628.77 484.563 629.08 484.534 629.303 484.415C629.531 484.298 629.832 484 630.205 483.521C630.312 483.38 630.436 483.211 630.577 483.016C630.723 482.822 630.849 482.652 630.957 482.506C631.367 481.96 631.806 481.601 632.272 481.429C632.744 481.253 633.321 481.233 634.005 481.369C634.229 481.413 634.413 481.454 634.559 481.492C634.706 481.526 634.819 481.551 634.9 481.567L634.475 483.706L633.899 483.592C633.613 483.535 633.345 483.575 633.095 483.711C632.85 483.844 632.566 484.152 632.242 484.636C631.984 485.022 631.756 485.308 631.556 485.496C631.361 485.681 631.189 485.798 631.04 485.847L633.496 491.666ZM642.904 493.532L640.396 493.034L641.998 484.954L639.477 484.454C639.382 484.84 639.292 485.2 639.207 485.536C639.127 485.869 639.048 486.186 638.97 486.486C638.748 487.348 638.518 488.085 638.28 488.698C638.043 489.306 637.814 489.797 637.591 490.171C637.349 490.569 637.123 490.875 636.914 491.089C636.704 491.303 636.514 491.467 636.342 491.582C636.085 491.754 635.783 491.871 635.436 491.932C635.091 491.989 634.761 491.986 634.448 491.924C634.238 491.882 634.01 491.828 633.763 491.76C633.516 491.693 633.36 491.648 633.295 491.626L633.732 489.42L633.826 489.438C633.87 489.452 633.912 489.464 633.951 489.477C633.995 489.49 634.05 489.504 634.117 489.517C634.229 489.539 634.376 489.55 634.557 489.548C634.739 489.547 634.882 489.513 634.989 489.446C635.371 489.206 635.683 488.78 635.925 488.168C636.173 487.553 636.447 486.65 636.748 485.46C636.884 484.915 636.997 484.425 637.089 483.987C637.185 483.551 637.329 482.918 637.522 482.087L644.884 483.547L642.904 493.532ZM643.896 493.728L649.249 484.413L651.985 484.956L653.377 495.609L650.796 495.097L650.576 492.935L647.438 492.312L646.41 494.227L643.896 493.728ZM650.386 491.015L650.02 487.521L648.347 490.611L650.386 491.015ZM663.141 499.929L660.841 499.473L661.303 497.146L655.724 496.04L655.263 498.366L652.963 497.91L653.797 493.706L654.467 493.839C655.13 492.958 655.736 491.847 656.285 490.506C656.835 489.161 657.27 487.681 657.591 486.068L664.631 487.464L663.03 495.537L663.975 495.725L663.141 499.929ZM660.522 495.04L661.746 488.871L659.56 488.438C659.235 489.628 658.843 490.728 658.382 491.737C657.923 492.743 657.425 493.603 656.888 494.319L660.522 495.04ZM663.838 497.684L669.191 488.369L671.926 488.911L673.319 499.564L670.737 499.052L670.518 496.89L667.38 496.268L666.352 498.183L663.838 497.684ZM670.327 494.971L669.961 491.476L668.289 494.566L670.327 494.971ZM682.116 501.309L679.608 500.812L680.341 497.117C679.846 497.131 679.418 497.132 679.058 497.121C678.699 497.105 678.238 497.042 677.674 496.93C677.245 496.845 676.856 496.71 676.507 496.524C676.159 496.339 675.865 496.097 675.627 495.799C675.394 495.497 675.233 495.149 675.144 494.755C675.055 494.361 675.062 493.905 675.165 493.387L675.896 489.699L678.417 490.199L677.948 492.566C677.864 492.986 677.812 493.319 677.791 493.566C677.775 493.814 677.818 494.064 677.921 494.317C678.015 494.544 678.173 494.734 678.394 494.884C678.619 495.036 678.951 495.155 679.389 495.242C679.546 495.273 679.758 495.303 680.026 495.333C680.299 495.364 680.519 495.38 680.686 495.381L681.589 490.828L684.097 491.325L682.116 501.309ZM683.109 501.506L688.462 492.191L691.198 492.734L692.59 503.387L690.008 502.875L689.789 500.713L686.651 500.09L685.623 502.005L683.109 501.506ZM689.598 498.793L689.232 495.299L687.56 498.389L689.598 498.793ZM703.781 505.607L701.287 505.112L702.599 498.494L699.935 502.405L698.225 502.065L697.255 497.434L695.943 504.052L693.582 503.584L695.563 493.599L698.453 494.173L699.688 499.54L702.871 495.049L705.761 495.622L703.781 505.607Z" fill="#428396" fill-opacity="0.7"/>
<path d="M362.714 95.1222C360.759 95.2992 359.154 94.8504 357.897 93.7757C356.64 92.6951 355.915 91.0841 355.721 88.9424C355.534 86.8767 355.96 85.179 356.999 83.8495C358.043 82.5136 359.542 81.7571 361.497 81.5802C362.016 81.5331 362.486 81.52 362.905 81.5409C363.325 81.5617 363.729 81.6075 364.118 81.6782C364.424 81.7388 364.758 81.8291 365.122 81.9491C365.486 82.0692 365.781 82.1748 366.007 82.2662L366.288 85.3736L365.956 85.4037C365.785 85.2779 365.572 85.1295 365.315 84.9586C365.058 84.7819 364.769 84.6139 364.449 84.4546C364.128 84.2953 363.779 84.1682 363.399 84.0731C363.025 83.9716 362.64 83.9388 362.243 83.9748C361.771 84.0176 361.343 84.1328 360.96 84.3204C360.582 84.5017 360.232 84.7923 359.909 85.1921C359.612 85.5544 359.384 86.028 359.226 86.6131C359.073 87.1976 359.031 87.875 359.101 88.6453C359.174 89.4564 359.344 90.1294 359.61 90.6642C359.876 91.1932 360.199 91.6111 360.58 91.9179C360.948 92.214 361.345 92.4163 361.773 92.5246C362.206 92.6325 362.63 92.6677 363.044 92.6302C363.476 92.5911 363.881 92.4838 364.26 92.3083C364.637 92.1271 364.953 91.9367 365.205 91.7374C365.481 91.53 365.721 91.323 365.926 91.1162C366.13 90.9094 366.308 90.7256 366.458 90.5649L366.756 90.538L367.033 93.6016C366.804 93.7342 366.538 93.8876 366.236 94.0621C365.934 94.2306 365.621 94.3796 365.297 94.5089C364.9 94.6684 364.526 94.7964 364.176 94.8928C363.826 94.9892 363.339 95.0657 362.714 95.1222ZM371.549 94.0664L370.595 83.5187L366.743 83.8674L366.518 81.3815L377.495 80.3878L377.72 82.8737L373.868 83.2224L374.823 93.7701L371.549 94.0664ZM389.609 79.291L386.203 90.11C386.001 90.7401 385.755 91.2448 385.466 91.624C385.183 92.0026 384.874 92.2983 384.54 92.5109C384.206 92.7235 383.867 92.8777 383.523 92.9736C383.178 93.0636 382.813 93.1261 382.428 93.161C382.025 93.1974 381.555 93.2312 381.016 93.2623C380.484 93.2929 380.126 93.3076 379.944 93.3065L379.693 90.5404L379.895 90.5222C379.948 90.5291 380.031 90.5363 380.144 90.5438C380.256 90.5513 380.398 90.5561 380.569 90.5583C380.71 90.5573 380.863 90.5552 381.027 90.5521C381.191 90.5489 381.341 90.5413 381.475 90.5292C381.866 90.4938 382.229 90.4138 382.565 90.2893C382.906 90.1584 383.125 89.9709 383.22 89.7269L377.512 80.3862L381.048 80.066L384.394 85.923L386.204 79.5993L389.609 79.291ZM404.33 94.1169L401.328 94.3887L401.053 91.3513L393.77 92.0106L394.045 95.048L391.043 95.3198L390.546 89.8315L391.421 89.7523C391.919 88.4247 392.263 86.8344 392.454 84.9815C392.645 83.1227 392.645 81.1401 392.454 79.0334L401.645 78.2014L402.599 88.7403L403.833 88.6286L404.33 94.1169ZM399.325 89.0367L398.596 80.9837L395.743 81.242C395.774 82.8276 395.69 84.3268 395.488 85.7394C395.286 87.1461 394.984 88.3884 394.581 89.4662L399.325 89.0367ZM412.27 90.3799L405.25 91.0155L405.043 88.7396L406.917 88.57L406.149 80.0881L404.276 80.2577L404.07 77.9819L411.09 77.3463L411.296 79.6222L409.422 79.7917L410.19 88.2737L412.064 88.1041L412.27 90.3799ZM424.585 89.2649L421.329 89.5597L420.897 84.7804L419.662 84.8922L416.813 89.9686L412.926 90.3205L416.324 84.5679C415.493 84.2959 414.831 83.8676 414.336 83.2828C413.848 82.6975 413.559 81.9118 413.47 80.9256C413.41 80.2603 413.503 79.6665 413.75 79.144C414.003 78.6211 414.342 78.1814 414.769 77.8251C415.141 77.5149 415.604 77.27 416.159 77.0904C416.718 76.9044 417.366 76.7781 418.101 76.7115L423.405 76.2313L424.585 89.2649ZM420.684 82.4346L420.366 78.9245L419.316 79.0196C418.808 79.0656 418.419 79.1185 418.148 79.1783C417.876 79.2323 417.621 79.3672 417.381 79.583C417.196 79.7469 417.062 79.9532 416.979 80.202C416.895 80.4449 416.866 80.7093 416.892 80.9953C416.918 81.2929 416.998 81.5563 417.131 81.7855C417.263 82.0089 417.435 82.1875 417.647 82.3212C417.885 82.4762 418.154 82.5607 418.455 82.5746C418.762 82.588 419.161 82.5724 419.651 82.5281L420.684 82.4346ZM440.604 87.8147L437.348 88.1095L436.566 79.47L434.698 85.2606L432.466 85.4627L429.589 80.1016L430.371 88.7411L427.29 89.0201L426.11 75.9864L429.883 75.6449L433.354 81.817L435.651 75.1227L439.424 74.7811L440.604 87.8147Z" fill="#428396" fill-opacity="0.7"/>
<path d="M8.61353 467.394C6.65864 467.571 5.05303 467.122 3.79672 466.047C2.53988 464.967 1.81452 463.356 1.62063 461.214C1.43361 459.148 1.85942 457.451 2.89807 456.121C3.94203 454.785 5.44146 454.029 7.39635 453.852C7.91571 453.805 8.3852 453.792 8.8048 453.813C9.22441 453.833 9.62862 453.879 10.0174 453.95C10.323 454.011 10.6577 454.101 11.0215 454.221C11.3854 454.341 11.6803 454.447 11.9063 454.538L12.1876 457.645L11.855 457.675C11.6847 457.55 11.4713 457.401 11.2146 457.23C10.9574 457.054 10.6686 456.886 10.3482 456.726C10.0279 456.567 9.67806 456.44 9.2988 456.345C8.92484 456.243 8.53946 456.211 8.14265 456.246C7.66997 456.289 7.24209 456.405 6.85901 456.592C6.48124 456.773 6.13101 457.064 5.80833 457.464C5.51166 457.826 5.2839 458.3 5.12507 458.885C4.97207 459.469 4.93044 460.147 5.00018 460.917C5.07361 461.728 5.24338 462.401 5.50949 462.936C5.77506 463.465 6.09823 463.883 6.47901 464.19C6.84705 464.486 7.24484 464.688 7.67237 464.796C8.10573 464.904 8.52957 464.939 8.94389 464.902C9.37572 464.863 9.78079 464.756 10.1591 464.58C10.5369 464.399 10.852 464.208 11.1046 464.009C11.38 463.802 11.6201 463.595 11.825 463.388C12.0298 463.181 12.2073 462.997 12.3575 462.837L12.6551 462.81L12.9325 465.873C12.7033 466.006 12.4377 466.159 12.1358 466.334C11.8334 466.502 11.5203 466.651 11.1967 466.781C10.7993 466.94 10.4255 467.068 10.0754 467.165C9.72521 467.261 9.23793 467.337 8.61353 467.394ZM17.4489 466.338L16.4939 455.79L12.6425 456.139L12.4174 453.653L23.394 452.659L23.6191 455.145L19.7677 455.494L20.7226 466.042L17.4489 466.338ZM35.5086 451.563L32.102 462.382C31.9002 463.012 31.6546 463.517 31.3654 463.896C31.082 464.274 30.7734 464.57 30.4396 464.783C30.1059 464.995 29.7668 465.149 29.4225 465.245C29.0777 465.335 28.7127 465.398 28.3275 465.433C27.9249 465.469 27.4543 465.503 26.9159 465.534C26.3833 465.565 26.0257 465.579 25.8432 465.578L25.5928 462.812L25.7941 462.794C25.8477 462.801 25.9307 462.808 26.0432 462.816C26.1557 462.823 26.2973 462.828 26.4681 462.83C26.6092 462.829 26.762 462.827 26.9264 462.824C27.0909 462.821 27.2402 462.813 27.3745 462.801C27.7654 462.765 28.1288 462.686 28.4647 462.561C28.8058 462.43 29.0242 462.243 29.1198 461.999L23.4115 452.658L26.9479 452.338L30.2933 458.195L32.1035 451.871L35.5086 451.563ZM50.2295 466.389L47.2271 466.66L46.9521 463.623L39.6694 464.282L39.9444 467.32L36.942 467.592L36.4452 462.103L37.3205 462.024C37.8181 460.696 38.1624 459.106 38.3535 457.253C38.5441 455.394 38.5441 453.412 38.3534 451.305L47.5443 450.473L48.4984 461.012L49.7326 460.9L50.2295 466.389ZM45.2247 461.308L44.4956 453.255L41.6421 453.514C41.6738 455.099 41.5889 456.598 41.3874 458.011C41.1852 459.418 40.8829 460.66 40.4804 461.738L45.2247 461.308ZM58.169 462.652L51.1489 463.287L50.9429 461.011L52.8161 460.842L52.0482 452.36L50.175 452.529L49.969 450.254L56.9891 449.618L57.1951 451.894L55.3219 452.063L56.0898 460.545L57.963 460.376L58.169 462.652ZM70.4849 461.537L67.2287 461.831L66.796 457.052L65.5618 457.164L62.712 462.24L58.8255 462.592L62.223 456.84C61.3924 456.568 60.73 456.139 60.2358 455.555C59.7474 454.969 59.4586 454.183 59.3693 453.197C59.3091 452.532 59.4024 451.938 59.6493 451.416C59.902 450.893 60.2417 450.453 60.6683 450.097C61.0403 449.787 61.5035 449.542 62.0579 449.362C62.6177 449.176 63.2652 449.05 64.0004 448.983L69.3049 448.503L70.4849 461.537ZM66.5836 454.706L66.2658 451.196L65.2154 451.291C64.7077 451.337 64.3184 451.39 64.0473 451.45C63.7756 451.504 63.5202 451.639 63.2808 451.855C63.0956 452.019 62.9613 452.225 62.878 452.474C62.794 452.717 62.765 452.981 62.7909 453.267C62.8179 453.565 62.8976 453.828 63.0301 454.057C63.1622 454.281 63.3342 454.459 63.5464 454.593C63.784 454.748 64.0534 454.832 64.3547 454.846C64.6619 454.86 65.0605 454.844 65.5507 454.8L66.5836 454.706ZM86.5034 460.086L83.2471 460.381L82.465 451.742L80.5976 457.532L78.3656 457.734L75.4886 452.373L76.2708 461.013L73.1896 461.292L72.0097 448.258L75.7823 447.917L79.2534 454.089L81.5507 447.394L85.3234 447.053L86.5034 460.086Z" fill="#428396" fill-opacity="0.7"/>
</g>
<defs>
<clipPath id="clip0_986_3455">
<rect width="767" height="667" fill="white"/>
</clipPath>
</defs>
</svg>
