<svg width="1920" height="768" viewBox="0 0 1920 768" fill="none" xmlns="http://www.w3.org/2000/svg">
<g clip-path="url(#clip0_2118_381)">
<rect width="1920" height="768" fill="#5D737E"/>
<path d="M852.554 539.318L857.377 526.046L852.53 524.285L853.667 521.157L867.479 526.176L866.342 529.304L861.496 527.543L856.673 540.815L852.554 539.318ZM879.916 536.555C879.639 537.319 879.253 538.002 878.76 538.604C878.267 539.206 877.709 539.656 877.085 539.953C876.702 540.138 876.298 540.29 875.872 540.41C875.454 540.532 875.012 540.604 874.547 540.626C874.081 540.649 873.593 540.621 873.081 540.543C872.576 540.467 872.03 540.323 871.443 540.11L869.284 539.325L867.335 544.689L863.216 543.192L869.175 526.792L875.541 529.105C876.488 529.45 877.271 529.834 877.89 530.258C878.519 530.678 879.044 531.176 879.466 531.754C879.934 532.389 880.211 533.113 880.298 533.926C880.388 534.732 880.26 535.608 879.916 536.555ZM875.651 535.118C875.819 534.655 875.853 534.218 875.752 533.808C875.655 533.39 875.475 533.063 875.212 532.826C874.884 532.516 874.544 532.284 874.192 532.131C873.85 531.974 873.375 531.784 872.765 531.563L872.182 531.351L870.397 536.263L870.683 536.367C871.072 536.509 871.441 536.638 871.788 536.756C872.136 536.875 872.447 536.958 872.72 537.008C872.953 537.051 873.21 537.065 873.489 537.05C873.779 537.031 874.014 536.979 874.194 536.895C874.572 536.725 874.862 536.51 875.064 536.251C875.274 535.995 875.469 535.617 875.651 535.118ZM878.041 548.579L884 532.179L895.091 536.209L893.955 539.337L886.961 536.796L885.916 539.671L892.359 542.012L891.223 545.14L884.779 542.799L883.274 546.94L890.268 549.481L889.132 552.609L878.041 548.579ZM905.763 558.653L901.644 557.156L904.285 549.887L898.679 547.85L896.038 555.119L891.918 553.622L897.878 537.222L901.997 538.719L899.816 544.722L905.422 546.759L907.603 540.756L911.722 542.253L905.763 558.653ZM909.166 559.89L915.126 543.49L926.217 547.52L925.08 550.648L918.086 548.106L917.042 550.981L923.485 553.322L922.348 556.45L915.905 554.109L914.4 558.25L921.394 560.792L920.258 563.92L909.166 559.89ZM939.745 558.296C939.467 559.059 939.082 559.742 938.589 560.344C938.096 560.947 937.537 561.396 936.914 561.693C936.531 561.878 936.127 562.031 935.701 562.15C935.282 562.272 934.84 562.345 934.375 562.367C933.91 562.389 933.421 562.361 932.909 562.283C932.405 562.208 931.859 562.063 931.271 561.85L929.113 561.065L927.164 566.429L923.044 564.932L929.004 548.532L935.37 550.846C936.317 551.19 937.1 551.574 937.719 551.999C938.348 552.418 938.873 552.917 939.295 553.494C939.762 554.129 940.04 554.853 940.127 555.666C940.216 556.472 940.089 557.348 939.745 558.296ZM935.479 556.858C935.647 556.395 935.681 555.959 935.581 555.548C935.484 555.131 935.303 554.803 935.04 554.566C934.712 554.256 934.373 554.024 934.021 553.872C933.679 553.714 933.203 553.525 932.594 553.303L932.01 553.091L930.225 558.003L930.512 558.108C930.901 558.249 931.269 558.379 931.617 558.497C931.965 558.615 932.275 558.699 932.548 558.748C932.782 558.791 933.038 558.805 933.318 558.791C933.608 558.771 933.843 558.72 934.023 558.635C934.401 558.465 934.691 558.25 934.893 557.991C935.102 557.735 935.298 557.357 935.479 556.858ZM952.033 575.466L947.98 573.994L951.906 563.189L941.68 571.704L937.869 570.32L943.829 553.919L947.882 555.392L944.332 565.162L953.708 557.51L957.993 559.066L952.033 575.466Z" fill="#428396" fill-opacity="0.7"/>
<path d="M29.5539 159.318L34.3766 146.046L29.5304 144.285L30.667 141.157L44.4787 146.176L43.3421 149.304L38.4959 147.543L33.6731 160.815L29.5539 159.318ZM56.916 156.555C56.6385 157.319 56.2532 158.002 55.7601 158.604C55.267 159.206 54.7088 159.656 54.0854 159.953C53.7023 160.138 53.2979 160.29 52.8721 160.41C52.4536 160.532 52.0117 160.604 51.5465 160.626C51.0813 160.649 50.5927 160.621 50.0808 160.543C49.5761 160.467 49.0301 160.323 48.4427 160.11L46.2839 159.325L44.3348 164.689L40.2155 163.192L46.1749 146.792L52.5411 149.105C53.4883 149.45 54.2713 149.834 54.8902 150.258C55.519 150.678 56.0444 151.176 56.4664 151.754C56.9338 152.389 57.2109 153.113 57.2979 153.926C57.3875 154.732 57.2602 155.608 56.916 156.555ZM52.6506 155.118C52.8187 154.655 52.8526 154.218 52.7524 153.808C52.6549 153.39 52.4746 153.063 52.2115 152.826C51.8837 152.516 51.5439 152.284 51.1922 152.131C50.8504 151.974 50.3748 151.784 49.7653 151.563L49.1816 151.351L47.3966 156.263L47.6829 156.367C48.0721 156.509 48.4406 156.638 48.7883 156.756C49.1361 156.875 49.4465 156.958 49.7195 157.008C49.9531 157.051 50.2098 157.065 50.4894 157.05C50.7791 157.031 51.0141 156.979 51.1943 156.895C51.572 156.725 51.862 156.51 52.0641 156.251C52.2737 155.995 52.4692 155.617 52.6506 155.118ZM55.0405 168.579L60.9999 152.179L72.0911 156.209L70.9545 159.337L63.9605 156.796L62.9159 159.671L69.3592 162.012L68.2226 165.14L61.7793 162.799L60.2744 166.94L67.2684 169.481L66.1318 172.609L55.0405 168.579ZM82.7631 178.653L78.6438 177.156L81.2853 169.887L75.6791 167.85L73.0376 175.119L68.9183 173.622L74.8777 157.222L78.997 158.719L76.8158 164.722L82.422 166.759L84.6032 160.756L88.7225 162.253L82.7631 178.653ZM86.1665 179.89L92.1258 163.49L103.217 167.52L102.08 170.648L95.0864 168.106L94.0419 170.981L100.485 173.322L99.3485 176.45L92.9052 174.109L91.4004 178.25L98.3943 180.792L97.2577 183.92L86.1665 179.89ZM116.745 178.296C116.467 179.059 116.082 179.742 115.589 180.344C115.096 180.947 114.537 181.396 113.914 181.693C113.531 181.878 113.127 182.031 112.701 182.15C112.282 182.272 111.84 182.345 111.375 182.367C110.91 182.389 110.421 182.361 109.909 182.283C109.405 182.208 108.859 182.063 108.271 181.85L106.113 181.065L104.164 186.429L100.044 184.932L106.004 168.532L112.37 170.846C113.317 171.19 114.1 171.574 114.719 171.999C115.348 172.418 115.873 172.917 116.295 173.494C116.762 174.129 117.04 174.853 117.127 175.666C117.216 176.472 117.089 177.348 116.745 178.296ZM112.479 176.858C112.647 176.395 112.681 175.959 112.581 175.548C112.484 175.131 112.303 174.803 112.04 174.566C111.712 174.256 111.373 174.024 111.021 173.872C110.679 173.714 110.203 173.525 109.594 173.303L109.01 173.091L107.225 178.003L107.512 178.108C107.901 178.249 108.269 178.379 108.617 178.497C108.965 178.615 109.275 178.699 109.548 178.748C109.782 178.791 110.038 178.805 110.318 178.791C110.608 178.771 110.843 178.72 111.023 178.635C111.401 178.465 111.691 178.25 111.893 177.991C112.102 177.735 112.298 177.357 112.479 176.858ZM129.033 195.466L124.98 193.994L128.906 183.189L118.68 191.704L114.869 190.32L120.829 173.919L124.882 175.392L121.332 185.162L130.708 177.51L134.993 179.066L129.033 195.466Z" fill="#428396" fill-opacity="0.7"/>
<path d="M1736.55 458.318L1741.38 445.046L1736.53 443.285L1737.67 440.157L1751.48 445.176L1750.34 448.304L1745.49 446.543L1740.67 459.815L1736.55 458.318ZM1763.91 455.556C1763.64 456.319 1763.25 457.002 1762.76 457.604C1762.27 458.206 1761.71 458.656 1761.08 458.953C1760.7 459.138 1760.3 459.291 1759.87 459.41C1759.45 459.532 1759.01 459.605 1758.55 459.627C1758.08 459.649 1757.59 459.621 1757.08 459.543C1756.57 459.468 1756.03 459.323 1755.44 459.11L1753.28 458.325L1751.33 463.689L1747.21 462.192L1753.17 445.792L1759.54 448.106C1760.49 448.45 1761.27 448.834 1761.89 449.258C1762.52 449.678 1763.04 450.177 1763.46 450.754C1763.93 451.389 1764.21 452.113 1764.3 452.926C1764.39 453.732 1764.26 454.608 1763.91 455.556ZM1759.65 454.118C1759.82 453.655 1759.85 453.219 1759.75 452.808C1759.65 452.39 1759.47 452.063 1759.21 451.826C1758.88 451.516 1758.54 451.284 1758.19 451.132C1757.85 450.974 1757.37 450.785 1756.76 450.563L1756.18 450.351L1754.4 455.263L1754.68 455.367C1755.07 455.509 1755.44 455.639 1755.79 455.757C1756.13 455.875 1756.45 455.958 1756.72 456.008C1756.95 456.051 1757.21 456.065 1757.49 456.051C1757.78 456.031 1758.01 455.979 1758.19 455.895C1758.57 455.725 1758.86 455.51 1759.06 455.251C1759.27 454.995 1759.47 454.617 1759.65 454.118ZM1762.04 467.579L1768 451.179L1779.09 455.21L1777.95 458.338L1770.96 455.796L1769.91 458.671L1776.36 461.012L1775.22 464.14L1768.78 461.799L1767.27 465.94L1774.27 468.482L1773.13 471.61L1762.04 467.579ZM1789.76 477.653L1785.64 476.156L1788.28 468.887L1782.68 466.85L1780.04 474.119L1775.92 472.622L1781.88 456.222L1786 457.719L1783.81 463.722L1789.42 465.759L1791.6 459.756L1795.72 461.253L1789.76 477.653ZM1793.16 478.89L1799.12 462.49L1810.22 466.52L1809.08 469.648L1802.08 467.107L1801.04 469.981L1807.48 472.323L1806.35 475.451L1799.9 473.109L1798.4 477.251L1805.39 479.792L1804.26 482.92L1793.16 478.89ZM1823.74 477.296C1823.47 478.06 1823.08 478.742 1822.59 479.345C1822.09 479.947 1821.54 480.396 1820.91 480.694C1820.53 480.879 1820.13 481.031 1819.7 481.15C1819.28 481.273 1818.84 481.345 1818.37 481.367C1817.91 481.389 1817.42 481.361 1816.91 481.283C1816.4 481.208 1815.86 481.064 1815.27 480.85L1813.11 480.066L1811.16 485.43L1807.04 483.933L1813 467.533L1819.37 469.846C1820.32 470.19 1821.1 470.574 1821.72 470.999C1822.35 471.419 1822.87 471.917 1823.29 472.494C1823.76 473.13 1824.04 473.854 1824.13 474.667C1824.21 475.472 1824.09 476.349 1823.74 477.296ZM1819.48 475.858C1819.65 475.396 1819.68 474.959 1819.58 474.549C1819.48 474.131 1819.3 473.803 1819.04 473.567C1818.71 473.256 1818.37 473.025 1818.02 472.872C1817.68 472.714 1817.2 472.525 1816.59 472.304L1816.01 472.091L1814.22 477.004L1814.51 477.108C1814.9 477.249 1815.27 477.379 1815.62 477.497C1815.96 477.615 1816.27 477.699 1816.55 477.748C1816.78 477.791 1817.04 477.806 1817.32 477.791C1817.61 477.772 1817.84 477.72 1818.02 477.636C1818.4 477.465 1818.69 477.251 1818.89 476.992C1819.1 476.735 1819.3 476.357 1819.48 475.858ZM1836.03 494.467L1831.98 492.994L1835.9 482.189L1825.68 490.705L1821.87 489.32L1827.83 472.92L1831.88 474.393L1828.33 484.162L1837.71 476.51L1841.99 478.067L1836.03 494.467Z" fill="#428396" fill-opacity="0.7"/>
<path d="M1221.16 119.342C1220.88 119.88 1220.52 120.347 1220.09 120.743C1219.66 121.14 1219.2 121.416 1218.71 121.572C1218.4 121.669 1218.09 121.74 1217.76 121.785C1217.43 121.832 1217.1 121.84 1216.75 121.808C1216.4 121.777 1216.04 121.705 1215.67 121.594C1215.3 121.486 1214.91 121.322 1214.5 121.102L1212.98 120.296L1210.97 124.077L1208.07 122.538L1214.2 110.975L1218.69 113.354C1219.35 113.708 1219.89 114.075 1220.31 114.454C1220.73 114.831 1221.07 115.256 1221.33 115.728C1221.61 116.249 1221.74 116.816 1221.72 117.428C1221.7 118.036 1221.52 118.674 1221.16 119.342ZM1218.14 117.831C1218.32 117.505 1218.39 117.184 1218.35 116.869C1218.33 116.548 1218.23 116.287 1218.05 116.083C1217.84 115.819 1217.61 115.612 1217.37 115.462C1217.13 115.309 1216.8 115.119 1216.37 114.891L1215.96 114.673L1214.12 118.137L1214.32 118.244C1214.6 118.389 1214.86 118.524 1215.1 118.647C1215.35 118.771 1215.57 118.866 1215.77 118.931C1215.94 118.987 1216.13 119.024 1216.34 119.042C1216.55 119.058 1216.73 119.044 1216.88 119C1217.17 118.913 1217.41 118.784 1217.59 118.612C1217.77 118.443 1217.96 118.183 1218.14 117.831ZM1218.52 128.078L1224.65 116.515L1232.47 120.66L1231.3 122.865L1226.37 120.252L1225.3 122.278L1229.84 124.686L1228.67 126.892L1224.13 124.484L1222.58 127.404L1227.51 130.018L1226.34 132.223L1218.52 128.078ZM1238.07 138.438L1235.16 136.899L1240.12 127.541L1236.17 125.446L1231.21 134.804L1228.31 133.264L1234.43 121.701L1244.2 126.875L1238.07 138.438ZM1240.47 139.71L1246.6 128.147L1254.42 132.292L1253.25 134.497L1248.32 131.883L1247.24 133.91L1251.78 136.318L1250.61 138.524L1246.07 136.116L1244.52 139.036L1249.46 141.649L1248.29 143.855L1240.47 139.71ZM1252.47 146.073L1257.43 136.716L1254.02 134.905L1255.18 132.699L1264.92 137.861L1263.75 140.066L1260.34 138.255L1255.38 147.613L1252.47 146.073ZM1269.98 155.351L1267.12 153.836L1271.16 146.218L1262.68 151.482L1259.99 150.058L1266.12 138.494L1268.98 140.009L1265.33 146.897L1273.08 142.186L1276.11 143.788L1269.98 155.351ZM1274.54 157.771L1279.5 148.413L1276.09 146.602L1277.25 144.397L1286.99 149.558L1285.82 151.764L1282.41 149.953L1277.45 159.31L1274.54 157.771ZM1295.65 161.559C1294.66 163.428 1293.38 164.633 1291.82 165.175C1290.25 165.717 1288.6 165.527 1286.86 164.606C1285.11 163.681 1284.03 162.414 1283.61 160.805C1283.19 159.191 1283.47 157.463 1284.45 155.619C1285.43 153.761 1286.71 152.557 1288.27 152.007C1289.84 151.451 1291.49 151.636 1293.24 152.561C1294.98 153.483 1296.06 154.747 1296.49 156.354C1296.92 157.955 1296.64 159.69 1295.65 161.559ZM1292.66 159.962C1293.02 159.274 1293.26 158.65 1293.37 158.092C1293.49 157.531 1293.51 157.032 1293.44 156.596C1293.36 156.148 1293.19 155.773 1292.95 155.471C1292.71 155.167 1292.43 154.926 1292.09 154.747C1291.73 154.558 1291.38 154.451 1291.02 154.427C1290.66 154.397 1290.26 154.474 1289.82 154.658C1289.42 154.832 1289.02 155.128 1288.6 155.545C1288.2 155.965 1287.81 156.52 1287.44 157.208C1287.07 157.918 1286.83 158.545 1286.72 159.09C1286.61 159.63 1286.59 160.122 1286.67 160.567C1286.75 161.02 1286.91 161.4 1287.15 161.707C1287.39 162.009 1287.68 162.249 1288.02 162.427C1288.36 162.609 1288.73 162.712 1289.13 162.737C1289.53 162.757 1289.93 162.673 1290.33 162.486C1290.75 162.281 1291.15 161.992 1291.52 161.618C1291.9 161.239 1292.27 160.687 1292.66 159.962ZM1307.41 165.054C1307.12 165.592 1306.77 166.06 1306.34 166.456C1305.91 166.852 1305.45 167.128 1304.95 167.284C1304.65 167.382 1304.33 167.453 1304 167.497C1303.68 167.545 1303.34 167.552 1303 167.521C1302.65 167.489 1302.29 167.417 1301.92 167.306C1301.55 167.198 1301.16 167.034 1300.74 166.814L1299.22 166.008L1297.22 169.79L1294.31 168.25L1300.44 156.687L1304.93 159.066C1305.6 159.42 1306.14 159.787 1306.56 160.166C1306.98 160.543 1307.32 160.968 1307.57 161.441C1307.85 161.961 1307.98 162.528 1307.96 163.141C1307.95 163.748 1307.76 164.386 1307.41 165.054ZM1304.39 163.543C1304.56 163.217 1304.63 162.896 1304.6 162.581C1304.57 162.261 1304.47 161.999 1304.3 161.796C1304.09 161.531 1303.86 161.324 1303.62 161.174C1303.38 161.021 1303.04 160.831 1302.61 160.604L1302.2 160.385L1300.37 163.849L1300.57 163.956C1300.84 164.101 1301.1 164.236 1301.35 164.36C1301.6 164.484 1301.82 164.578 1302.02 164.643C1302.18 164.699 1302.37 164.737 1302.58 164.755C1302.8 164.77 1302.98 164.756 1303.12 164.712C1303.42 164.625 1303.66 164.496 1303.84 164.324C1304.02 164.156 1304.2 163.895 1304.39 163.543ZM1314.75 179.084L1311.9 177.569L1315.93 169.951L1307.45 175.215L1304.77 173.79L1310.9 162.227L1313.75 163.742L1310.1 170.63L1317.86 165.919L1320.88 167.52L1314.75 179.084Z" fill="#428396" fill-opacity="0.7"/>
<path d="M68.1628 569.342C67.8774 569.88 67.5203 570.347 67.0916 570.743C66.6628 571.14 66.2015 571.416 65.7076 571.572C65.4039 571.669 65.0876 571.74 64.7589 571.785C64.4354 571.832 64.0997 571.84 63.7519 571.808C63.404 571.777 63.044 571.705 62.6718 571.594C62.3048 571.486 61.9142 571.322 61.5 571.102L59.978 570.296L57.9735 574.077L55.0691 572.538L61.1978 560.975L65.6864 563.354C66.3542 563.708 66.896 564.075 67.3116 564.454C67.7351 564.831 68.0737 565.256 68.3272 565.728C68.6084 566.249 68.7391 566.816 68.7193 567.428C68.7023 568.036 68.5168 568.674 68.1628 569.342ZM65.1437 567.831C65.3166 567.505 65.3871 567.184 65.3553 566.869C65.3262 566.548 65.2262 566.287 65.0555 566.083C64.8442 565.819 64.6158 565.612 64.3704 565.462C64.1328 565.309 63.7992 565.119 63.3695 564.891L62.9579 564.673L61.1222 568.137L61.3241 568.244C61.5985 568.389 61.8587 568.524 62.1048 568.647C62.3509 568.771 62.5727 568.866 62.7704 568.931C62.9394 568.987 63.1286 569.024 63.3378 569.042C63.555 569.058 63.7349 569.044 63.8775 569C64.1757 568.913 64.4134 568.784 64.5905 568.612C64.7727 568.443 64.9571 568.183 65.1437 567.831ZM65.5217 578.078L71.6505 566.515L79.4705 570.66L78.3016 572.865L73.3704 570.252L72.2961 572.278L76.839 574.686L75.6701 576.892L71.1271 574.484L69.5795 577.404L74.5107 580.018L73.3418 582.223L65.5217 578.078ZM85.068 588.438L82.1636 586.899L87.1234 577.541L83.1707 575.446L78.2109 584.804L75.3065 583.264L81.4352 571.701L91.1967 576.875L85.068 588.438ZM87.4676 589.71L93.5963 578.147L101.416 582.292L100.247 584.497L95.3162 581.883L94.242 583.91L98.7849 586.318L97.616 588.524L93.073 586.116L91.5254 589.036L96.4566 591.649L95.2877 593.855L87.4676 589.71ZM99.4734 596.073L104.433 586.716L101.016 584.905L102.185 582.699L111.923 587.861L110.754 590.066L107.338 588.255L102.378 597.613L99.4734 596.073ZM116.977 605.351L114.12 603.836L118.157 596.218L109.678 601.482L106.991 600.058L113.119 588.494L115.977 590.009L112.326 596.897L120.085 592.186L123.106 593.788L116.977 605.351ZM121.544 607.771L126.503 598.413L123.086 596.602L124.255 594.397L133.994 599.558L132.825 601.764L129.408 599.953L124.448 609.31L121.544 607.771ZM142.653 611.559C141.663 613.428 140.384 614.633 138.817 615.175C137.249 615.717 135.596 615.527 133.857 614.606C132.112 613.681 131.029 612.414 130.609 610.805C130.191 609.191 130.471 607.463 131.447 605.619C132.433 603.761 133.707 602.557 135.272 602.007C136.84 601.451 138.496 601.636 140.241 602.561C141.98 603.483 143.064 604.747 143.492 606.354C143.924 607.955 143.644 609.69 142.653 611.559ZM139.66 609.962C140.025 609.274 140.262 608.65 140.373 608.092C140.491 607.531 140.513 607.032 140.44 606.596C140.359 606.148 140.196 605.773 139.951 605.471C139.715 605.167 139.428 604.926 139.092 604.747C138.734 604.558 138.377 604.451 138.018 604.427C137.662 604.397 137.263 604.474 136.821 604.658C136.424 604.832 136.019 605.128 135.605 605.545C135.197 605.965 134.81 606.52 134.445 607.208C134.069 607.918 133.826 608.545 133.716 609.09C133.609 609.63 133.593 610.122 133.669 610.567C133.748 611.02 133.908 611.4 134.15 611.707C134.394 612.009 134.684 612.249 135.021 612.427C135.363 612.609 135.732 612.712 136.13 612.737C136.531 612.757 136.93 612.673 137.327 612.486C137.754 612.281 138.153 611.992 138.524 611.618C138.897 611.239 139.276 610.687 139.66 609.962ZM154.409 615.054C154.123 615.592 153.766 616.06 153.337 616.456C152.909 616.852 152.447 617.128 151.954 617.284C151.65 617.382 151.334 617.453 151.005 617.497C150.681 617.545 150.346 617.552 149.998 617.521C149.65 617.489 149.29 617.417 148.918 617.306C148.551 617.198 148.16 617.034 147.746 616.814L146.224 616.008L144.219 619.79L141.315 618.25L147.444 606.687L151.932 609.066C152.6 609.42 153.142 609.787 153.558 610.166C153.981 610.543 154.32 610.968 154.573 611.441C154.854 611.961 154.985 612.528 154.965 613.141C154.948 613.748 154.763 614.386 154.409 615.054ZM151.39 613.543C151.563 613.217 151.633 612.896 151.601 612.581C151.572 612.261 151.472 611.999 151.301 611.796C151.09 611.531 150.862 611.324 150.616 611.174C150.379 611.021 150.045 610.831 149.615 610.604L149.204 610.385L147.368 613.849L147.57 613.956C147.844 614.101 148.105 614.236 148.351 614.36C148.597 614.484 148.819 614.578 149.016 614.643C149.185 614.699 149.375 614.737 149.584 614.755C149.801 614.77 149.981 614.756 150.123 614.712C150.422 614.625 150.659 614.496 150.836 614.324C151.019 614.156 151.203 613.895 151.39 613.543ZM161.754 629.084L158.897 627.569L162.934 619.951L154.455 625.215L151.768 623.79L157.896 612.227L160.754 613.742L157.103 620.63L164.862 615.919L167.883 617.52L161.754 629.084Z" fill="#428396" fill-opacity="0.7"/>
<path d="M572.107 664.859C571.853 665.338 571.536 665.753 571.155 666.105C570.774 666.457 570.363 666.703 569.925 666.841C569.655 666.928 569.373 666.992 569.081 667.031C568.794 667.073 568.495 667.08 568.186 667.052C567.877 667.024 567.557 666.96 567.226 666.861C566.9 666.765 566.553 666.619 566.184 666.424L564.831 665.707L563.05 669.069L560.468 667.7L565.916 657.422L569.906 659.537C570.499 659.851 570.981 660.177 571.35 660.515C571.727 660.85 572.028 661.227 572.253 661.648C572.503 662.11 572.619 662.614 572.602 663.159C572.586 663.699 572.422 664.266 572.107 664.859ZM569.423 663.516C569.577 663.227 569.64 662.941 569.611 662.661C569.585 662.376 569.497 662.144 569.345 661.963C569.157 661.728 568.954 661.544 568.736 661.41C568.525 661.275 568.228 661.106 567.846 660.903L567.48 660.709L565.849 663.788L566.028 663.883C566.272 664.013 566.503 664.132 566.722 664.242C566.941 664.352 567.138 664.436 567.314 664.494C567.464 664.544 567.632 664.577 567.818 664.593C568.011 664.607 568.171 664.595 568.298 664.556C568.563 664.478 568.774 664.363 568.931 664.211C569.093 664.061 569.257 663.829 569.423 663.516ZM569.759 672.625L575.207 662.347L582.158 666.031L581.119 667.991L576.736 665.668L575.781 667.47L579.819 669.61L578.78 671.57L574.742 669.43L573.366 672.026L577.75 674.349L576.71 676.309L569.759 672.625ZM587.134 681.834L584.552 680.466L588.961 672.148L585.447 670.285L581.039 678.603L578.457 677.235L583.905 666.957L592.582 671.556L587.134 681.834ZM589.267 682.964L594.714 672.686L601.666 676.37L600.627 678.331L596.243 676.008L595.288 677.809L599.327 679.949L598.287 681.91L594.249 679.77L592.874 682.365L597.257 684.688L596.218 686.649L589.267 682.964ZM599.939 688.621L604.347 680.303L601.31 678.693L602.349 676.733L611.005 681.321L609.966 683.281L606.929 681.671L602.52 689.989L599.939 688.621ZM615.498 696.867L612.957 695.521L616.546 688.749L609.009 693.428L606.621 692.162L612.068 681.884L614.609 683.23L611.363 689.353L618.26 685.166L620.945 686.589L615.498 696.867ZM619.556 699.019L623.965 690.701L620.928 689.091L621.967 687.13L630.623 691.718L629.584 693.679L626.547 692.069L622.138 700.387L619.556 699.019ZM638.321 702.386C637.44 704.047 636.303 705.118 634.91 705.6C633.517 706.082 632.048 705.913 630.501 705.094C628.951 704.272 627.988 703.146 627.614 701.716C627.243 700.281 627.492 698.744 628.36 697.106C629.236 695.454 630.369 694.384 631.76 693.895C633.153 693.401 634.625 693.565 636.176 694.387C637.722 695.207 638.686 696.331 639.067 697.759C639.45 699.182 639.201 700.724 638.321 702.386ZM635.66 700.966C635.984 700.354 636.195 699.8 636.293 699.304C636.398 698.806 636.418 698.362 636.353 697.974C636.281 697.576 636.136 697.243 635.919 696.975C635.709 696.704 635.454 696.489 635.155 696.331C634.837 696.163 634.519 696.068 634.2 696.046C633.884 696.02 633.53 696.088 633.137 696.251C632.784 696.406 632.423 696.669 632.056 697.04C631.693 697.414 631.349 697.906 631.024 698.518C630.69 699.149 630.474 699.706 630.377 700.191C630.281 700.671 630.267 701.109 630.335 701.504C630.405 701.907 630.547 702.244 630.762 702.517C630.979 702.786 631.237 702.999 631.536 703.158C631.84 703.319 632.169 703.41 632.522 703.433C632.878 703.451 633.233 703.376 633.587 703.21C633.966 703.028 634.32 702.771 634.65 702.438C634.982 702.101 635.318 701.611 635.66 700.966ZM648.77 705.492C648.516 705.971 648.199 706.386 647.818 706.738C647.437 707.091 647.027 707.336 646.588 707.475C646.318 707.561 646.036 707.625 645.744 707.664C645.457 707.706 645.158 707.713 644.849 707.685C644.54 707.657 644.22 707.593 643.889 707.494C643.563 707.398 643.216 707.252 642.847 707.057L641.495 706.34L639.713 709.702L637.131 708.334L642.579 698.055L646.569 700.17C647.162 700.485 647.644 700.811 648.013 701.148C648.39 701.483 648.691 701.861 648.916 702.281C649.166 702.743 649.282 703.247 649.265 703.792C649.249 704.332 649.085 704.899 648.77 705.492ZM646.086 704.15C646.24 703.86 646.303 703.575 646.274 703.294C646.249 703.009 646.16 702.777 646.008 702.596C645.82 702.361 645.617 702.177 645.399 702.043C645.188 701.908 644.891 701.739 644.509 701.536L644.143 701.343L642.512 704.421L642.691 704.516C642.935 704.646 643.166 704.765 643.385 704.875C643.604 704.985 643.801 705.069 643.977 705.127C644.127 705.177 644.295 705.21 644.481 705.226C644.674 705.24 644.834 705.228 644.961 705.189C645.226 705.111 645.437 704.996 645.595 704.844C645.757 704.694 645.92 704.463 646.086 704.15ZM655.299 717.963L652.759 716.617L656.348 709.845L648.811 714.524L646.422 713.258L651.87 702.98L654.41 704.326L651.165 710.449L658.062 706.262L660.747 707.685L655.299 717.963Z" fill="#428396" fill-opacity="0.7"/>
<path d="M1026.63 149.732L1024.2 136.135L1027.34 134.406L1037.52 143.741L1034.55 145.373L1032.55 143.426L1028.95 145.408L1029.52 148.143L1026.63 149.732ZM1030.77 141.694L1027.52 138.557L1028.43 142.982L1030.77 141.694ZM1043.17 130.413C1043.46 130.946 1043.66 131.501 1043.75 132.077C1043.85 132.653 1043.83 133.19 1043.68 133.689C1043.6 133.996 1043.49 134.3 1043.34 134.599C1043.21 134.895 1043.03 135.18 1042.81 135.454C1042.59 135.727 1042.34 135.989 1042.04 136.239C1041.75 136.487 1041.4 136.724 1040.98 136.949L1039.48 137.78L1041.54 141.53L1038.66 143.114L1032.35 131.648L1036.8 129.2C1037.46 128.835 1038.07 128.583 1038.61 128.444C1039.16 128.296 1039.7 128.246 1040.24 128.294C1040.82 128.344 1041.37 128.545 1041.87 128.898C1042.37 129.245 1042.8 129.75 1043.17 130.413ZM1040.25 132.109C1040.07 131.785 1039.84 131.55 1039.56 131.404C1039.28 131.253 1039 131.193 1038.74 131.224C1038.4 131.256 1038.1 131.333 1037.84 131.456C1037.58 131.571 1037.24 131.746 1036.82 131.98L1036.41 132.205L1038.3 135.639L1038.5 135.529C1038.77 135.379 1039.03 135.235 1039.26 135.098C1039.5 134.96 1039.7 134.826 1039.87 134.696C1040.01 134.586 1040.14 134.448 1040.27 134.283C1040.4 134.11 1040.49 133.952 1040.53 133.809C1040.62 133.511 1040.64 133.242 1040.6 133C1040.56 132.755 1040.44 132.458 1040.25 132.109ZM1051.23 136.201L1046.12 126.921L1042.73 128.785L1041.53 126.598L1051.19 121.286L1052.39 123.473L1049 125.337L1054.11 134.616L1051.23 136.201ZM1061.25 125.488L1056.15 128.297L1054.97 126.156L1060.07 123.348L1061.25 125.488ZM1075.17 123.316C1073.45 124.262 1071.8 124.495 1070.22 124.014C1068.64 123.529 1067.33 122.344 1066.29 120.46C1065.29 118.642 1065 116.916 1065.42 115.282C1065.84 113.64 1066.91 112.345 1068.63 111.399C1069.09 111.148 1069.51 110.947 1069.9 110.798C1070.3 110.649 1070.68 110.529 1071.07 110.438C1071.37 110.371 1071.72 110.319 1072.1 110.283C1072.48 110.247 1072.79 110.226 1073.03 110.219L1074.54 112.952L1074.25 113.113C1074.04 113.067 1073.78 113.016 1073.48 112.963C1073.17 112.904 1072.84 112.866 1072.49 112.848C1072.13 112.831 1071.76 112.855 1071.37 112.92C1070.99 112.977 1070.62 113.101 1070.27 113.293C1069.86 113.522 1069.51 113.799 1069.24 114.125C1068.96 114.442 1068.76 114.849 1068.62 115.345C1068.5 115.796 1068.48 116.321 1068.57 116.92C1068.66 117.517 1068.89 118.154 1069.27 118.832C1069.66 119.546 1070.08 120.094 1070.54 120.477C1071 120.855 1071.46 121.109 1071.93 121.237C1072.39 121.361 1072.84 121.386 1073.27 121.314C1073.71 121.239 1074.11 121.101 1074.48 120.901C1074.86 120.692 1075.19 120.431 1075.46 120.119C1075.74 119.801 1075.95 119.5 1076.1 119.216C1076.27 118.916 1076.41 118.63 1076.51 118.358C1076.61 118.087 1076.7 117.847 1076.78 117.64L1077.04 117.496L1078.52 120.191C1078.36 120.404 1078.18 120.652 1077.98 120.932C1077.77 121.208 1077.54 121.47 1077.29 121.718C1076.99 122.024 1076.7 122.291 1076.42 122.52C1076.14 122.749 1075.72 123.014 1075.17 123.316ZM1082.84 118.806L1077.74 109.526L1074.35 111.39L1073.15 109.203L1082.8 103.891L1084.01 106.078L1080.62 107.942L1085.72 117.221L1082.84 118.806ZM1093.46 98.0275L1094.68 109.305C1094.75 109.963 1094.73 110.523 1094.61 110.987C1094.51 111.447 1094.34 111.842 1094.12 112.171C1093.9 112.499 1093.65 112.776 1093.38 113.002C1093.1 113.223 1092.79 113.427 1092.45 113.613C1092.09 113.808 1091.68 114.028 1091.19 114.272C1090.72 114.514 1090.4 114.671 1090.23 114.743L1088.89 112.309L1089.07 112.212C1089.12 112.197 1089.2 112.17 1089.3 112.132C1089.41 112.094 1089.54 112.041 1089.7 111.975C1089.83 111.917 1089.97 111.854 1090.12 111.785C1090.27 111.716 1090.4 111.649 1090.52 111.585C1090.86 111.395 1091.16 111.176 1091.42 110.928C1091.68 110.671 1091.81 110.411 1091.8 110.15L1082.82 103.882L1085.93 102.171L1091.35 106.194L1090.47 99.6755L1093.46 98.0275ZM1112.89 105.705L1110.25 107.158L1108.78 104.486L1102.38 108.011L1103.85 110.683L1101.2 112.136L1098.55 107.308L1099.32 106.884C1099.24 105.468 1098.92 103.873 1098.35 102.099C1097.78 100.32 1096.98 98.504 1095.97 96.6507L1104.05 92.2024L1109.15 101.474L1110.24 100.877L1112.89 105.705ZM1106.27 103.058L1102.37 95.9738L1099.86 97.3549C1100.53 98.7947 1101.05 100.202 1101.43 101.577C1101.81 102.947 1102.03 104.206 1102.1 105.355L1106.27 103.058ZM1118.67 99.0975L1112.49 102.495L1111.39 100.493L1113.04 99.5863L1108.93 92.1244L1107.29 93.031L1106.18 91.0289L1112.36 87.6312L1113.46 89.6334L1111.81 90.54L1115.92 98.0019L1117.57 97.0953L1118.67 99.0975ZM1126.29 94.9033L1120.12 98.301L1119.01 96.2988L1120.66 95.3922L1116.56 87.9303L1114.91 88.8369L1113.81 86.8347L1119.98 83.4371L1121.09 85.4392L1119.44 86.3459L1123.54 93.8078L1125.19 92.9012L1126.29 94.9033ZM1119.15 82.2231L1116.94 83.439L1115.78 81.3367L1117.99 80.1208L1119.15 82.2231ZM1115.44 84.2608L1113.23 85.4767L1112.07 83.3744L1114.28 82.1586L1115.44 84.2608Z" fill="#428396" fill-opacity="0.7"/>
<path d="M271.565 138.479L268.223 140.317L264.008 137.871L263.772 142.766L260.584 144.52L261.126 136.698L254.422 132.973L257.756 131.139L261.722 133.461L261.938 128.838L265.134 127.08L264.605 134.634L271.565 138.479ZM279.949 126.403C280.968 128.257 281.275 129.987 280.869 131.595C280.463 133.203 279.397 134.481 277.672 135.43C275.942 136.382 274.289 136.592 272.713 136.062C271.134 135.526 269.842 134.344 268.837 132.516C267.823 130.673 267.515 128.947 267.913 127.337C268.308 125.722 269.371 124.438 271.101 123.486C272.826 122.537 274.478 122.324 276.056 122.847C277.632 123.365 278.929 124.55 279.949 126.403ZM276.972 128.031C276.596 127.348 276.205 126.807 275.799 126.409C275.395 126.003 274.99 125.711 274.584 125.532C274.166 125.355 273.763 125.285 273.376 125.324C272.992 125.355 272.633 125.462 272.299 125.646C271.945 125.841 271.66 126.081 271.443 126.368C271.223 126.649 271.069 127.025 270.98 127.496C270.907 127.923 270.932 128.424 271.055 128.999C271.182 129.571 271.433 130.198 271.809 130.881C272.196 131.585 272.587 132.132 272.983 132.523C273.376 132.908 273.779 133.191 274.192 133.372C274.614 133.555 275.019 133.629 275.409 133.595C275.795 133.557 276.156 133.445 276.489 133.262C276.828 133.075 277.117 132.823 277.356 132.504C277.593 132.18 277.742 131.8 277.803 131.365C277.866 130.896 277.843 130.404 277.733 129.889C277.621 129.369 277.367 128.75 276.972 128.031ZM289.318 118.49C289.612 119.024 289.807 119.579 289.903 120.155C289.999 120.73 289.977 121.268 289.836 121.766C289.751 122.074 289.637 122.377 289.495 122.676C289.357 122.973 289.179 123.258 288.962 123.531C288.744 123.805 288.487 124.067 288.19 124.317C287.898 124.564 287.547 124.801 287.136 125.027L285.627 125.857L287.69 129.608L284.81 131.192L278.502 119.726L282.953 117.277C283.615 116.913 284.219 116.661 284.764 116.521C285.312 116.374 285.853 116.324 286.387 116.371C286.976 116.421 287.522 116.623 288.023 116.975C288.522 117.323 288.954 117.828 289.318 118.49ZM286.399 120.186C286.221 119.863 285.992 119.628 285.711 119.482C285.427 119.33 285.153 119.27 284.889 119.301C284.552 119.333 284.254 119.41 283.994 119.533C283.736 119.648 283.394 119.823 282.968 120.058L282.56 120.282L284.449 123.717L284.649 123.606C284.922 123.457 285.177 123.313 285.415 123.175C285.654 123.037 285.854 122.903 286.017 122.774C286.157 122.663 286.292 122.526 286.422 122.361C286.554 122.188 286.641 122.029 286.682 121.886C286.773 121.589 286.795 121.319 286.749 121.077C286.708 120.832 286.591 120.535 286.399 120.186ZM295.175 125.49L288.867 114.023L296.622 109.757L297.825 111.944L292.935 114.634L294.041 116.644L298.545 114.166L299.749 116.353L295.244 118.831L296.837 121.727L301.727 119.037L302.93 121.224L295.175 125.49ZM312.168 108.678C313.188 110.531 313.494 112.262 313.088 113.869C312.682 115.477 311.616 116.756 309.892 117.705C308.161 118.656 306.508 118.867 304.932 118.336C303.354 117.8 302.062 116.619 301.056 114.791C300.042 112.948 299.734 111.221 300.133 109.611C300.528 107.996 301.591 106.713 303.321 105.761C305.046 104.812 306.697 104.599 308.276 105.121C309.851 105.639 311.149 106.825 312.168 108.678ZM309.191 110.305C308.816 109.623 308.425 109.082 308.018 108.684C307.614 108.277 307.209 107.985 306.804 107.807C306.385 107.629 305.982 107.56 305.596 107.599C305.212 107.63 304.853 107.737 304.519 107.92C304.165 108.115 303.879 108.356 303.662 108.643C303.443 108.924 303.288 109.3 303.199 109.77C303.127 110.198 303.152 110.699 303.274 111.274C303.401 111.846 303.653 112.473 304.029 113.156C304.415 113.859 304.807 114.406 305.202 114.797C305.595 115.183 305.998 115.466 306.412 115.646C306.833 115.829 307.239 115.904 307.628 115.87C308.015 115.831 308.375 115.72 308.709 115.536C309.048 115.35 309.337 115.097 309.576 114.779C309.812 114.455 309.961 114.075 310.023 113.64C310.086 113.171 310.062 112.679 309.953 112.164C309.841 111.644 309.587 111.024 309.191 110.305ZM319.656 99.9339L314.805 102.603L319.91 111.882L317.03 113.467L310.721 102L318.453 97.7469L319.656 99.9339ZM330.455 95.8588C330.749 96.3927 330.944 96.9475 331.04 97.5233C331.136 98.0991 331.114 98.6362 330.973 99.1348C330.888 99.4423 330.774 99.7458 330.631 100.045C330.494 100.342 330.316 100.627 330.099 100.9C329.881 101.173 329.624 101.435 329.327 101.686C329.035 101.933 328.684 102.17 328.273 102.396L326.764 103.226L328.827 106.976L325.947 108.561L319.639 97.0945L324.09 94.6458C324.752 94.2815 325.356 94.0296 325.901 93.8901C326.449 93.7427 326.989 93.6926 327.524 93.7398C328.113 93.79 328.659 93.9915 329.16 94.3441C329.659 94.6916 330.091 95.1965 330.455 95.8588ZM327.536 97.5549C327.358 97.2315 327.129 96.9966 326.847 96.8503C326.563 96.6989 326.29 96.6389 326.026 96.6702C325.689 96.7018 325.39 96.7791 325.13 96.9021C324.873 97.0171 324.531 97.1919 324.105 97.4263L323.697 97.6508L325.586 101.085L325.786 100.975C326.058 100.825 326.314 100.682 326.552 100.544C326.791 100.406 326.991 100.272 327.154 100.143C327.294 100.032 327.429 99.8944 327.559 99.7293C327.691 99.5563 327.778 99.3981 327.819 99.2549C327.91 98.9576 327.932 98.6879 327.886 98.4459C327.845 98.201 327.728 97.904 327.536 97.5549ZM335.08 103.536L332.645 89.9391L335.787 88.2106L345.969 97.5459L343.004 99.1769L341 97.2299L337.396 99.2126L337.968 101.948L335.08 103.536ZM339.224 95.4981L335.974 92.3611L336.884 96.786L339.224 95.4981ZM356.111 84.3824C356.871 85.7634 357.005 87.1139 356.514 88.4339C356.02 89.7488 355.062 90.8813 353.639 91.8316L354.321 93.0714L351.456 94.6473L350.774 93.4075C349.209 94.1011 347.743 94.3095 346.373 94.033C345.001 93.7513 343.93 92.9097 343.159 91.5081C342.39 90.1118 342.249 88.7786 342.734 87.5086C343.219 86.2386 344.197 85.1119 345.669 84.1283L345.034 82.9732L347.898 81.3972L348.534 82.5523C350.092 81.8354 351.55 81.6115 352.909 81.8806C354.27 82.1418 355.337 82.9757 356.111 84.3824ZM353.129 85.963C352.73 85.2391 352.221 84.7504 351.6 84.4969C350.976 84.2382 350.306 84.2291 349.589 84.4698L352.588 89.9218C353.252 89.3423 353.618 88.7366 353.685 88.1046C353.749 87.4675 353.564 86.7536 353.129 85.963ZM349.723 91.4978L346.724 86.0457C346.114 86.5417 345.757 87.1196 345.651 87.7794C345.548 88.4311 345.695 89.1164 346.09 89.8351C346.519 90.6155 347.031 91.15 347.624 91.4387C348.215 91.7223 348.915 91.742 349.723 91.4978ZM370.842 83.8621L368.008 85.4211L363.852 77.8667L363.603 87.8443L360.939 89.3102L354.631 77.8439L357.464 76.2849L361.222 83.1154L361.538 74.0438L364.534 72.3958L370.842 83.8621Z" fill="#428396" fill-opacity="0.7"/>
<path d="M1035.1 701.497C1035.42 702.067 1035.58 702.627 1035.6 703.176C1035.63 703.726 1035.53 704.243 1035.32 704.726C1035.08 705.302 1034.74 705.804 1034.3 706.233C1033.86 706.659 1033.25 707.091 1032.45 707.529L1027.86 710.054L1021.55 698.588L1025.6 696.359C1026.45 695.896 1027.1 695.579 1027.57 695.409C1028.04 695.23 1028.52 695.139 1029.01 695.136C1029.55 695.13 1030.01 695.258 1030.42 695.517C1030.83 695.774 1031.16 696.143 1031.43 696.626C1031.74 697.186 1031.87 697.761 1031.83 698.353C1031.79 698.942 1031.58 699.474 1031.2 699.951L1031.24 700.013C1032.03 699.772 1032.76 699.765 1033.44 699.993C1034.12 700.215 1034.67 700.717 1035.1 701.497ZM1028.82 698.813C1028.72 698.629 1028.57 698.465 1028.36 698.324C1028.16 698.18 1027.94 698.119 1027.69 698.142C1027.45 698.164 1027.2 698.245 1026.94 698.384C1026.68 698.515 1026.29 698.722 1025.78 699.004L1025.58 699.114L1026.91 701.54L1027.27 701.341C1027.76 701.07 1028.11 700.875 1028.3 700.758C1028.49 700.637 1028.67 700.47 1028.82 700.257C1028.99 700.022 1029.07 699.786 1029.05 699.548C1029.04 699.31 1028.96 699.065 1028.82 698.813ZM1032.11 703.074C1031.91 702.72 1031.69 702.482 1031.43 702.361C1031.18 702.24 1030.88 702.207 1030.54 702.263C1030.33 702.292 1030.07 702.389 1029.75 702.553C1029.45 702.709 1029.03 702.929 1028.52 703.211L1027.99 703.503L1029.57 706.376L1029.72 706.291C1030.47 705.879 1030.99 705.588 1031.27 705.42C1031.55 705.251 1031.81 705.021 1032.03 704.729C1032.23 704.472 1032.33 704.203 1032.33 703.923C1032.34 703.634 1032.26 703.351 1032.11 703.074ZM1048.59 698.649L1045.76 700.208L1041.6 692.654L1041.35 702.632L1038.69 704.098L1032.38 692.631L1035.22 691.072L1038.97 697.903L1039.29 688.831L1042.28 687.183L1048.59 698.649ZM1061.03 691.808L1057.59 693.697L1051.98 690.759L1051.25 691.157L1053.8 695.786L1050.92 697.37L1044.61 685.904L1047.49 684.319L1050.06 688.994C1050.5 688.725 1050.78 688.439 1050.9 688.138C1051.03 687.834 1051.08 687.292 1051.05 686.512C1051.04 686.284 1051.02 686.016 1051 685.707C1050.98 685.396 1050.97 685.124 1050.95 684.891C1050.91 684.014 1051.04 683.299 1051.36 682.743C1051.68 682.18 1052.23 681.682 1053.01 681.25C1053.27 681.109 1053.49 680.997 1053.66 680.914C1053.83 680.826 1053.97 680.756 1054.06 680.706L1055.41 683.162L1054.75 683.526C1054.42 683.707 1054.19 683.968 1054.05 684.309C1053.92 684.642 1053.9 685.18 1053.98 685.925C1054.05 686.517 1054.06 686.989 1054.02 687.339C1053.98 687.682 1053.91 687.939 1053.8 688.111L1061.03 691.808ZM1071.83 685.864L1068.95 687.448L1063.85 678.169L1060.95 679.762C1061.18 680.22 1061.39 680.649 1061.58 681.051C1061.78 681.444 1061.96 681.821 1062.13 682.182C1062.63 683.214 1063.01 684.13 1063.28 684.929C1063.55 685.724 1063.73 686.397 1063.82 686.95C1063.91 687.541 1063.95 688.029 1063.92 688.413C1063.89 688.797 1063.84 689.117 1063.76 689.371C1063.65 689.753 1063.45 690.118 1063.16 690.465C1062.87 690.807 1062.54 691.077 1062.18 691.274C1061.94 691.407 1061.67 691.542 1061.37 691.68C1061.07 691.818 1060.88 691.903 1060.8 691.935L1059.4 689.401L1059.51 689.342C1059.57 689.319 1059.62 689.297 1059.67 689.277C1059.72 689.254 1059.79 689.221 1059.86 689.178C1059.99 689.108 1060.14 688.997 1060.32 688.846C1060.5 688.695 1060.61 688.542 1060.66 688.388C1060.84 687.835 1060.79 687.158 1060.53 686.356C1060.26 685.545 1059.79 684.43 1059.1 683.009C1058.78 682.361 1058.49 681.784 1058.22 681.278C1057.95 680.769 1057.57 680.026 1057.07 679.049L1065.52 674.397L1071.83 685.864ZM1072.97 685.237L1070.54 671.64L1073.68 669.911L1083.86 679.246L1080.9 680.877L1078.89 678.93L1075.29 680.913L1075.86 683.648L1072.97 685.237ZM1077.12 677.199L1073.87 674.062L1074.78 678.486L1077.12 677.199ZM1097.05 675.424L1094.4 676.877L1092.93 674.205L1086.53 677.729L1088 680.401L1085.36 681.855L1082.7 677.026L1083.47 676.603C1083.39 675.187 1083.07 673.592 1082.5 671.818C1081.93 670.039 1081.14 668.223 1080.12 666.369L1088.2 661.921L1093.3 671.193L1094.39 670.595L1097.05 675.424ZM1090.42 672.777L1086.53 665.692L1084.02 667.074C1084.68 668.513 1085.2 669.921 1085.59 671.296C1085.97 672.665 1086.19 673.924 1086.25 675.073L1090.42 672.777ZM1095.87 672.637L1093.44 659.04L1096.58 657.312L1106.76 666.647L1103.8 668.278L1101.79 666.331L1098.19 668.314L1098.76 671.049L1095.87 672.637ZM1100.02 664.599L1096.77 661.462L1097.68 665.887L1100.02 664.599ZM1116.87 661.089L1113.99 662.673L1111.65 658.43C1111.18 658.853 1110.76 659.208 1110.39 659.495C1110.03 659.777 1109.52 660.095 1108.87 660.451C1108.38 660.722 1107.88 660.911 1107.39 661.017C1106.89 661.123 1106.4 661.128 1105.92 661.031C1105.44 660.927 1105 660.718 1104.58 660.404C1104.17 660.089 1103.8 659.635 1103.47 659.039L1101.14 654.804L1104.04 653.211L1105.53 655.929C1105.8 656.412 1106.02 656.783 1106.2 657.043C1106.39 657.301 1106.64 657.511 1106.95 657.675C1107.23 657.821 1107.55 657.877 1107.89 657.843C1108.24 657.805 1108.66 657.648 1109.16 657.372C1109.34 657.273 1109.58 657.127 1109.87 656.935C1110.16 656.74 1110.39 656.573 1110.55 656.436L1107.68 651.207L1110.56 649.623L1116.87 661.089ZM1124.95 656.64L1118.78 660.038L1117.67 658.036L1119.32 657.129L1115.22 649.667L1113.57 650.574L1112.47 648.572L1118.64 645.174L1119.75 647.176L1118.1 648.083L1122.2 655.545L1123.85 654.638L1124.95 656.64Z" fill="#428396" fill-opacity="0.7"/>
<path d="M660.528 109.805C660.388 110.514 660.13 111.11 659.756 111.593C659.381 112.077 658.932 112.449 658.409 112.71C657.789 113.025 657.139 113.208 656.458 113.259C655.784 113.311 654.952 113.239 653.963 113.043L648.253 111.91L651.083 97.6473L656.121 98.6467C657.168 98.8544 657.952 99.053 658.472 99.2424C659 99.4267 659.474 99.6934 659.896 100.043C660.353 100.419 660.66 100.861 660.818 101.37C660.982 101.881 661.004 102.436 660.885 103.036C660.747 103.732 660.449 104.317 659.99 104.79C659.537 105.265 658.979 105.569 658.316 105.703L658.3 105.779C659.145 106.139 659.775 106.659 660.191 107.339C660.609 108.013 660.721 108.835 660.528 109.805ZM657.103 103.033C657.148 102.803 657.135 102.555 657.061 102.288C656.995 102.022 656.847 101.811 656.62 101.653C656.404 101.504 656.134 101.394 655.809 101.323C655.493 101.247 655.015 101.145 654.376 101.019L654.127 100.969L653.529 103.987L653.979 104.076C654.592 104.197 655.021 104.276 655.266 104.311C655.518 104.348 655.787 104.332 656.073 104.262C656.386 104.185 656.621 104.039 656.777 103.824C656.932 103.61 657.041 103.346 657.103 103.033ZM656.854 109.007C656.941 108.566 656.92 108.204 656.791 107.919C656.661 107.634 656.431 107.393 656.098 107.194C655.898 107.068 655.606 106.964 655.224 106.882C654.85 106.794 654.344 106.687 653.705 106.56L653.044 106.429L652.336 110.002L652.527 110.04C653.459 110.225 654.106 110.347 654.466 110.405C654.826 110.463 655.207 110.449 655.609 110.363C655.963 110.287 656.24 110.129 656.44 109.89C656.647 109.646 656.785 109.352 656.854 109.007ZM674.04 117.025L670.515 116.326L672.379 106.929L665.036 115.239L661.722 114.582L664.551 100.319L668.076 101.018L666.39 109.514L673.143 102.023L676.869 102.762L674.04 117.025ZM689.51 120.094L685.238 119.246L682.558 112.731L681.657 112.553L680.516 118.31L676.933 117.599L679.762 103.336L683.345 104.046L682.191 109.861C682.758 109.947 683.201 109.905 683.52 109.736C683.846 109.568 684.275 109.143 684.809 108.459C684.962 108.257 685.139 108.016 685.34 107.738C685.548 107.46 685.729 107.217 685.883 107.009C686.469 106.229 687.095 105.716 687.761 105.47C688.435 105.219 689.261 105.19 690.238 105.384C690.557 105.447 690.821 105.506 691.029 105.561C691.238 105.609 691.401 105.644 691.516 105.667L690.909 108.723L690.086 108.559C689.677 108.478 689.294 108.535 688.937 108.73C688.587 108.919 688.181 109.36 687.719 110.051C687.351 110.602 687.024 111.012 686.738 111.281C686.46 111.544 686.215 111.711 686.002 111.782L689.51 120.094ZM702.95 122.759L699.367 122.049L701.657 110.506L698.055 109.792C697.919 110.342 697.79 110.858 697.668 111.338C697.554 111.813 697.441 112.265 697.33 112.694C697.012 113.926 696.684 114.979 696.345 115.854C696.006 116.723 695.678 117.424 695.36 117.959C695.015 118.527 694.692 118.964 694.393 119.27C694.093 119.576 693.821 119.81 693.576 119.974C693.209 120.22 692.777 120.387 692.282 120.474C691.788 120.555 691.318 120.552 690.871 120.463C690.57 120.404 690.244 120.326 689.892 120.229C689.539 120.133 689.316 120.068 689.223 120.037L689.848 116.885L689.982 116.912C690.045 116.931 690.104 116.949 690.16 116.967C690.223 116.986 690.302 117.005 690.398 117.024C690.557 117.056 690.767 117.071 691.026 117.069C691.285 117.067 691.491 117.019 691.643 116.923C692.188 116.58 692.634 115.971 692.98 115.097C693.334 114.218 693.726 112.929 694.156 111.229C694.35 110.451 694.512 109.749 694.643 109.125C694.78 108.502 694.986 107.597 695.261 106.41L705.779 108.496L702.95 122.759ZM704.367 123.041L712.015 109.733L715.923 110.508L717.912 125.727L714.224 124.996L713.911 121.907L709.428 121.018L707.959 123.753L704.367 123.041ZM713.638 119.165L713.115 114.173L710.726 118.587L713.638 119.165ZM731.861 131.899L728.575 131.247L729.234 127.923L721.265 126.342L720.605 129.666L717.32 129.015L718.511 123.009L719.469 123.199C720.416 121.939 721.281 120.352 722.066 118.437C722.852 116.516 723.474 114.402 723.931 112.097L733.989 114.092L731.701 125.625L733.052 125.893L731.861 131.899ZM728.119 124.914L729.867 116.102L726.744 115.482C726.281 117.182 725.72 118.754 725.062 120.196C724.406 121.632 723.694 122.862 722.927 123.884L728.119 124.914ZM732.855 128.691L740.503 115.384L744.411 116.159L746.4 131.378L742.712 130.646L742.399 127.558L737.916 126.668L736.447 129.404L732.855 128.691ZM742.126 124.815L741.603 119.823L739.214 124.238L742.126 124.815ZM758.968 133.871L755.385 133.16L756.432 127.882C755.725 127.901 755.114 127.903 754.599 127.887C754.086 127.865 753.427 127.774 752.622 127.614C752.009 127.492 751.453 127.299 750.955 127.035C750.457 126.77 750.037 126.424 749.697 125.998C749.364 125.567 749.134 125.07 749.007 124.508C748.88 123.945 748.89 123.293 749.037 122.552L750.082 117.284L753.683 117.998L753.013 121.379C752.894 121.98 752.819 122.456 752.789 122.809C752.765 123.162 752.827 123.52 752.974 123.881C753.109 124.206 753.334 124.476 753.65 124.692C753.972 124.908 754.446 125.079 755.072 125.203C755.295 125.247 755.599 125.291 755.982 125.333C756.371 125.378 756.685 125.4 756.924 125.401L758.214 118.897L761.797 119.607L758.968 133.871ZM769.026 135.866L761.343 134.342L761.837 131.851L763.887 132.258L765.728 122.976L763.678 122.569L764.172 120.079L771.855 121.602L771.361 124.093L769.311 123.686L767.47 132.968L769.52 133.375L769.026 135.866Z" fill="#428396" fill-opacity="0.7"/>
<path d="M1610.17 678.327C1610.04 678.991 1609.8 679.602 1609.47 680.161C1609.14 680.719 1608.74 681.16 1608.27 681.484C1607.97 681.685 1607.66 681.862 1607.33 682.014C1607 682.168 1606.64 682.283 1606.26 682.361C1605.88 682.438 1605.47 682.477 1605.04 682.478C1604.62 682.479 1604.15 682.43 1603.64 682.328L1601.76 681.956L1600.84 686.621L1597.25 685.91L1600.08 671.647L1605.62 672.745C1606.44 672.909 1607.14 673.126 1607.7 673.397C1608.27 673.663 1608.77 674.007 1609.19 674.429C1609.65 674.893 1609.97 675.454 1610.15 676.113C1610.32 676.765 1610.33 677.503 1610.17 678.327ZM1606.47 677.683C1606.55 677.281 1606.52 676.917 1606.39 676.592C1606.26 676.26 1606.07 676.013 1605.82 675.852C1605.51 675.638 1605.2 675.49 1604.89 675.409C1604.59 675.322 1604.17 675.227 1603.64 675.122L1603.14 675.021L1602.29 679.293L1602.54 679.342C1602.88 679.41 1603.2 679.47 1603.5 679.523C1603.8 679.576 1604.07 679.606 1604.3 679.612C1604.5 679.618 1604.71 679.597 1604.94 679.549C1605.17 679.497 1605.36 679.424 1605.5 679.332C1605.79 679.144 1606 678.93 1606.13 678.691C1606.27 678.454 1606.39 678.118 1606.47 677.683ZM1610.15 688.468L1612.98 674.205L1622.62 676.118L1622.08 678.838L1616 677.632L1615.5 680.132L1621.11 681.244L1620.57 683.964L1614.96 682.852L1614.25 686.454L1620.33 687.661L1619.79 690.381L1610.15 688.468ZM1634.26 693.25L1630.67 692.539L1632.96 680.997L1628.09 680.03L1625.8 691.572L1622.22 690.862L1625.05 676.599L1637.09 678.987L1634.26 693.25ZM1637.22 693.837L1640.05 679.574L1649.69 681.487L1649.15 684.208L1643.07 683.001L1642.57 685.501L1648.18 686.613L1647.64 689.333L1642.03 688.222L1641.32 691.824L1647.4 693.03L1646.86 695.75L1637.22 693.837ZM1652.03 696.775L1654.32 685.232L1650.1 684.396L1650.64 681.675L1662.65 684.058L1662.11 686.778L1657.9 685.942L1655.61 697.485L1652.03 696.775ZM1673.62 701.057L1670.09 700.358L1671.96 690.961L1664.61 699.271L1661.3 698.614L1664.13 684.351L1667.65 685.05L1665.97 693.546L1672.72 686.055L1676.45 686.794L1673.62 701.057ZM1679.25 702.174L1681.54 690.632L1677.32 689.796L1677.86 687.075L1689.88 689.458L1689.34 692.178L1685.12 691.342L1682.83 702.885L1679.25 702.174ZM1702.92 699.463C1702.47 701.769 1701.49 703.46 1700 704.537C1698.5 705.615 1696.68 705.941 1694.54 705.515C1692.38 705.088 1690.83 704.086 1689.87 702.508C1688.91 700.924 1688.65 698.995 1689.1 696.721C1689.56 694.429 1690.53 692.74 1692.02 691.655C1693.51 690.563 1695.33 690.231 1697.48 690.658C1699.63 691.084 1701.19 692.083 1702.16 693.656C1703.13 695.222 1703.38 697.158 1702.92 699.463ZM1699.23 698.72C1699.4 697.871 1699.45 697.131 1699.39 696.502C1699.34 695.868 1699.2 695.33 1698.98 694.888C1698.75 694.438 1698.46 694.091 1698.11 693.848C1697.76 693.599 1697.37 693.434 1696.96 693.352C1696.52 693.264 1696.1 693.265 1695.71 693.354C1695.33 693.436 1694.93 693.645 1694.51 693.982C1694.15 694.294 1693.81 694.738 1693.5 695.314C1693.2 695.892 1692.97 696.606 1692.8 697.455C1692.63 698.33 1692.57 699.075 1692.63 699.69C1692.68 700.299 1692.82 700.828 1693.05 701.277C1693.28 701.734 1693.57 702.087 1693.92 702.337C1694.28 702.58 1694.66 702.743 1695.08 702.825C1695.5 702.909 1695.93 702.901 1696.36 702.8C1696.79 702.694 1697.19 702.477 1697.55 702.151C1697.94 701.797 1698.27 701.361 1698.55 700.845C1698.83 700.323 1699.05 699.614 1699.23 698.72ZM1716.55 699.428C1716.42 700.092 1716.19 700.704 1715.86 701.262C1715.53 701.821 1715.13 702.262 1714.65 702.585C1714.36 702.786 1714.05 702.963 1713.71 703.116C1713.38 703.269 1713.03 703.385 1712.65 703.462C1712.26 703.539 1711.86 703.578 1711.43 703.579C1711 703.581 1710.53 703.531 1710.02 703.43L1708.15 703.057L1707.22 707.722L1703.64 707.012L1706.47 692.749L1712 693.847C1712.83 694.01 1713.52 694.227 1714.08 694.498C1714.66 694.764 1715.15 695.108 1715.57 695.53C1716.04 695.994 1716.36 696.556 1716.53 697.214C1716.71 697.866 1716.71 698.604 1716.55 699.428ZM1712.86 698.785C1712.94 698.382 1712.91 698.019 1712.77 697.693C1712.64 697.361 1712.45 697.115 1712.2 696.953C1711.89 696.739 1711.59 696.591 1711.28 696.51C1710.97 696.424 1710.56 696.328 1710.03 696.223L1709.52 696.122L1708.67 700.394L1708.92 700.444C1709.26 700.511 1709.58 700.571 1709.88 700.624C1710.18 700.677 1710.45 700.707 1710.68 700.713C1710.88 700.719 1711.09 700.698 1711.32 700.651C1711.56 700.598 1711.74 700.526 1711.88 700.433C1712.17 700.245 1712.38 700.032 1712.52 699.793C1712.66 699.555 1712.77 699.219 1712.86 698.785ZM1728.85 712.013L1725.32 711.313L1727.19 701.916L1719.85 710.227L1716.53 709.569L1719.36 695.306L1722.89 696.005L1721.2 704.502L1727.95 697.01L1731.68 697.749L1728.85 712.013Z" fill="#428396" fill-opacity="0.7"/>
<path d="M538.572 453.16L534.334 450.348L534.619 443.857L528.69 446.603L524.647 443.921L534.223 439.727L534.479 429.504L538.708 432.31L538.416 438.43L544.01 435.827L548.063 438.516L538.812 442.56L538.572 453.16ZM539.959 454.08L549.605 439.54L559.439 446.064L557.599 448.837L551.398 444.723L549.707 447.272L555.42 451.062L553.58 453.835L547.867 450.045L545.431 453.717L551.632 457.831L549.792 460.604L539.959 454.08ZM564.537 470.387L560.885 467.964L565.161 461.519L560.19 458.221L555.915 464.666L552.262 462.243L561.909 447.703L565.561 450.126L562.03 455.448L567.001 458.746L570.532 453.424L574.184 455.847L564.537 470.387ZM578.775 484.643L575.426 482.421L577.674 479.033L569.55 473.642L567.301 477.031L563.952 474.808L568.014 468.686L568.991 469.334C570.616 468.368 572.301 467.001 574.045 465.234C575.794 463.46 577.449 461.397 579.008 459.047L589.261 465.85L581.461 477.607L582.837 478.521L578.775 484.643ZM577.808 475.184L583.769 466.2L580.586 464.088C579.296 465.764 577.957 467.252 576.568 468.553C575.185 469.848 573.834 470.887 572.516 471.673L577.808 475.184ZM597.757 492.428L594.125 490.018L600.519 480.379L593.746 484.844L591.256 483.192L592.737 475.216L586.342 484.854L582.905 482.573L592.552 468.033L596.76 470.826L595.221 480.141L603.196 475.095L607.404 477.888L597.757 492.428ZM600.775 494.43L610.422 479.889L620.255 486.414L618.415 489.187L612.214 485.073L610.523 487.621L616.236 491.412L614.396 494.185L608.683 490.395L606.247 494.066L612.448 498.18L610.608 500.954L600.775 494.43ZM625.636 510.924L622.043 508.54L628.399 498.961L616.457 504.834L613.079 502.593L622.726 488.053L626.319 490.437L620.572 499.098L631.485 493.864L635.283 496.384L625.636 510.924ZM637.361 490.858C636.577 492.025 635.532 492.682 634.226 492.828C632.926 492.978 631.397 492.47 629.639 491.304C627.914 490.159 626.861 488.949 626.479 487.674C626.101 486.392 626.291 485.173 627.049 484.016L630.252 486.141C629.794 486.859 629.601 487.476 629.671 487.992C629.746 488.501 630.141 488.993 630.857 489.468C631.574 489.943 632.183 490.113 632.685 489.978C633.188 489.842 633.679 489.427 634.158 488.733L637.361 490.858ZM639.806 525.135L636.457 522.913L638.705 519.525L630.581 514.134L628.333 517.523L624.983 515.301L629.045 509.178L630.022 509.826C631.647 508.86 633.332 507.494 635.077 505.726C636.826 503.952 638.48 501.89 640.039 499.54L650.292 506.342L642.492 518.099L643.869 519.013L639.806 525.135ZM638.84 515.676L644.8 506.692L641.617 504.58C640.327 506.256 638.988 507.744 637.6 509.045C636.216 510.34 634.865 511.38 633.547 512.165L638.84 515.676ZM643.936 523.066L653.583 508.526L663.416 515.05L661.576 517.823L655.376 513.709L653.685 516.258L659.397 520.048L657.557 522.821L651.845 519.031L649.409 522.702L655.609 526.816L653.769 529.59L643.936 523.066ZM674.032 528.703C673.583 529.38 673.048 529.953 672.427 530.423C671.807 530.892 671.158 531.198 670.483 531.34C670.067 531.43 669.638 531.483 669.196 531.499C668.76 531.52 668.314 531.486 667.857 531.398C667.399 531.31 666.931 531.168 666.451 530.972C665.979 530.78 665.482 530.512 664.961 530.166L663.047 528.896L659.892 533.652L656.24 531.229L665.887 516.689L671.531 520.434C672.371 520.991 673.042 521.548 673.543 522.106C674.056 522.662 674.449 523.27 674.724 523.93C675.029 524.658 675.128 525.427 675.022 526.237C674.919 527.041 674.59 527.863 674.032 528.703ZM670.224 526.303C670.496 525.893 670.632 525.477 670.631 525.054C670.635 524.625 670.536 524.264 670.336 523.972C670.091 523.594 669.815 523.289 669.509 523.058C669.213 522.824 668.796 522.528 668.255 522.17L667.738 521.827L664.848 526.182L665.102 526.35C665.447 526.579 665.775 526.792 666.085 526.988C666.395 527.185 666.677 527.339 666.931 527.451C667.148 527.548 667.394 527.622 667.67 527.674C667.956 527.723 668.196 527.728 668.391 527.688C668.798 527.612 669.131 527.471 669.388 527.267C669.652 527.067 669.931 526.746 670.224 526.303ZM681.941 548.281L678.348 545.897L684.703 536.317L672.762 542.191L669.384 539.949L679.03 525.409L682.624 527.793L676.877 536.455L687.79 531.221L691.588 533.741L681.941 548.281Z" fill="#428396" fill-opacity="0.7"/>
<path d="M1102.33 494.534L1099.89 492.964L1104.05 486.475L1099.58 489.519L1097.91 488.443L1098.81 483.111L1094.65 489.6L1092.33 488.115L1098.62 478.325L1101.45 480.144L1100.52 486.369L1105.78 482.925L1108.62 484.744L1102.33 494.534ZM1104.37 495.838L1110.65 486.048L1117.27 490.298L1116.07 492.165L1111.9 489.485L1110.79 491.201L1114.64 493.67L1113.44 495.537L1109.6 493.068L1108.01 495.54L1112.18 498.22L1110.99 500.087L1104.37 495.838ZM1120.91 506.46L1118.45 504.881L1121.24 500.542L1117.89 498.394L1115.11 502.733L1112.65 501.155L1118.93 491.366L1121.39 492.944L1119.09 496.527L1122.44 498.675L1124.74 495.092L1127.2 496.67L1120.91 506.46ZM1124.83 508.971L1129.91 501.048L1127.02 499.191L1128.22 497.324L1136.46 502.616L1135.26 504.484L1132.37 502.627L1127.28 510.549L1124.83 508.971ZM1143.24 513.887C1142.23 515.469 1141.01 516.442 1139.58 516.807C1138.15 517.171 1136.7 516.881 1135.23 515.935C1133.75 514.987 1132.88 513.785 1132.63 512.329C1132.38 510.868 1132.76 509.358 1133.76 507.797C1134.77 506.224 1135.99 505.251 1137.41 504.88C1138.84 504.504 1140.3 504.79 1141.77 505.738C1143.25 506.683 1144.11 507.883 1144.37 509.338C1144.64 510.788 1144.26 512.304 1143.24 513.887ZM1140.71 512.251C1141.09 511.668 1141.34 511.134 1141.48 510.647C1141.63 510.159 1141.68 509.719 1141.65 509.327C1141.61 508.924 1141.5 508.58 1141.3 508.295C1141.11 508.008 1140.88 507.773 1140.59 507.59C1140.29 507.396 1139.98 507.274 1139.67 507.227C1139.35 507.174 1138.99 507.213 1138.59 507.343C1138.22 507.468 1137.84 507.7 1137.45 508.039C1137.05 508.381 1136.67 508.843 1136.3 509.426C1135.91 510.027 1135.65 510.564 1135.51 511.039C1135.38 511.51 1135.33 511.945 1135.36 512.344C1135.4 512.751 1135.51 513.099 1135.7 513.389C1135.9 513.675 1136.13 513.909 1136.42 514.092C1136.71 514.278 1137.03 514.396 1137.38 514.448C1137.73 514.495 1138.09 514.451 1138.46 514.314C1138.85 514.165 1139.23 513.938 1139.58 513.634C1139.94 513.326 1140.32 512.865 1140.71 512.251ZM1153.4 517.852C1153.11 518.308 1152.76 518.695 1152.35 519.014C1151.94 519.334 1151.51 519.544 1151.06 519.646C1150.78 519.71 1150.5 519.749 1150.2 519.765C1149.91 519.783 1149.62 519.765 1149.31 519.711C1149 519.657 1148.69 519.567 1148.37 519.441C1148.05 519.318 1147.72 519.144 1147.37 518.919L1146.08 518.092L1144.02 521.294L1141.56 519.715L1147.85 509.926L1151.65 512.365C1152.21 512.728 1152.67 513.093 1153.01 513.459C1153.35 513.825 1153.62 514.226 1153.81 514.663C1154.02 515.145 1154.1 515.657 1154.03 516.198C1153.97 516.735 1153.76 517.286 1153.4 517.852ZM1150.84 516.291C1151.01 516.014 1151.1 515.736 1151.1 515.454C1151.09 515.168 1151.02 514.928 1150.89 514.736C1150.72 514.486 1150.53 514.285 1150.33 514.134C1150.13 513.982 1149.85 513.789 1149.48 513.555L1149.13 513.332L1147.25 516.264L1147.42 516.374C1147.65 516.523 1147.88 516.661 1148.08 516.789C1148.29 516.917 1148.48 517.017 1148.65 517.089C1148.8 517.152 1148.96 517.199 1149.15 517.23C1149.34 517.26 1149.5 517.261 1149.63 517.233C1149.9 517.177 1150.12 517.08 1150.29 516.942C1150.46 516.806 1150.65 516.589 1150.84 516.291ZM1158.87 530.823L1156.45 529.27L1160.59 522.82L1152.69 526.856L1150.41 525.395L1156.7 515.606L1159.12 517.159L1155.37 522.991L1162.6 519.391L1165.15 521.033L1158.87 530.823Z" fill="#428396" fill-opacity="0.7"/>
<path d="M486.77 340.111L488.753 321.8L493.422 320.767L502.949 336.529L498.544 337.505L496.71 334.262L491.355 335.447L491.061 339.161L486.77 340.111ZM495.087 331.38L492.104 326.148L491.609 332.15L495.087 331.38ZM515.173 321.592C515.349 322.385 515.39 323.168 515.297 323.941C515.204 324.714 514.974 325.393 514.608 325.978C514.384 326.34 514.124 326.685 513.829 327.015C513.542 327.342 513.207 327.64 512.827 327.909C512.446 328.177 512.019 328.416 511.545 328.625C511.079 328.832 510.541 329.003 509.93 329.138L507.688 329.635L508.921 335.207L504.642 336.154L500.87 319.118L507.483 317.653C508.467 317.436 509.334 317.34 510.084 317.366C510.84 317.382 511.551 317.521 512.217 317.782C512.952 318.067 513.575 318.529 514.084 319.169C514.592 319.8 514.955 320.608 515.173 321.592ZM510.802 322.668C510.696 322.187 510.49 321.801 510.185 321.508C509.879 321.208 509.551 321.028 509.202 320.97C508.759 320.884 508.348 320.871 507.969 320.931C507.596 320.981 507.093 321.077 506.46 321.217L505.854 321.351L506.983 326.454L507.281 326.388C507.685 326.299 508.066 326.21 508.423 326.123C508.779 326.036 509.086 325.94 509.343 325.836C509.563 325.747 509.788 325.621 510.016 325.459C510.25 325.287 510.42 325.117 510.527 324.949C510.755 324.603 510.884 324.266 510.916 323.939C510.955 323.61 510.917 323.187 510.802 322.668ZM523.315 332.02L520.262 318.233L515.228 319.347L514.509 316.098L528.857 312.921L529.576 316.171L524.542 317.285L527.594 331.073L523.315 332.02ZM540.161 322.073L532.575 323.752L531.871 320.572L539.456 318.892L540.161 322.073ZM558.789 324.514C556.234 325.08 554.034 324.758 552.19 323.55C550.345 322.335 549.112 320.327 548.492 317.528C547.894 314.827 548.17 312.51 549.318 310.575C550.472 308.632 552.326 307.377 554.881 306.811C555.56 306.661 556.179 306.564 556.737 306.52C557.296 306.477 557.838 306.468 558.364 306.496C558.779 306.524 559.237 306.587 559.738 306.684C560.24 306.781 560.648 306.871 560.962 306.953L561.862 311.015L561.427 311.111C561.18 310.974 560.873 310.814 560.504 310.631C560.134 310.441 559.724 310.268 559.273 310.112C558.822 309.955 558.338 309.847 557.82 309.785C557.309 309.714 556.793 309.736 556.275 309.851C555.657 309.988 555.111 310.213 554.636 310.526C554.167 310.83 553.753 311.274 553.394 311.857C553.063 312.387 552.842 313.052 552.732 313.852C552.629 314.651 552.688 315.554 552.911 316.561C553.146 317.621 553.485 318.483 553.927 319.145C554.368 319.799 554.867 320.297 555.422 320.638C555.959 320.967 556.52 321.167 557.104 321.238C557.695 321.307 558.261 321.282 558.803 321.162C559.368 321.037 559.885 320.826 560.356 320.53C560.824 320.226 561.209 319.921 561.509 319.615C561.838 319.294 562.121 318.979 562.356 318.671C562.592 318.363 562.796 318.09 562.967 317.852L563.356 317.765L564.243 321.77C563.962 321.984 563.637 322.232 563.267 322.514C562.896 322.788 562.507 323.038 562.101 323.264C561.603 323.543 561.13 323.775 560.683 323.962C560.237 324.149 559.605 324.333 558.789 324.514ZM570.295 321.618L567.242 307.831L562.208 308.946L561.488 305.696L575.836 302.52L576.555 305.769L571.521 306.884L574.574 320.671L570.295 321.618ZM591.671 299.014L589.002 313.9C588.842 314.767 588.603 315.476 588.285 316.027C587.974 316.576 587.616 317.019 587.211 317.357C586.805 317.695 586.383 317.956 585.944 318.141C585.503 318.319 585.031 318.464 584.528 318.575C584.002 318.691 583.385 318.816 582.678 318.949C581.979 319.079 581.509 319.159 581.267 319.189L580.467 315.573L580.73 315.515C580.802 315.515 580.913 315.511 581.063 315.501C581.213 315.492 581.401 315.475 581.627 315.448C581.814 315.423 582.015 315.394 582.232 315.362C582.449 315.33 582.645 315.295 582.821 315.256C583.332 315.143 583.799 314.976 584.222 314.754C584.651 314.523 584.908 314.238 584.993 313.899L575.859 302.515L580.481 301.491L585.899 308.669L587.22 299.999L591.671 299.014ZM613.655 316.123L609.731 316.992L608.852 313.021L599.332 315.129L600.211 319.099L596.287 319.968L594.698 312.794L595.843 312.541C596.275 310.701 596.461 308.539 596.399 306.056C596.336 303.566 595.999 300.944 595.39 298.19L607.403 295.53L610.454 309.306L612.067 308.949L613.655 316.123ZM606.174 310.253L603.844 299.727L600.114 300.553C600.425 302.645 600.567 304.642 600.54 306.544C600.511 308.439 600.322 310.133 599.973 311.627L606.174 310.253ZM623.521 309.834L614.345 311.865L613.686 308.89L616.135 308.348L613.68 297.261L611.231 297.803L610.573 294.829L619.749 292.797L620.408 295.772L617.959 296.314L620.414 307.401L622.862 306.859L623.521 309.834ZM634.848 307.326L625.672 309.357L625.013 306.382L627.462 305.84L625.007 294.753L622.559 295.295L621.9 292.321L631.076 290.289L631.735 293.264L629.286 293.806L631.741 304.893L634.19 304.351L634.848 307.326ZM630.459 288.421L627.175 289.148L626.483 286.025L629.767 285.298L630.459 288.421ZM624.955 289.64L621.672 290.367L620.98 287.243L624.264 286.516L624.955 289.64Z" fill="#428396" fill-opacity="0.7"/>
<path d="M1547.37 159.71L1542.4 160.81L1537.92 156.099L1535.79 162.274L1531.05 163.323L1534.68 153.518L1527.49 146.238L1532.45 145.141L1536.65 149.599L1538.66 143.766L1543.41 142.714L1539.9 152.181L1547.37 159.71ZM1562.62 147.403C1563.23 150.156 1562.97 152.486 1561.85 154.391C1560.73 156.296 1558.89 157.532 1556.32 158.099C1553.75 158.668 1551.56 158.318 1549.74 157.048C1547.92 155.77 1546.71 153.774 1546.11 151.058C1545.5 148.32 1545.76 145.995 1546.87 144.085C1547.98 142.166 1549.82 140.922 1552.39 140.353C1554.96 139.786 1557.15 140.132 1558.97 141.393C1560.79 142.646 1562.01 144.649 1562.62 147.403ZM1558.2 148.369C1557.98 147.355 1557.68 146.516 1557.31 145.854C1556.94 145.183 1556.53 144.657 1556.08 144.277C1555.61 143.893 1555.12 143.653 1554.62 143.558C1554.11 143.453 1553.61 143.456 1553.12 143.566C1552.59 143.682 1552.13 143.883 1551.75 144.168C1551.36 144.446 1551.02 144.869 1550.73 145.437C1550.48 145.958 1550.33 146.608 1550.27 147.389C1550.22 148.169 1550.3 149.066 1550.53 150.081C1550.76 151.126 1551.05 151.972 1551.41 152.621C1551.77 153.262 1552.18 153.775 1552.64 154.161C1553.11 154.553 1553.6 154.8 1554.11 154.903C1554.62 154.999 1555.13 154.991 1555.62 154.882C1556.13 154.77 1556.59 154.555 1557.02 154.237C1557.44 153.911 1557.77 153.481 1558.01 152.948C1558.27 152.371 1558.43 151.732 1558.48 151.032C1558.53 150.325 1558.44 149.437 1558.2 148.369ZM1577.58 140.791C1577.75 141.584 1577.79 142.367 1577.7 143.14C1577.61 143.913 1577.38 144.592 1577.01 145.177C1576.79 145.539 1576.53 145.884 1576.23 146.214C1575.94 146.541 1575.61 146.839 1575.23 147.108C1574.85 147.376 1574.42 147.615 1573.95 147.823C1573.48 148.031 1572.94 148.202 1572.33 148.337L1570.09 148.834L1571.32 154.406L1567.04 155.353L1563.27 138.316L1569.89 136.852C1570.87 136.634 1571.74 136.538 1572.49 136.564C1573.24 136.581 1573.95 136.72 1574.62 136.98C1575.35 137.266 1575.98 137.728 1576.49 138.367C1576.99 138.999 1577.36 139.807 1577.58 140.791ZM1573.2 141.867C1573.1 141.386 1572.89 141 1572.59 140.707C1572.28 140.407 1571.95 140.227 1571.6 140.169C1571.16 140.083 1570.75 140.07 1570.37 140.129C1570 140.18 1569.5 140.275 1568.86 140.416L1568.26 140.55L1569.39 145.653L1569.68 145.587C1570.09 145.497 1570.47 145.409 1570.83 145.322C1571.18 145.235 1571.49 145.139 1571.75 145.034C1571.97 144.945 1572.19 144.82 1572.42 144.657C1572.65 144.485 1572.82 144.316 1572.93 144.148C1573.16 143.802 1573.29 143.465 1573.32 143.138C1573.36 142.809 1573.32 142.385 1573.2 141.867ZM1582.45 151.943L1578.67 134.907L1590.2 132.356L1590.91 135.605L1583.65 137.214L1584.31 140.2L1591 138.718L1591.72 141.967L1585.03 143.449L1585.98 147.751L1593.25 146.143L1593.97 149.392L1582.45 151.943ZM1610.49 136.804C1611.1 139.557 1610.85 141.887 1609.72 143.791C1608.6 145.696 1606.76 146.932 1604.19 147.5C1601.62 148.069 1599.43 147.719 1597.61 146.449C1595.79 145.171 1594.58 143.175 1593.98 140.459C1593.38 137.721 1593.63 135.396 1594.74 133.485C1595.85 131.567 1597.69 130.323 1600.27 129.754C1602.83 129.186 1605.02 129.533 1606.84 130.794C1608.67 132.047 1609.88 134.05 1610.49 136.804ZM1606.07 137.77C1605.85 136.756 1605.55 135.917 1605.18 135.255C1604.82 134.584 1604.41 134.058 1603.95 133.678C1603.49 133.294 1603 133.054 1602.49 132.959C1601.98 132.854 1601.48 132.857 1600.99 132.966C1600.46 133.083 1600.01 133.284 1599.62 133.569C1599.24 133.847 1598.9 134.27 1598.61 134.838C1598.35 135.358 1598.2 136.009 1598.14 136.79C1598.09 137.57 1598.17 138.467 1598.4 139.481C1598.63 140.526 1598.92 141.373 1599.28 142.022C1599.64 142.662 1600.05 143.176 1600.51 143.562C1600.98 143.954 1601.48 144.201 1601.99 144.304C1602.5 144.399 1603 144.392 1603.49 144.282C1604 144.171 1604.46 143.956 1604.89 143.638C1605.31 143.312 1605.64 142.882 1605.89 142.348C1606.14 141.771 1606.3 141.133 1606.35 140.433C1606.4 139.726 1606.31 138.838 1606.07 137.77ZM1623.35 128.423L1616.14 130.019L1619.2 143.806L1614.92 144.754L1611.14 127.717L1622.63 125.174L1623.35 128.423ZM1638.7 127.258C1638.87 128.051 1638.91 128.834 1638.82 129.607C1638.73 130.38 1638.5 131.059 1638.13 131.644C1637.91 132.006 1637.65 132.351 1637.35 132.681C1637.07 133.008 1636.73 133.306 1636.35 133.575C1635.97 133.843 1635.54 134.082 1635.07 134.291C1634.6 134.498 1634.06 134.669 1633.45 134.804L1631.21 135.301L1632.45 140.873L1628.17 141.82L1624.39 124.784L1631.01 123.319C1631.99 123.102 1632.86 123.006 1633.61 123.032C1634.36 123.048 1635.07 123.187 1635.74 123.448C1636.48 123.733 1637.1 124.195 1637.61 124.835C1638.12 125.466 1638.48 126.274 1638.7 127.258ZM1634.33 128.334C1634.22 127.853 1634.01 127.467 1633.71 127.174C1633.4 126.874 1633.07 126.694 1632.73 126.636C1632.28 126.55 1631.87 126.537 1631.49 126.597C1631.12 126.647 1630.62 126.743 1629.98 126.883L1629.38 127.017L1630.51 132.12L1630.8 132.054C1631.21 131.965 1631.59 131.876 1631.95 131.789C1632.3 131.702 1632.61 131.606 1632.87 131.502C1633.09 131.413 1633.31 131.287 1633.54 131.125C1633.77 130.953 1633.94 130.783 1634.05 130.615C1634.28 130.269 1634.41 129.932 1634.44 129.605C1634.48 129.276 1634.44 128.853 1634.33 128.334ZM1641.74 138.816L1643.72 120.505L1648.39 119.471L1657.91 135.234L1653.51 136.209L1651.68 132.966L1646.32 134.152L1646.03 137.866L1641.74 138.816ZM1650.05 130.085L1647.07 124.852L1646.57 130.855L1650.05 130.085ZM1675.83 122.194C1676.28 124.246 1675.95 126.024 1674.82 127.529C1673.7 129.026 1672.05 130.116 1669.87 130.798L1670.28 132.64L1666.02 133.583L1665.61 131.74C1663.35 132.041 1661.4 131.758 1659.75 130.891C1658.1 130.016 1657.04 128.537 1656.58 126.455C1656.12 124.38 1656.44 122.621 1657.54 121.178C1658.64 119.735 1660.31 118.66 1662.56 117.953L1662.18 116.237L1666.44 115.295L1666.82 117.011C1669.08 116.678 1671.03 116.938 1672.67 117.792C1674.31 118.636 1675.37 120.104 1675.83 122.194ZM1671.42 123.098C1671.18 122.022 1670.71 121.206 1670.01 120.649C1669.31 120.084 1668.46 119.821 1667.45 119.86L1669.24 127.961C1670.31 127.468 1671.01 126.83 1671.33 126.047C1671.65 125.255 1671.68 124.272 1671.42 123.098ZM1664.99 128.903L1663.19 120.802C1662.23 121.208 1661.55 121.814 1661.17 122.618C1660.79 123.414 1660.72 124.345 1660.96 125.413C1661.22 126.573 1661.67 127.448 1662.32 128.04C1662.97 128.625 1663.86 128.912 1664.99 128.903ZM1694.87 127.051L1690.66 127.983L1688.18 116.759L1684.12 129.433L1680.16 130.309L1676.39 113.272L1680.6 112.34L1682.84 122.489L1686.65 111L1691.1 110.015L1694.87 127.051Z" fill="#428396" fill-opacity="0.7"/>
<path d="M1203.65 669.789L1200.25 670.542L1196.19 666.632L1195.47 666.791L1196.49 671.375L1193.63 672.007L1191.12 660.649L1193.97 660.017L1195 664.647C1195.44 664.528 1195.75 664.355 1195.93 664.129C1196.11 663.901 1196.29 663.451 1196.46 662.778C1196.51 662.581 1196.56 662.348 1196.62 662.079C1196.68 661.809 1196.74 661.573 1196.78 661.371C1196.96 660.611 1197.26 660.034 1197.66 659.64C1198.08 659.239 1198.67 658.952 1199.45 658.78C1199.7 658.724 1199.92 658.682 1200.09 658.655C1200.26 658.623 1200.39 658.597 1200.48 658.577L1201.02 661.01L1200.36 661.155C1200.03 661.227 1199.77 661.392 1199.57 661.649C1199.38 661.901 1199.22 662.354 1199.11 663.009C1199.01 663.531 1198.91 663.936 1198.78 664.225C1198.66 664.507 1198.54 664.709 1198.4 664.829L1203.65 669.789ZM1213.66 661.62C1214.06 663.455 1213.89 665.008 1213.14 666.278C1212.4 667.548 1211.17 668.372 1209.46 668.751C1207.75 669.13 1206.28 668.896 1205.07 668.05C1203.86 667.198 1203.05 665.867 1202.65 664.057C1202.25 662.231 1202.42 660.681 1203.16 659.407C1203.9 658.128 1205.13 657.299 1206.84 656.92C1208.55 656.542 1210.01 656.773 1211.23 657.613C1212.44 658.448 1213.25 659.784 1213.66 661.62ZM1210.71 662.264C1210.56 661.588 1210.36 661.029 1210.12 660.587C1209.87 660.14 1209.6 659.789 1209.3 659.536C1208.99 659.28 1208.66 659.12 1208.32 659.056C1207.99 658.987 1207.65 658.988 1207.32 659.062C1206.97 659.139 1206.67 659.273 1206.41 659.463C1206.15 659.648 1205.93 659.93 1205.73 660.309C1205.57 660.656 1205.46 661.09 1205.42 661.611C1205.39 662.13 1205.45 662.728 1205.59 663.405C1205.75 664.101 1205.95 664.666 1206.19 665.098C1206.42 665.526 1206.7 665.868 1207.01 666.125C1207.32 666.386 1207.65 666.551 1207.99 666.62C1208.33 666.683 1208.66 666.679 1208.99 666.605C1209.33 666.531 1209.64 666.388 1209.92 666.176C1210.2 665.958 1210.43 665.672 1210.59 665.316C1210.76 664.932 1210.86 664.506 1210.9 664.039C1210.93 663.568 1210.87 662.976 1210.71 662.264ZM1223.47 653.485L1221.7 663.409C1221.59 663.987 1221.43 664.46 1221.22 664.827C1221.01 665.193 1220.77 665.488 1220.5 665.714C1220.23 665.939 1219.95 666.113 1219.66 666.237C1219.36 666.355 1219.05 666.451 1218.71 666.526C1218.36 666.603 1217.95 666.686 1217.48 666.775C1217.01 666.862 1216.7 666.915 1216.54 666.935L1216 664.525L1216.18 664.486C1216.23 664.486 1216.3 664.483 1216.4 664.477C1216.5 664.47 1216.63 664.459 1216.78 664.441C1216.9 664.424 1217.04 664.405 1217.18 664.384C1217.33 664.363 1217.46 664.339 1217.57 664.313C1217.92 664.238 1218.23 664.126 1218.51 663.978C1218.79 663.824 1218.97 663.634 1219.02 663.408L1212.93 655.819L1216.01 655.136L1219.63 659.922L1220.51 654.142L1223.47 653.485ZM1235.94 662.64L1233.08 663.272L1232.15 659.069C1231.64 659.31 1231.19 659.508 1230.81 659.662C1230.43 659.811 1229.92 659.956 1229.28 660.098C1228.79 660.206 1228.32 660.243 1227.87 660.21C1227.42 660.176 1227 660.058 1226.61 659.855C1226.23 659.647 1225.9 659.356 1225.63 658.985C1225.35 658.614 1225.15 658.133 1225.02 657.543L1224.09 653.348L1226.96 652.713L1227.56 655.406C1227.66 655.884 1227.76 656.256 1227.85 656.524C1227.95 656.791 1228.11 657.033 1228.33 657.25C1228.54 657.445 1228.79 657.571 1229.09 657.627C1229.39 657.682 1229.8 657.654 1230.29 657.544C1230.47 657.505 1230.71 657.439 1231 657.347C1231.3 657.254 1231.54 657.169 1231.72 657.093L1230.57 651.914L1233.42 651.282L1235.94 662.64ZM1243.95 660.867L1237.83 662.221L1237.39 660.238L1239.02 659.877L1237.38 652.485L1235.75 652.847L1235.31 650.864L1241.43 649.509L1241.87 651.492L1240.24 651.854L1241.87 659.245L1243.51 658.884L1243.95 660.867Z" fill="#428396" fill-opacity="0.7"/>
<path d="M1620.41 333.277L1621.74 321.07L1624.85 320.381L1631.2 330.889L1628.26 331.539L1627.04 329.377L1623.47 330.168L1623.27 332.644L1620.41 333.277ZM1625.96 327.456L1623.97 323.968L1623.64 327.97L1625.96 327.456ZM1639.35 320.931C1639.47 321.46 1639.49 321.982 1639.43 322.497C1639.37 323.012 1639.22 323.465 1638.97 323.855C1638.82 324.096 1638.65 324.326 1638.45 324.546C1638.26 324.765 1638.04 324.963 1637.78 325.142C1637.53 325.321 1637.25 325.48 1636.93 325.619C1636.62 325.758 1636.26 325.872 1635.85 325.962L1634.36 326.293L1635.18 330.007L1632.33 330.639L1629.81 319.281L1634.22 318.305C1634.88 318.16 1635.46 318.096 1635.96 318.113C1636.46 318.124 1636.93 318.217 1637.38 318.391C1637.87 318.581 1638.28 318.889 1638.62 319.315C1638.96 319.736 1639.2 320.275 1639.35 320.931ZM1636.43 321.648C1636.36 321.328 1636.23 321.07 1636.02 320.875C1635.82 320.675 1635.6 320.555 1635.37 320.516C1635.07 320.459 1634.8 320.45 1634.55 320.49C1634.3 320.524 1633.96 320.587 1633.54 320.681L1633.14 320.77L1633.89 324.172L1634.09 324.128C1634.36 324.069 1634.61 324.01 1634.85 323.952C1635.09 323.894 1635.29 323.83 1635.46 323.76C1635.61 323.701 1635.76 323.617 1635.91 323.509C1636.07 323.394 1636.18 323.281 1636.25 323.169C1636.4 322.938 1636.49 322.714 1636.51 322.496C1636.54 322.276 1636.51 321.994 1636.43 321.648ZM1644.78 327.883L1642.74 318.691L1639.38 319.435L1638.91 317.268L1648.47 315.15L1648.95 317.317L1645.59 318.06L1647.63 327.251L1644.78 327.883ZM1656.01 321.251L1650.95 322.371L1650.48 320.251L1655.54 319.131L1656.01 321.251ZM1668.43 322.879C1666.72 323.256 1665.26 323.042 1664.03 322.236C1662.8 321.426 1661.97 320.088 1661.56 318.221C1661.16 316.421 1661.35 314.876 1662.11 313.587C1662.88 312.291 1664.12 311.454 1665.82 311.077C1666.27 310.977 1666.69 310.912 1667.06 310.883C1667.43 310.854 1667.79 310.849 1668.14 310.867C1668.42 310.886 1668.72 310.927 1669.06 310.992C1669.39 311.057 1669.66 311.117 1669.87 311.172L1670.47 313.879L1670.18 313.944C1670.02 313.852 1669.81 313.745 1669.57 313.624C1669.32 313.497 1669.05 313.381 1668.75 313.277C1668.45 313.173 1668.12 313.101 1667.78 313.06C1667.44 313.012 1667.1 313.027 1666.75 313.104C1666.34 313.195 1665.97 313.345 1665.66 313.554C1665.34 313.756 1665.07 314.052 1664.83 314.441C1664.61 314.794 1664.46 315.237 1664.39 315.771C1664.32 316.304 1664.36 316.906 1664.51 317.577C1664.66 318.284 1664.89 318.858 1665.18 319.299C1665.48 319.736 1665.81 320.068 1666.18 320.295C1666.54 320.515 1666.91 320.648 1667.3 320.695C1667.7 320.741 1668.07 320.724 1668.43 320.644C1668.81 320.561 1669.16 320.42 1669.47 320.223C1669.78 320.02 1670.04 319.817 1670.24 319.613C1670.46 319.399 1670.65 319.189 1670.8 318.983C1670.96 318.778 1671.1 318.596 1671.21 318.437L1671.47 318.38L1672.06 321.05C1671.87 321.192 1671.66 321.358 1671.41 321.546C1671.16 321.728 1670.9 321.895 1670.63 322.046C1670.3 322.231 1669.99 322.387 1669.69 322.511C1669.39 322.636 1668.97 322.758 1668.43 322.879ZM1676.1 320.948L1674.06 311.757L1670.7 312.5L1670.22 310.334L1679.79 308.216L1680.27 310.382L1676.91 311.125L1678.95 320.317L1676.1 320.948ZM1690.35 305.879L1688.57 315.803C1688.46 316.381 1688.3 316.854 1688.09 317.221C1687.88 317.587 1687.64 317.882 1687.37 318.107C1687.1 318.333 1686.82 318.507 1686.53 318.63C1686.24 318.749 1685.92 318.845 1685.58 318.92C1685.23 318.997 1684.82 319.08 1684.35 319.169C1683.89 319.256 1683.57 319.309 1683.41 319.329L1682.88 316.918L1683.05 316.88C1683.1 316.88 1683.17 316.877 1683.27 316.87C1683.37 316.864 1683.5 316.853 1683.65 316.835C1683.78 316.818 1683.91 316.799 1684.05 316.778C1684.2 316.756 1684.33 316.733 1684.45 316.707C1684.79 316.632 1685.1 316.52 1685.38 316.372C1685.67 316.218 1685.84 316.028 1685.89 315.802L1679.81 308.213L1682.89 307.53L1686.5 312.316L1687.38 306.536L1690.35 305.879ZM1705 317.285L1702.39 317.864L1701.8 315.217L1695.45 316.622L1696.04 319.269L1693.42 319.848L1692.37 315.066L1693.13 314.897C1693.42 313.67 1693.54 312.229 1693.5 310.574C1693.46 308.913 1693.23 307.165 1692.83 305.33L1700.84 303.556L1702.87 312.74L1703.94 312.502L1705 317.285ZM1700.02 313.372L1698.46 306.354L1695.98 306.905C1696.18 308.299 1696.28 309.631 1696.26 310.899C1696.24 312.162 1696.11 313.291 1695.88 314.287L1700.02 313.372ZM1711.58 313.092L1705.46 314.446L1705.02 312.463L1706.66 312.102L1705.02 304.71L1703.39 305.072L1702.95 303.089L1709.07 301.734L1709.5 303.717L1707.87 304.079L1709.51 311.47L1711.14 311.109L1711.58 313.092ZM1719.13 311.42L1713.01 312.774L1712.58 310.791L1714.21 310.43L1712.57 303.038L1710.94 303.4L1710.5 301.417L1716.62 300.062L1717.06 302.045L1715.42 302.407L1717.06 309.798L1718.69 309.437L1719.13 311.42ZM1716.21 298.817L1714.02 299.302L1713.56 297.219L1715.74 296.735L1716.21 298.817ZM1712.54 299.629L1710.35 300.114L1709.89 298.032L1712.08 297.547L1712.54 299.629Z" fill="#428396" fill-opacity="0.7"/>
<rect x="1110.4" y="314.506" width="205.19" height="205.19" rx="19" transform="rotate(-45 1110.4 314.506)" stroke="#507C92" stroke-width="2"/>
<rect x="1102.41" y="314.506" width="205.19" height="205.19" rx="19" transform="rotate(-45 1102.41 314.506)" stroke="#356F8C" stroke-width="2"/>
<rect x="1094.41" y="314.506" width="205.19" height="205.19" rx="19" transform="rotate(-45 1094.41 314.506)" stroke="#286888" stroke-width="2"/>
<rect x="-39.5968" y="368.506" width="205.19" height="205.19" rx="19" transform="rotate(-45 -39.5968 368.506)" stroke="#507C92" stroke-width="2"/>
<rect x="-47.5908" y="368.506" width="205.19" height="205.19" rx="19" transform="rotate(-45 -47.5908 368.506)" stroke="#356F8C" stroke-width="2"/>
<rect x="-55.5858" y="368.506" width="205.19" height="205.19" rx="19" transform="rotate(-45 -55.5858 368.506)" stroke="#286888" stroke-width="2"/>
<rect x="1230.41" y="534.91" width="309" height="309" rx="19" transform="rotate(-45 1230.41 534.91)" stroke="#507C92" stroke-width="2"/>
<rect x="1218.41" y="534.91" width="309" height="309" rx="19" transform="rotate(-45 1218.41 534.91)" stroke="#356F8C" stroke-width="2"/>
<rect x="1206.41" y="534.91" width="309" height="309" rx="19" transform="rotate(-45 1206.41 534.91)" stroke="#286888" stroke-width="2"/>
<rect x="362.521" y="207.447" width="116.011" height="116.011" rx="19" transform="rotate(-45 362.521 207.447)" stroke="#507C92" stroke-width="2"/>
<rect x="357.968" y="207.447" width="116.011" height="116.011" rx="19" transform="rotate(-45 357.968 207.447)" stroke="#356F8C" stroke-width="2"/>
<rect x="353.414" y="207.446" width="116.011" height="116.011" rx="19" transform="rotate(-45 353.414 207.446)" stroke="#286888" stroke-width="2"/>
<rect x="1667.52" y="190.447" width="116.011" height="116.011" rx="19" transform="rotate(-45 1667.52 190.447)" stroke="#507C92" stroke-width="2"/>
<rect x="1662.97" y="190.447" width="116.011" height="116.011" rx="19" transform="rotate(-45 1662.97 190.447)" stroke="#356F8C" stroke-width="2"/>
<rect x="1658.41" y="190.446" width="116.011" height="116.011" rx="19" transform="rotate(-45 1658.41 190.446)" stroke="#286888" stroke-width="2"/>
<rect x="497.782" y="123.5" width="64.7608" height="64.7608" rx="19.5" transform="rotate(-45 497.782 123.5)" stroke="#507C92"/>
<rect x="495.245" y="123.5" width="64.7608" height="64.7608" rx="19.5" transform="rotate(-45 495.245 123.5)" stroke="#356F8C"/>
<rect x="492.707" y="123.5" width="64.7608" height="64.7608" rx="19.5" transform="rotate(-45 492.707 123.5)" stroke="#286888"/>
<rect x="1869.78" y="68.5" width="64.7608" height="64.7608" rx="19.5" transform="rotate(-45 1869.78 68.5)" stroke="#507C92"/>
<rect x="1867.24" y="68.5" width="64.7608" height="64.7608" rx="19.5" transform="rotate(-45 1867.24 68.5)" stroke="#356F8C"/>
<rect x="1864.71" y="68.5" width="64.7608" height="64.7608" rx="19.5" transform="rotate(-45 1864.71 68.5)" stroke="#286888"/>
<rect x="1784.78" y="667.5" width="64.7608" height="64.7608" rx="19.5" transform="rotate(-45 1784.78 667.5)" stroke="#507C92"/>
<rect x="1782.24" y="667.5" width="64.7608" height="64.7608" rx="19.5" transform="rotate(-45 1782.24 667.5)" stroke="#356F8C"/>
<rect x="1779.71" y="667.5" width="64.7608" height="64.7608" rx="19.5" transform="rotate(-45 1779.71 667.5)" stroke="#286888"/>
<rect x="1213.57" y="38.9211" width="116.682" height="116.682" rx="19" transform="rotate(-45 1213.57 38.9211)" stroke="#507C92" stroke-width="2"/>
<rect x="1208.99" y="38.9211" width="116.682" height="116.682" rx="19" transform="rotate(-45 1208.99 38.9211)" stroke="#356F8C" stroke-width="2"/>
<rect x="1204.41" y="38.9207" width="116.682" height="116.682" rx="19" transform="rotate(-45 1204.41 38.9207)" stroke="#286888" stroke-width="2"/>
<rect x="268.523" y="573.446" width="193.791" height="193.791" rx="19" transform="rotate(-45 268.523 573.446)" stroke="#507C92" stroke-width="2"/>
<rect x="260.969" y="573.446" width="193.791" height="193.791" rx="19" transform="rotate(-45 260.969 573.446)" stroke="#356F8C" stroke-width="2"/>
<rect x="253.414" y="573.445" width="193.791" height="193.791" rx="19" transform="rotate(-45 253.414 573.445)" stroke="#286888" stroke-width="2"/>
</g>
<defs>
<clipPath id="clip0_2118_381">
<rect width="1920" height="768" fill="white"/>
</clipPath>
</defs>
</svg>
