<svg width="34" height="47" viewBox="0 0 34 47" fill="none" xmlns="http://www.w3.org/2000/svg">
<path d="M15.3509 0.139721C14.3129 0.354477 12.9359 0.955803 12.025 1.5786C11.0294 2.22288 11.0082 2.2873 11.0082 3.31815V4.39194L9.8007 4.92883C5.22496 6.92609 1.51776 11.6293 0.331458 16.8909C-0.0922218 18.7807 -0.113406 22.1525 0.28909 24.0638C1.39066 29.2824 5.18259 34.093 9.86425 36.1977L11.0082 36.7131V38.4741V40.2566L13.9316 43.6283C15.5204 45.4752 16.9397 47 17.0456 47C17.1727 47 18.5285 45.5182 20.0538 43.7357L22.8712 40.4713V38.6029V36.7345L24.0363 36.1977C27.447 34.6084 30.561 31.6018 32.2345 28.2301C32.9124 26.8986 33.6751 24.1497 33.8869 22.3457C34.7554 15.2372 30.5398 7.74217 24.0575 4.84293L22.8712 4.30603V3.25372C22.8712 2.07254 22.6806 1.81483 21.1765 1.06318C19.397 0.139721 17.0033 -0.225368 15.3509 0.139721ZM19.5242 1.83631C20.0749 2.02959 20.5834 2.24435 20.6469 2.35173C20.774 2.54501 17.321 5.57311 16.9609 5.57311C16.6855 5.57311 13.169 2.78125 13.1478 2.54501C13.1266 2.37321 14.5671 1.75041 15.5627 1.51418C16.5796 1.25646 18.1684 1.38532 19.5242 1.83631ZM16.3042 19.919V32.8904L15.2026 32.74C10.6057 32.1172 6.3689 28.2945 5.18259 23.7202C4.7801 22.088 4.7801 18.9096 5.20378 17.2774C5.8393 14.7862 7.78822 11.9514 9.88544 10.4911C10.3727 10.1475 10.8175 9.86827 10.8811 9.86827C10.9446 9.86827 11.0082 10.4481 11.0082 11.1783C11.0082 12.4669 10.987 12.5313 9.92781 13.691C6.3689 17.6425 6.26298 23.2477 9.71597 27.1134C10.4998 27.9939 11.9827 29.1965 12.3216 29.1965C12.4063 29.1965 12.4911 23.5054 12.4911 16.5258V3.85504L14.3976 5.42278L16.3042 6.96904V19.919ZM21.6002 16.5473V29.218L22.2781 28.8314C23.5279 28.1013 24.9473 26.4476 25.7734 24.751C26.5784 23.1189 26.5784 23.0759 26.5784 20.4988C26.5784 18.072 26.5361 17.8358 25.9217 16.5258C25.5616 15.7527 24.7354 14.5285 24.0787 13.7984C22.9136 12.5313 22.8712 12.4454 22.8712 11.3072C22.8712 10.6414 22.956 10.0616 23.0619 9.99713C23.1678 9.9327 23.6127 10.1475 24.0575 10.4911C29.3323 14.3997 30.6881 21.5726 27.2139 27.1563C25.3498 30.1415 21.6002 32.5682 18.5921 32.6971L17.6811 32.74L17.6176 19.919L17.5752 7.09789L19.4182 5.48721C20.4562 4.58522 21.346 3.85504 21.4519 3.85504C21.5366 3.85504 21.6002 9.56761 21.6002 16.5473ZM10.9658 7.11937C10.9023 8.21463 10.8811 8.25759 9.94899 8.77301C8.44493 9.61057 5.92403 12.3165 5.0343 14.0561C3.848 16.3755 3.50906 17.7929 3.50906 20.4988C3.50906 23.1833 3.80563 24.4933 5.01312 26.9201C6.13587 29.1965 8.65677 31.6663 11.0082 32.8045C13.2749 33.8783 14.5883 34.2004 17.0244 34.2004C20.6469 34.2004 23.9516 32.8045 26.4513 30.2703C29.0358 27.6288 30.2856 24.7725 30.4551 21.1431C30.561 18.523 30.1797 16.6761 29.0569 14.3782C28.1249 12.4454 25.9217 9.99713 24.0999 8.85891C22.8712 8.08578 22.8712 8.08578 22.8712 7.05494C22.8712 5.78786 22.9771 5.76639 24.6295 6.71133C28.4638 8.88039 31.0906 12.4239 32.2134 16.9553C32.8277 19.4035 32.7006 22.9685 31.9168 25.2235C29.7772 31.473 25.0532 35.446 18.7827 36.2836C12.3851 37.1426 5.69101 33.4273 2.87354 27.414C0.71277 22.7753 0.733954 18.2224 2.97946 13.5406C3.91155 11.6078 4.29286 11.0709 5.88166 9.46024C7.5552 7.76364 10.0549 6.00262 10.754 6.00262C10.9446 6.00262 11.0082 6.30329 10.9658 7.11937ZM11.0082 20.5418C11.0082 26.3402 11.0082 26.4691 10.6057 26.104C9.92781 25.4812 8.93216 23.3551 8.69913 21.9592C8.29664 19.7257 8.91097 17.1701 10.2879 15.3446C10.5845 14.9366 10.8811 14.593 10.9235 14.593C10.9658 14.593 11.0082 17.256 11.0082 20.5418ZM23.8245 15.5808C24.8413 16.9338 25.265 18.3727 25.2862 20.3914C25.2862 22.5605 25.0108 23.6343 24.0787 25.0302C22.8712 26.8342 22.8712 26.8127 22.8712 20.5203C22.8712 17.3633 22.956 14.8077 23.0619 14.8077C23.1678 14.8077 23.5067 15.1513 23.8245 15.5808ZM15.9864 37.7224C17.893 37.8298 20.2868 37.6151 21.2824 37.2285C21.5366 37.1211 21.6002 37.3359 21.6002 38.4741V39.87L20.308 41.3089L19.0157 42.7263H17.0668H15.0967L13.8045 41.3519L12.4911 39.9774V38.5815V37.1641L13.1901 37.3788C13.5503 37.4862 14.8213 37.6365 15.9864 37.7224Z" fill="url(#paint0_linear_793_1330)"/>
<defs>
<linearGradient id="paint0_linear_793_1330" x1="17" y1="47" x2="17" y2="0" gradientUnits="userSpaceOnUse">
<stop stop-color="#A3A300"/>
<stop offset="0.505208" stop-color="#FFFF00"/>
<stop offset="1" stop-color="#A3A300"/>
</linearGradient>
</defs>
</svg>
