<svg width="24" height="60" viewBox="0 0 24 60" fill="none" xmlns="http://www.w3.org/2000/svg">
<path d="M13.5 2C13.5 1.17157 12.8284 0.5 12 0.5C11.1716 0.5 10.5 1.17157 10.5 2L13.5 2ZM10.9393 59.0607C11.5251 59.6464 12.4749 59.6464 13.0607 59.0607L22.6066 49.5147C23.1924 48.9289 23.1924 47.9792 22.6066 47.3934C22.0208 46.8076 21.0711 46.8076 20.4853 47.3934L12 55.8787L3.51472 47.3934C2.92893 46.8076 1.97919 46.8076 1.3934 47.3934C0.807613 47.9792 0.807614 48.9289 1.3934 49.5147L10.9393 59.0607ZM10.5 2L10.5 58L13.5 58L13.5 2L10.5 2Z" fill="white"/>
</svg>
