<svg width="20" height="18" viewBox="0 0 20 18" fill="none" xmlns="http://www.w3.org/2000/svg">
<path d="M2.37008 18H17.6299C19.0869 18 20 16.9741 20 15.6823C20 15.2929 19.9029 14.9034 19.6893 14.5425L12.0447 1.16834C11.6076 0.398948 10.8014 0 10.0049 0C9.19865 0 8.39242 0.398948 7.95533 1.16834L0.32055 14.552C0.106838 14.9129 0 15.2929 0 15.6823C0 16.9741 0.913068 18 2.37008 18ZM10.0049 11.4934C9.49004 11.4934 9.20836 11.2084 9.18892 10.6955L9.05295 6.00317C9.03352 5.49024 9.44148 5.1103 9.99515 5.1103C10.5391 5.1103 10.9568 5.49974 10.9374 6.01266L10.8014 10.6955C10.7819 11.2179 10.4905 11.4934 10.0049 11.4934ZM10.0049 14.9984C9.44148 14.9984 8.91696 14.5615 8.91696 13.9726C8.91696 13.3836 9.43176 12.9467 10.0049 12.9467C10.5682 12.9467 11.0928 13.3741 11.0928 13.9726C11.0928 14.571 10.5585 14.9984 10.0049 14.9984Z" fill="#FF2D1A"/>
</svg>
