<svg width="361" height="435" viewBox="0 0 361 435" fill="none" xmlns="http://www.w3.org/2000/svg">
<path d="M154.916 14.7476H35C23.9543 14.7476 15 23.7019 15 34.7476V414C15 425.046 23.9543 434 35 434H323C334.046 434 343 425.046 343 414V34.7476C343 23.7019 334.046 14.7476 323 14.7476H204.231" stroke="#243B73"/>
<rect width="7.00174" height="7.00174" transform="matrix(0.706239 -0.707973 0.706239 0.707973 174.859 4.95679)" fill="#243B73"/>
<rect width="4.79624" height="4.79624" transform="matrix(0.706239 -0.707973 0.706239 0.707973 185.718 8.83862)" fill="#243B73"/>
<rect width="2.72717" height="2.72717" transform="matrix(0.706239 -0.707973 0.706239 0.707973 191.148 12.8167)" fill="#243B73"/>
<rect width="2.72717" height="2.72717" transform="matrix(0.706239 -0.707973 0.706239 0.707973 164 12.8167)" fill="#243B73"/>
<rect width="4.79624" height="4.79624" transform="matrix(0.706239 -0.707973 0.706239 0.707973 167.62 8.83862)" fill="#243B73"/>
<rect x="0.5" y="22.5" width="360" height="404" rx="19.5" fill="#E2D3CE" stroke="#243B73"/>
</svg>
