<svg width="227" height="83" viewBox="0 0 227 83" fill="none" xmlns="http://www.w3.org/2000/svg">
<path d="M136 13H200.057C234.648 13 234.648 64 200.057 64H136" stroke="white"/>
<path d="M91 13H26.9431C-7.64769 13 -7.64769 64 26.9431 64H91" stroke="white"/>
<rect width="6.13547" height="6.13547" transform="matrix(0.701967 -0.71221 0.701967 0.71221 109.458 4.36975)" fill="white"/>
<rect width="4.20284" height="4.20284" transform="matrix(0.701967 -0.71221 0.701967 0.71221 118.916 7.79126)" fill="white"/>
<rect width="2.38976" height="2.38976" transform="matrix(0.701967 -0.71221 0.701967 0.71221 123.645 11.298)" fill="white"/>
<rect width="2.38976" height="2.38976" transform="matrix(0.701967 -0.71221 0.701967 0.71221 100 11.298)" fill="white"/>
<rect width="4.20284" height="4.20284" transform="matrix(0.701967 -0.71221 0.701967 0.71221 103.153 7.79126)" fill="white"/>
<rect width="6.13547" height="6.13547" transform="matrix(0.701967 0.71221 0.701967 -0.71221 109.458 78.6304)" fill="white"/>
<rect width="4.20284" height="4.20284" transform="matrix(0.701967 0.71221 0.701967 -0.71221 118.916 75.2087)" fill="white"/>
<rect width="2.38976" height="2.38976" transform="matrix(0.701967 0.71221 0.701967 -0.71221 123.645 71.7019)" fill="white"/>
<rect width="2.38976" height="2.38976" transform="matrix(0.701967 0.71221 0.701967 -0.71221 100 71.7019)" fill="white"/>
<rect width="4.20284" height="4.20284" transform="matrix(0.701967 0.71221 0.701967 -0.71221 103.153 75.2087)" fill="white"/>
</svg>
