<svg width="49" height="43" viewBox="0 0 49 43" fill="none" xmlns="http://www.w3.org/2000/svg">
<rect width="49" height="43" rx="4" fill="white"/>
<path d="M22.8191 13.2129C22.2648 13.3925 21.7773 13.8595 21.572 14.4086C21.4129 14.8346 21.4386 15.5068 21.6336 15.9225C21.8081 16.2971 22.1827 16.6718 22.5727 16.8668C22.8499 17.0002 22.932 17.0156 23.3938 17.0156C23.8506 17.0156 23.9429 17.0002 24.2201 16.8719C24.6152 16.6872 25.0104 16.292 25.2003 15.8866C25.3234 15.6197 25.3439 15.5171 25.3439 15.0911C25.3439 14.6652 25.3234 14.5626 25.2003 14.2906C25.0155 13.8954 24.6204 13.5003 24.2149 13.3104C23.9686 13.1975 23.8249 13.1667 23.4708 13.1564C23.204 13.1462 22.9474 13.1718 22.8191 13.2129Z" fill="#F80B10"/>
<path d="M3.50285 18.237C3.16927 18.4167 3.03071 18.7143 3.00505 19.3404C2.96913 20.1358 3.12309 20.5618 3.51824 20.7671C3.68759 20.8543 4.22131 20.8646 5.01675 20.7978C5.31439 20.7722 5.47348 20.7773 5.48888 20.8132C5.49401 20.8389 5.57612 21.2341 5.66849 21.6857C6.29971 24.8879 7.53649 27.4282 9.25567 29.0653C10.6053 30.3483 12.15 31 13.8487 31C14.9469 31 15.8706 30.7793 16.9278 30.261C19.3654 29.0602 21.3617 26.5507 22.4394 23.3125C22.8192 22.1732 22.8346 21.7216 22.501 21.4034C22.2803 21.1879 21.8749 21.0442 21.5157 21.0442C21.0949 21.0442 20.9615 21.2135 20.2635 22.5889C19.3962 24.2927 18.7753 25.1856 17.8361 26.0785C17.0869 26.797 16.2042 27.3205 15.3626 27.5616C14.8802 27.7002 13.8179 27.7567 13.3509 27.6694C11.1596 27.2537 9.32751 25.3601 8.40891 22.5581C8.22416 22.0038 7.89572 20.6388 7.93678 20.6028C7.94191 20.5977 8.39351 20.5567 8.94262 20.5105C10.046 20.4232 10.2307 20.3668 10.3949 20.064C10.4771 19.9203 10.4924 19.8177 10.4719 19.4533C10.4257 18.7092 10.1999 18.2884 9.77912 18.1703C9.66109 18.1395 8.51155 18.119 6.65894 18.119H3.72865L3.50285 18.237Z" fill="#F80B10"/>
<path d="M36.3673 21.819C36.0132 21.8549 35.8079 21.9627 35.7361 22.1526C35.6642 22.3322 35.6693 27.4384 35.7361 27.8695C35.813 28.3262 36.0748 28.8702 36.3775 29.1678C36.8753 29.6656 37.6502 29.9068 38.5842 29.8555C39.2103 29.8196 39.6671 29.6861 40.0879 29.4142L40.4009 29.2089L40.5344 29.4347C40.7858 29.8709 41.0424 29.9222 41.6685 29.6605C42.0842 29.486 42.4075 29.2243 42.4075 29.0652C42.4075 29.0087 42.3459 28.7932 42.2689 28.5828L42.1252 28.203L42.0996 25.1496C42.0842 23.4715 42.0534 22.0653 42.0277 22.0243C41.8327 21.7215 40.4163 21.7215 40.2213 22.0243C40.1957 22.0653 40.1649 23.261 40.1495 24.6877C40.1238 27.0894 40.1187 27.2947 40.0263 27.4589C39.7902 27.9105 39.3746 28.1312 38.7741 28.1209C38.184 28.1158 37.8504 27.9105 37.7426 27.4897C37.7067 27.3358 37.6862 26.4274 37.6862 24.698V22.1372L37.5527 22.0037C37.3731 21.8241 36.9574 21.7574 36.3673 21.819Z" fill="#F80B10"/>
<path d="M44.6552 21.819C44.3165 21.8549 44.1164 21.9678 44.0445 22.1577C44.0137 22.2398 44.0035 23.6254 44.0086 25.8475L44.024 29.409L44.1523 29.5373C44.4858 29.8709 45.7586 29.8196 45.9484 29.4655C45.9792 29.3988 45.9997 28.1312 45.9997 25.7551C45.9997 21.7728 46.0151 21.9781 45.6764 21.8703C45.4506 21.7985 45.0093 21.7779 44.6552 21.819Z" fill="#F80B10"/>
<path d="M29.8397 21.9062C29.5575 22.0448 29.4497 22.3168 29.4497 22.8659C29.4548 23.6767 29.6498 23.8871 30.3734 23.8769C30.5992 23.8718 30.8815 23.8512 31.0047 23.8358L31.2202 23.805V26.5403C31.2202 28.629 31.2356 29.3115 31.2869 29.409C31.3998 29.6348 31.6461 29.7169 32.2363 29.7169C32.8316 29.7169 33.0677 29.6451 33.1652 29.4296C33.2062 29.3372 33.2216 28.4802 33.2216 26.4839V23.6613H33.4166C33.9196 23.6511 34.6534 23.5638 34.7971 23.492C34.8792 23.4458 34.9819 23.338 35.0178 23.2508C35.1153 23.0199 35.0537 22.4297 34.91 22.1731C34.7047 21.8087 34.7355 21.8139 32.2363 21.8139C30.2246 21.8139 29.9988 21.8241 29.8397 21.9062Z" fill="#F80B10"/>
</svg>
