<svg width="342" height="381" viewBox="0 0 342 381" fill="none" xmlns="http://www.w3.org/2000/svg">
<path d="M146.769 11H26C14.9543 11 6 19.9543 6 31V360C6 371.046 14.9543 380 26 380H316C327.046 380 336 371.046 336 360V31C336 19.9543 327.046 11 316 11H196.385" stroke="#243B73"/>
<rect x="0.5" y="17.5" width="341" height="356" rx="19.5" fill="#E2D3CE" stroke="#243B73"/>
<rect width="6.99148" height="6.99148" transform="matrix(0.707275 -0.706939 0.707275 0.706939 166.859 4.94263)" fill="#243B73"/>
<rect width="4.78921" height="4.78921" transform="matrix(0.707275 -0.706939 0.707275 0.706939 177.718 8.81299)" fill="#243B73"/>
<rect width="2.72317" height="2.72317" transform="matrix(0.707275 -0.706939 0.707275 0.706939 183.147 12.7795)" fill="#243B73"/>
<rect width="2.72317" height="2.72317" transform="matrix(0.707275 -0.706939 0.707275 0.706939 156 12.7795)" fill="#243B73"/>
<rect width="4.78921" height="4.78921" transform="matrix(0.707275 -0.706939 0.707275 0.706939 159.62 8.81299)" fill="#243B73"/>
</svg>
