<svg width="408" height="455" viewBox="0 0 408 455" fill="none" xmlns="http://www.w3.org/2000/svg">
<path d="M175.259 15H37C25.9543 15 17 23.9543 17 35V434C17 445.046 25.9543 454 37 454H368C379.046 454 388 445.046 388 434V35C388 23.9543 379.046 15 368 15H231.038" stroke="#243B73"/>
<rect x="0.5" y="23.5" width="407" height="422" rx="19.5" fill="#E2D3CE" stroke="#243B73"/>
<rect width="6.99148" height="6.99148" transform="matrix(0.707275 -0.706939 0.707275 0.706939 199.859 4.94238)" fill="#243B73"/>
<rect width="4.78921" height="4.78921" transform="matrix(0.707275 -0.706939 0.707275 0.706939 210.718 8.81299)" fill="#243B73"/>
<rect width="2.72317" height="2.72317" transform="matrix(0.707275 -0.706939 0.707275 0.706939 216.147 12.7793)" fill="#243B73"/>
<rect width="2.72317" height="2.72317" transform="matrix(0.707275 -0.706939 0.707275 0.706939 189 12.7793)" fill="#243B73"/>
<rect width="4.78921" height="4.78921" transform="matrix(0.707275 -0.706939 0.707275 0.706939 192.62 8.81299)" fill="#243B73"/>
</svg>
