<svg width="54" height="54" viewBox="0 0 54 54" fill="none" xmlns="http://www.w3.org/2000/svg">
<path d="M11.0199 2.43859C10.6591 2.66351 9.89243 2.88844 9.39634 2.88844C8.85514 2.88844 7.72765 3.51821 6.91586 4.28294C5.47267 5.63245 5.42757 5.81239 5.24717 9.90593C5.06677 13.5496 4.93148 14.1344 4.25498 14.1344C2.4961 14.1344 2 15.5289 2 20.5221C2 25.4254 2.1804 26.0102 4.02948 26.37C4.88638 26.505 4.93148 26.9998 5.20207 36.1765C5.51777 46.7927 6.01387 50.8863 7.00606 51.5161C7.36685 51.741 9.12574 51.9209 10.9297 51.9209C14.5828 51.9209 15.5299 51.4261 15.5299 49.4918C15.5299 48.862 15.6652 48.2772 15.8907 48.2322C16.7927 48.0523 36.5914 47.9623 37.313 48.1872C37.764 48.2772 38.0797 48.817 38.0797 49.4918C38.0797 50.0766 38.3052 50.5714 38.5307 50.5714C38.8013 50.5714 38.9817 50.8863 38.9817 51.2462C38.9817 52.2808 46.2878 52.2358 47.1447 51.2012C48.0918 50.0316 48.5428 45.7131 48.7683 35.5917C48.9036 26.9998 48.9938 26.2801 49.7605 26.2801C50.2115 26.2801 50.9331 25.9202 51.339 25.4254C51.9704 24.7506 52.0606 23.806 51.9704 19.9373L51.8351 15.259L50.437 14.5843C49.0389 13.9095 48.9938 13.8195 48.7683 10.1308C48.4526 5.54248 47.0094 2.88844 44.8897 2.88844C44.3485 2.88844 43.9426 2.66351 43.9426 2.43859C43.9426 1.8538 11.967 1.8538 11.0199 2.43859ZM45.3858 4.68779C47.0545 6.39718 47.0996 6.98197 47.0996 26.37V45.3982L45.8819 45.938C44.9799 46.3879 40.1092 46.5228 26.6244 46.5228C8.71984 46.5228 8.58454 46.5228 7.54725 45.5332L6.50996 44.5885V25.7403C6.50996 13.5046 6.64526 6.93699 6.96096 6.93699C7.23156 6.93699 7.41195 6.66708 7.41195 6.30721C7.41195 5.4975 9.17084 4.3729 10.8395 4.103C11.5611 4.01303 19.4536 3.92307 28.4284 3.96805C42.3191 4.01303 44.7995 4.103 45.3858 4.68779ZM5.15697 19.7124C5.15697 23.4461 4.88638 24.4807 3.98438 24.4807C3.48829 24.4807 3.35299 23.581 3.35299 20.4322C3.35299 16.6985 3.39809 16.3836 4.25498 16.3836C5.06677 16.3836 5.15697 16.6985 5.15697 19.7124ZM50.2566 20.4322C50.2566 23.716 50.1213 24.4807 49.5801 24.4807C49.0389 24.4807 48.9036 23.716 48.9036 20.4322C48.9036 17.1483 49.0389 16.3836 49.5801 16.3836C50.1213 16.3836 50.2566 17.1483 50.2566 20.4322ZM13.1847 48.2322C13.4553 48.3222 13.7259 48.907 13.7259 49.4918C13.7259 50.5264 13.5906 50.5714 10.8395 50.5714C7.90805 50.5714 7.41195 50.2565 7.41195 48.5021C7.41195 47.9623 7.99825 47.8274 10.0277 47.9173C11.4258 47.9623 12.869 48.0973 13.1847 48.2322ZM46.1074 49.0869C45.9721 50.3015 45.927 50.3465 43.0406 50.3465C40.5602 50.3465 40.1092 50.2115 39.9739 49.4918C39.7484 48.3222 40.4249 48.0073 43.5367 47.9173L46.2427 47.8274L46.1074 49.0869Z" fill="#243B73"/>
<path d="M14.4175 4.45742C13.492 5.76915 13.4433 6.78939 14.2226 8.48978L14.7584 9.70435H27.1301C40.9144 9.70435 40.9144 9.70435 40.9144 6.54647C40.9144 3.3886 40.8657 3.3886 27.325 3.3886C15.2942 3.3886 15.1481 3.3886 14.4175 4.45742ZM38.8687 6.64364L39.0148 7.76104H27.5685C16.7554 7.76104 16.0735 7.71246 16.0735 6.88655C16.0735 6.40073 16.2196 5.81773 16.4145 5.6234C16.6093 5.47766 21.6749 5.38049 27.7146 5.42907C38.7225 5.57482 38.7225 5.57482 38.8687 6.64364Z" fill="#243B73"/>
<path d="M8.96221 11.8421C7.54969 13.4453 7.30615 14.8056 7.30615 21.8501C7.30615 30.8865 7.5984 31.6638 11.2515 32.5383C14.32 33.267 42.2782 32.7812 44.0804 31.9553C45.98 31.1294 46.2722 29.5262 46.2722 21.17C46.2722 13.5425 46.2235 13.251 45.1519 12.2307C44.0317 11.1619 43.8368 11.1619 26.7405 11.1619C13.3946 11.2105 9.35187 11.3563 8.96221 11.8421ZM43.5446 13.3967C44.2265 13.6396 44.3239 14.8056 44.3239 21.4614C44.3239 27.5343 44.1778 29.3804 43.642 29.9148C42.6192 30.9351 10.9592 30.9351 9.93636 29.9148C9.01092 28.9432 8.9135 14.9028 9.88765 13.834C10.3747 13.251 13.2972 13.1538 26.6431 13.1052C35.5078 13.1052 43.1062 13.251 43.5446 13.3967Z" fill="#243B73"/>
<path d="M9.83905 36.9107C6.57564 38.9026 6.67306 43.3236 10.0339 44.9268C14.8559 47.2102 19.2883 41.7204 15.7327 37.9309C13.9305 35.9876 11.8848 35.6475 9.83905 36.9107ZM13.8331 38.6597C14.8559 39.0483 14.8559 42.0604 13.8818 43.0321C12.7615 44.1495 10.6184 43.6637 9.79034 42.1576C8.32912 39.6313 10.8132 37.4937 13.8331 38.6597Z" fill="#243B73"/>
<path d="M39.9401 36.2791C38.966 36.6677 38.3328 37.3479 37.2612 39.194C36.4819 40.5057 36.4819 40.8944 36.9689 42.1576C37.9431 44.4895 39.2095 45.3154 41.7423 45.3154C43.5932 45.3154 44.1777 45.0725 45.1518 44.0037C46.8079 42.0604 46.5643 39.0483 44.5673 37.0564C43.8367 36.3762 40.963 35.8904 39.9401 36.2791ZM43.6419 39.0483C44.5673 40.0199 44.5186 42.2547 43.4958 43.032C42.3268 43.9065 40.5246 43.858 39.6479 43.032C38.8198 42.1576 38.7711 40.0199 39.5992 39.0969C40.3785 38.1738 42.7164 38.1738 43.6419 39.0483Z" fill="#243B73"/>
</svg>
