<svg width="54" height="52" viewBox="0 0 54 52" fill="none" xmlns="http://www.w3.org/2000/svg">
<path d="M8.16279 21.693C5.54941 20.7669 3.35518 20.3951 2 20.667C2.5814 27.3947 5.11628 41.5968 10.6047 44.5834L6.4186 51H49.4419L52 45.9834C51.2658 46.0587 50.4017 46.1038 49.4419 46.1031M8.16279 21.693V17.2837H24.7907L47.4651 36.7069M8.16279 21.693C10.3352 22.4629 12.7972 23.6158 15.3077 25.1003M49.4419 46.1031V38.4002L47.4651 36.7069M49.4419 46.1031C48.0247 46.1022 46.3988 46.0016 44.6744 45.7513M44.6744 45.7513V41.4335L39.9167 37.3585M44.6744 45.7513C43.1406 45.5287 41.5288 45.1876 39.9167 44.6928M25.6047 33.2835C26.6981 34.4584 27.7162 35.6995 28.6279 37.0002C29.2286 37.8571 29.8919 38.6381 30.6047 39.3492M25.6047 33.2835V25.1003L30.6047 29.3828M25.6047 33.2835C24.304 31.8859 22.8969 30.5819 21.4358 29.3828M30.6047 29.3828V39.3492M30.6047 29.3828L35.1589 33.2835M30.6047 39.3492C31.9723 40.7139 33.5218 41.8211 35.1589 42.7137M35.1589 33.2835V42.7137M35.1589 33.2835L39.9167 37.3585M35.1589 42.7137C36.6936 43.5503 38.3053 44.1983 39.9167 44.6928M39.9167 37.3585V44.6928M21.4358 29.3828V25.1003H15.3077M21.4358 29.3828C19.4488 27.752 17.362 26.3151 15.3077 25.1003M11.0698 16.9337V10.7505H24.7907M47.4651 36.7069V29.3828L43.5526 25.8003M43.5526 25.8003V12.9671C42.3488 9.58388 38.6821 7.69385 37.1163 11.8005V19.9069M43.5526 25.8003L37.1163 19.9069M37.1163 19.9069L30.9387 14.2505M30.9387 14.2505L27.1163 10.7505H24.7907M30.9387 14.2505V5.73392C30.9387 3.28396 27.1163 -1.38264 24.7907 2.46729V10.7505" stroke="#243B73" stroke-width="2"/>
</svg>
