<svg width="54" height="54" viewBox="0 0 54 54" fill="none" xmlns="http://www.w3.org/2000/svg">
<path d="M34.732 52V32.303M34.732 52H27.2577M34.732 52H43.366M34.732 32.303V7.55556H52V52H43.366M34.732 32.303H27.2577M18.4948 32.303L18.366 52M18.4948 32.303L18.366 22.202H10.183M18.4948 32.303H27.2577M18.366 52H10.183M18.366 52H26.549M10.183 22.202H2V52H10.183M10.183 22.202V2H27.2577V32.303M10.183 52V45.9394M10.183 52H26.549M26.549 52H27.2577M27.2577 45.9394V52M43.366 52V45.9394" stroke="#243B73" stroke-width="2"/>
<rect x="13.4019" y="4.54541" width="2.06186" height="2.0202" fill="#243B73"/>
<rect x="13.4019" y="9.59595" width="2.06186" height="2.0202" fill="#243B73"/>
<rect x="5.15479" y="24.2424" width="2.06186" height="2.0202" fill="#243B73"/>
<rect x="5.15479" y="28.7878" width="2.06186" height="2.0202" fill="#243B73"/>
<rect x="5.15479" y="33.8384" width="2.06186" height="2.0202" fill="#243B73"/>
<rect x="21.6494" y="33.8384" width="2.06186" height="2.0202" fill="#243B73"/>
<rect x="21.6494" y="38.8889" width="2.06186" height="2.0202" fill="#243B73"/>
<rect x="38.1445" y="9.59595" width="2.06186" height="2.0202" fill="#243B73"/>
<rect x="38.1445" y="14.6465" width="2.06186" height="2.0202" fill="#243B73"/>
<rect x="38.1445" y="19.6969" width="2.06186" height="2.0202" fill="#243B73"/>
<rect x="38.1445" y="24.2424" width="2.06186" height="2.0202" fill="#243B73"/>
<rect x="38.1445" y="29.2928" width="2.06186" height="2.0202" fill="#243B73"/>
<rect x="38.1445" y="34.3434" width="2.06186" height="2.0202" fill="#243B73"/>
<rect x="38.1445" y="38.8889" width="2.06186" height="2.0202" fill="#243B73"/>
<rect x="18.041" y="4.54541" width="2.06186" height="2.0202" fill="#243B73"/>
<rect x="18.041" y="9.59595" width="2.06186" height="2.0202" fill="#243B73"/>
<rect x="9.79395" y="24.2424" width="2.06186" height="2.0202" fill="#243B73"/>
<rect x="9.79395" y="28.7878" width="2.06186" height="2.0202" fill="#243B73"/>
<rect x="9.79395" y="33.8384" width="2.06186" height="2.0202" fill="#243B73"/>
<rect x="26.2886" y="33.8384" width="2.06186" height="2.0202" fill="#243B73"/>
<rect x="26.2886" y="38.8889" width="2.06186" height="2.0202" fill="#243B73"/>
<rect x="42.7837" y="9.59595" width="2.06186" height="2.0202" fill="#243B73"/>
<rect x="42.7837" y="14.6465" width="2.06186" height="2.0202" fill="#243B73"/>
<rect x="42.7837" y="19.6969" width="2.06186" height="2.0202" fill="#243B73"/>
<rect x="42.7837" y="24.2424" width="2.06186" height="2.0202" fill="#243B73"/>
<rect x="42.7837" y="29.2928" width="2.06186" height="2.0202" fill="#243B73"/>
<rect x="42.7837" y="34.3434" width="2.06186" height="2.0202" fill="#243B73"/>
<rect x="42.7837" y="38.8889" width="2.06186" height="2.0202" fill="#243B73"/>
</svg>
