<svg width="54" height="54" viewBox="0 0 54 54" fill="none" xmlns="http://www.w3.org/2000/svg">
<mask id="path-1-inside-1_98_1049" fill="white">
<path d="M52 27C52 40.8071 40.8071 52 27 52C13.1929 52 2 40.8071 2 27C2 13.1929 13.1929 2 27 2C38.8698 2 48.8075 10.2723 51.3626 21.3662C51.7796 23.1769 52 25.0627 52 27Z"/>
</mask>
<path d="M9.21831 27L10.0674 27.5283L10.5688 26.7224L9.7901 26.1796L9.21831 27ZM3.40845 22.9507L2.45977 22.6345L2.22337 23.3437L2.83666 23.7711L3.40845 22.9507ZM4.28873 20.3099V19.3099H3.56797L3.34005 19.9936L4.28873 20.3099ZM11.1549 20.3099L11.7971 19.5433L11.5185 19.3099H11.1549V20.3099ZM17.669 25.7676L18.6434 25.5427L18.5681 25.2163L18.3112 25.0011L17.669 25.7676ZM20.838 39.5L19.8636 39.7249L20.1188 40.8307L21.1837 40.4383L20.838 39.5ZM24.1831 38.2676L24.5288 39.2059L25.1831 38.9649V38.2676H24.1831ZM24.1831 31.4014L23.4379 30.7346L23.1831 31.0193V31.4014H24.1831ZM33.162 21.3662L34.0878 20.9883L33.4833 19.5073L32.4167 20.6994L33.162 21.3662ZM36.6831 29.993L35.7573 30.3709L35.9014 30.7241L36.2443 30.8915L36.6831 29.993ZM44.2535 33.6901L43.8147 34.5887L44.7183 35.03L45.1545 34.124L44.2535 33.6901ZM46.5423 28.9366L47.4433 29.3704L47.7841 28.6626L47.177 28.1639L46.5423 28.9366ZM41.6127 24.8873L40.8127 24.2873L40.2386 25.0527L40.9779 25.6601L41.6127 24.8873ZM44.2535 21.3662V20.3662H43.7535L43.4535 20.7662L44.2535 21.3662ZM25.5915 39.5L25.2753 38.5513L24.5915 38.7792V39.5H25.5915ZM25.5915 43.3732H24.5915V44.3732H25.5915V43.3732ZM29.4648 43.3732V44.3732H30.7571L30.4328 43.1223L29.4648 43.3732ZM5.13779 35.4508L10.0674 27.5283L8.36925 26.4717L3.43968 34.3942L5.13779 35.4508ZM9.7901 26.1796L3.98024 22.1303L2.83666 23.7711L8.64652 27.8204L9.7901 26.1796ZM4.35713 23.2669L5.23742 20.6261L3.34005 19.9936L2.45977 22.6345L4.35713 23.2669ZM4.28873 21.3099H11.1549V19.3099H4.28873V21.3099ZM10.5127 21.0764L17.0268 26.5341L18.3112 25.0011L11.7971 19.5433L10.5127 21.0764ZM16.6946 25.9925L19.8636 39.7249L21.8124 39.2751L18.6434 25.5427L16.6946 25.9925ZM21.1837 40.4383L24.5288 39.2059L23.8374 37.3293L20.4923 38.5617L21.1837 40.4383ZM25.1831 38.2676V31.4014H23.1831V38.2676H25.1831ZM24.9283 32.0682L33.9072 22.033L32.4167 20.6994L23.4379 30.7346L24.9283 32.0682ZM32.2361 21.7441L35.7573 30.3709L37.6089 29.6151L34.0878 20.9883L32.2361 21.7441ZM36.2443 30.8915L43.8147 34.5887L44.6924 32.7916L37.1219 29.0944L36.2443 30.8915ZM45.1545 34.124L47.4433 29.3704L45.6413 28.5028L43.3525 33.2563L45.1545 34.124ZM47.177 28.1639L42.2474 24.1146L40.9779 25.6601L45.9075 29.7093L47.177 28.1639ZM42.4127 25.4873L45.0535 21.9662L43.4535 20.7662L40.8127 24.2873L42.4127 25.4873ZM44.2535 22.3662H51.3626V20.3662H44.2535V22.3662ZM24.5915 39.5V43.3732H26.5915V39.5H24.5915ZM25.5915 44.3732H29.4648V42.3732H25.5915V44.3732ZM30.4328 43.1223C30.2076 42.2538 29.7227 40.9725 28.9623 39.9729C28.2118 38.9863 26.9432 37.9954 25.2753 38.5513L25.9078 40.4487C26.3526 40.3004 26.8152 40.4538 27.3705 41.1838C27.9158 41.9007 28.3112 42.9082 28.4968 43.6242L30.4328 43.1223ZM51.3626 21.3662L49.4136 21.8151L51.3626 21.3662ZM50 27C50 39.7025 39.7025 50 27 50V54C41.9117 54 54 41.9117 54 27H50ZM27 50C14.2975 50 4 39.7025 4 27H0C0 41.9117 12.0883 54 27 54V50ZM4 27C4 14.2975 14.2975 4 27 4V0C12.0883 0 0 12.0883 0 27H4ZM27 4C37.9177 4 47.063 11.6089 49.4136 21.8151L53.3116 20.9173C50.5521 8.93564 39.822 0 27 0V4ZM49.4136 21.8151C49.797 23.4796 50 25.2148 50 27H54C54 24.9106 53.7623 22.8742 53.3116 20.9173L49.4136 21.8151Z" fill="#243B73" mask="url(#path-1-inside-1_98_1049)"/>
</svg>
