<svg width="54" height="54" viewBox="0 0 54 54" fill="none" xmlns="http://www.w3.org/2000/svg">
<path d="M13.6418 9.41943H8.71642C6.0298 10.3872 7.40298 14.2259 9.91045 14.0969" stroke="#243B73" stroke-width="2"/>
<path d="M42.4479 17.4839C42.2987 16.5699 41.7614 14.7419 40.8061 14.7419C39.8509 14.7419 34.7365 14.7419 32.2987 14.7419C30.6568 15.5484 30.9852 19 32.2987 19.2581H37.0747C37.0747 20.2258 37.7911 21.5161 38.8657 21.5161H50.6568C52.2986 20.7097 52.0896 17.3226 50.6568 16.6774H44.3881" stroke="#243B73" stroke-width="2"/>
<path d="M46.3284 40.7097H52.0001V33.129C51.9503 31.4086 51.1045 28.2903 48.2687 28.2903H40.9553M40.9553 28.2903V23.6129M40.9553 28.2903C40.3923 29.9497 39.4606 32.4797 38.5261 34.5807M36.1792 38.2903C36.759 38.165 37.6438 36.564 38.5261 34.5807M38.5261 34.5807H27.6717C24.8359 35.2258 24.0896 37.8065 24.0896 40.3871" stroke="#243B73" stroke-width="2"/>
<path d="M16.7761 44.7419H36.7761" stroke="#243B73" stroke-width="2"/>
<path d="M39.6121 44.9032H43.0449" stroke="#243B73" stroke-width="2"/>
<path d="M20.9553 48.4517H24.3882" stroke="#243B73" stroke-width="2"/>
<path d="M25.8806 48.2903H38.4179" stroke="#243B73" stroke-width="2"/>
<path d="M26.0298 52H33.3432" stroke="#243B73" stroke-width="2"/>
<path d="M38.7166 4.0968C40.2091 4.0968 41.821 6.74196 41.7016 8.29035C42.0001 6.94626 43.0151 4.25809 44.6867 4.25809" stroke="#243B73" stroke-width="2"/>
<path d="M7.67163 40.7097H44.2388" stroke="#243B73" stroke-width="2"/>
<path d="M34.2388 21.3549C36.1791 23.1291 37.2238 28.4516 34.2388 32.3226" stroke="#243B73" stroke-width="2"/>
<path d="M21.0431 38.3621C19.4776 37.9088 18.0219 37.0935 16.7765 35.9726C15.5312 34.8518 14.5259 33.4521 13.8302 31.8702C13.1344 30.2884 12.7649 28.5621 12.747 26.8108C12.7292 25.0595 13.0634 23.3248 13.7267 21.7268C14.39 20.1288 15.3665 18.7054 16.5887 17.5552C17.8109 16.4049 19.2497 15.5552 20.8056 15.0647C22.3614 14.5743 23.9973 14.4547 25.6001 14.7144C27.2029 14.9741 28.7344 15.6068 30.0888 16.5688" stroke="#243B73" stroke-width="2"/>
<path d="M15.9831 40.8492C13.9586 39.5861 12.212 37.8629 10.8641 35.7989C9.51622 33.7348 8.59916 31.3791 8.17631 28.8945C7.75347 26.4099 7.83493 23.8558 8.41506 21.4085C8.99519 18.9613 10.0601 16.6794 11.5363 14.7205C13.0125 12.7616 14.8647 11.1725 16.9649 10.063C19.0651 8.95351 21.3632 8.35006 23.7004 8.29439C26.0376 8.23871 28.358 8.73214 30.5014 9.74056" stroke="#243B73" stroke-width="2"/>
</svg>
