<svg width="401" height="227" viewBox="0 0 401 227" fill="none" xmlns="http://www.w3.org/2000/svg">
<path d="M224.672 30.9472C283.758 17.2114 341.504 30.0848 362.99 38.2384C362.99 38.2384 353.135 31.8507 337.672 27.9888C322.208 24.127 302.804 23.1261 302.804 23.1261C234.048 15.9617 175.089 36.7364 145.021 47.5965C107.061 59.5201 51.7187 79.492 21.1753 122.412C-8.39333 163.962 16.426 193.023 56.7182 205.854C97.0105 218.685 178.595 206.746 231.804 195.18C303.292 179.64 372.37 124.586 387.378 93.9701C397.755 75.1672 390.096 57.5513 382.78 52.3192L369.949 44.3658C413.318 75.2666 369.869 117.314 335.549 141.682C232.821 201.058 156.755 206.307 64.7719 196.191C-6.70016 179.583 13.7825 129.414 47.4804 101.59C73.6129 76.5847 169.076 43.8716 224.672 30.9472Z" fill="#6B7BB1"/>
<ellipse cx="181.722" cy="67.8452" rx="181.722" ry="67.8452" transform="matrix(-0.968176 0.25027 0.229789 0.97324 359.257 1.74741)" fill="#243B73"/>
</svg>
