<svg width="245" height="99" viewBox="0 0 245 99" fill="none" xmlns="http://www.w3.org/2000/svg">
<path d="M63.0002 64.5L63.9728 64.7327L63.0002 64.5ZM153.5 58.5L152.733 57.8588L153.5 58.5ZM98.5 8.00002L98.7708 8.96268L98.8478 8.94102L98.9204 8.90739L98.5 8.00002ZM0.000117659 41.492C-0.00430074 42.0443 0.439819 42.4956 0.992085 42.5L9.9918 42.572C10.5441 42.5764 10.9953 42.1323 10.9998 41.58C11.0042 41.0277 10.5601 40.5765 10.0078 40.572L2.00805 40.508L2.07205 32.5083C2.07647 31.956 1.63235 31.5047 1.08009 31.5003C0.527819 31.4959 0.0765362 31.94 0.0721178 32.4923L0.000117659 41.492ZM1.70151 42.2127C3.00649 40.9285 4.27852 39.7081 5.52009 38.5483L4.15481 37.0868C2.89982 38.2592 1.61526 39.4916 0.298658 40.7873L1.70151 42.2127ZM13.4778 31.5913C16.4679 29.171 19.2777 27.132 21.9546 25.4092L20.8722 23.7274C18.1271 25.4941 15.2586 27.5768 12.2195 30.0368L13.4778 31.5913ZM31.1353 20.4451C34.5262 18.9699 37.7802 17.9547 41.0289 17.229L40.5928 15.2771C37.2299 16.0283 33.8538 17.0813 30.3374 18.6112L31.1353 20.4451ZM51.3925 15.7044C54.7425 15.4026 58.2076 15.2115 61.9538 14.9654L61.8227 12.9697C58.1055 13.2139 54.5952 13.4077 51.213 13.7125L51.3925 15.7044ZM72.5727 14.0725C75.8667 13.7116 79.3721 13.2331 83.1441 12.5621L82.7938 10.593C79.0714 11.2552 75.6106 11.7277 72.3549 12.0844L72.5727 14.0725ZM93.592 10.3341C95.2691 9.91798 96.9943 9.46233 98.7708 8.96268L98.2293 7.03737C96.4726 7.53145 94.7674 7.98182 93.1104 8.39298L93.592 10.3341ZM98.9204 8.90739C100.356 8.24214 101.782 7.63013 103.197 7.0697L102.46 5.21035C101.01 5.78487 99.5495 6.41179 98.0797 7.09266L98.9204 8.90739ZM112.022 4.18422C115.15 3.3798 118.198 2.83025 121.147 2.51508L120.935 0.526409C117.886 0.852207 114.742 1.41949 111.524 2.24725L112.022 4.18422ZM130.383 2.2913C133.589 2.49201 136.628 2.98918 139.468 3.74872L139.985 1.8166C137.011 1.02139 133.841 0.503857 130.508 0.295214L130.383 2.2913ZM147.985 7.10981C150.762 8.61861 153.222 10.4359 155.319 12.5077L156.725 11.0853C154.487 8.87422 151.874 6.94631 148.94 5.35242L147.985 7.10981ZM160.664 19.8112C162.01 22.4832 162.906 25.3815 163.297 28.4506L165.281 28.1978C164.862 24.9026 163.898 21.7857 162.451 18.9119L160.664 19.8112ZM163.011 37.5177C162.495 40.3379 161.578 43.2492 160.222 46.2172L162.041 47.0485C163.462 43.9402 164.43 40.871 164.978 37.8777L163.011 37.5177ZM155.572 54.1882C154.703 55.4085 153.757 56.6328 152.733 57.8588L154.268 59.1412C155.324 57.8771 156.301 56.612 157.201 55.3482L155.572 54.1882ZM152.733 57.8588C151.762 59.0206 150.746 60.1744 149.689 61.3177L151.158 62.6754C152.236 61.5088 153.274 60.3298 154.268 59.1412L152.733 57.8588ZM143.129 67.8122C140.878 69.8618 138.515 71.8549 136.066 73.7741L137.3 75.3482C139.785 73.3999 142.187 71.3751 144.475 69.2908L143.129 67.8122ZM128.593 79.2255C126.029 80.9658 123.41 82.616 120.766 84.1595L121.774 85.8869C124.458 84.3204 127.115 82.6459 129.716 80.8803L128.593 79.2255ZM112.617 88.5342C109.784 89.9231 106.956 91.1715 104.166 92.26L104.893 94.1231C107.738 93.013 110.618 91.7417 113.497 90.33L112.617 88.5342ZM95.436 95.1672C92.3083 96.018 89.2899 96.6187 86.4338 96.9409L86.6581 98.9283C89.6311 98.5929 92.7509 97.9703 95.961 97.097L95.436 95.1672ZM77.4085 96.9193C74.2121 96.4602 71.4366 95.4623 69.1724 93.8842L68.0288 95.525C70.6015 97.3182 73.6891 98.4056 77.1242 98.899L77.4085 96.9193ZM63.8777 87.1141C62.906 84.7101 62.3364 81.8043 62.2646 78.336L60.265 78.3774C60.3409 82.0383 60.9436 85.1919 62.0235 87.8636L63.8777 87.1141ZM63.034 69.2645C63.2837 67.8188 63.5956 66.3088 63.9728 64.7327L62.0277 64.2673C61.6414 65.8817 61.3206 67.4335 61.0632 68.9242L63.034 69.2645ZM63.9728 64.7327C64.3611 63.1103 64.8334 61.5351 65.3856 60.0058L63.5045 59.3265C62.9269 60.926 62.4333 62.5726 62.0277 64.2673L63.9728 64.7327ZM69.7416 51.1891C71.4979 48.4459 73.554 45.8786 75.8782 43.4792L74.4417 42.0876C72.0313 44.576 69.8905 47.2473 68.0573 50.1107L69.7416 51.1891ZM83.3464 36.9811C85.9475 35.0562 88.7507 33.2692 91.7299 31.6143L90.7587 29.8659C87.7111 31.5589 84.834 33.3921 82.1567 35.3734L83.3464 36.9811ZM100.684 27.2462C103.683 25.9618 106.806 24.7833 110.032 23.7059L109.398 21.8089C106.125 22.9022 102.95 24.0999 99.8966 25.4077L100.684 27.2462ZM119.634 20.8674C122.823 20.037 126.086 19.2916 129.403 18.6272L129.01 16.6661C125.658 17.3375 122.359 18.0913 119.13 18.9319L119.634 20.8674ZM139.283 16.9056C142.573 16.4135 145.898 15.9932 149.244 15.6411L149.034 13.6521C145.662 14.0071 142.307 14.431 138.987 14.9276L139.283 16.9056ZM159.247 14.7903C162.591 14.5714 165.94 14.4159 169.278 14.3204L169.221 12.3212C165.859 12.4174 162.486 12.574 159.116 12.7946L159.247 14.7903ZM179.326 14.2103C182.707 14.2323 186.061 14.3133 189.37 14.4493L189.452 12.451C186.12 12.314 182.744 12.2325 179.339 12.2103L179.326 14.2103ZM199.395 15.0372C202.806 15.2979 206.147 15.6165 209.399 15.988L209.626 14.001C206.349 13.6265 202.983 13.3056 199.547 13.043L199.395 15.0372ZM219.35 17.332C222.781 17.8708 226.071 18.4704 229.19 19.1235L229.6 17.166C226.445 16.5054 223.122 15.8999 219.66 15.3562L219.35 17.332ZM238.921 21.4892C240.588 21.9592 242.178 22.4463 243.684 22.9486L244.317 21.0514C242.778 20.5383 241.158 20.042 239.464 19.5642L238.921 21.4892Z" fill="#6B7BB1"/>
</svg>
