<svg width="174" height="70" viewBox="0 0 174 70" fill="none" xmlns="http://www.w3.org/2000/svg">
<path d="M56.9998 2.50009L57.2183 3.47592L56.9998 2.50009ZM0.0228987 32.2862C-0.0952183 32.8257 0.246385 33.3588 0.785891 33.4769L9.57765 35.4017C10.1172 35.5198 10.6503 35.1782 10.7684 34.6387C10.8865 34.0992 10.5449 33.5661 10.0054 33.448L2.19049 31.737L3.90145 23.9221C4.01957 23.3826 3.67796 22.8495 3.13846 22.7314C2.59895 22.6133 2.06584 22.9549 1.94773 23.4944L0.0228987 32.2862ZM1.53928 33.342C3.08445 32.3519 4.58182 31.3955 6.03303 30.4715L4.95893 28.7844C3.506 29.7095 2.00698 30.6669 0.460244 31.6581L1.53928 33.342ZM15.0423 24.7806C18.352 22.7085 21.3653 20.8449 24.1124 19.1683L23.0705 17.4612C20.3161 19.1422 17.2963 21.0098 13.981 23.0854L15.0423 24.7806ZM33.2276 13.7147C36.9696 11.5307 40.0013 9.84425 42.4877 8.53764L41.5573 6.76721C39.0377 8.09127 35.9792 9.79301 32.2194 11.9874L33.2276 13.7147ZM52.0188 4.36319C53.0705 4.07496 53.8607 3.962 54.6352 3.8691C55.4101 3.77614 56.2233 3.69871 57.2183 3.47592L56.7813 1.52425C55.9093 1.7195 55.2186 1.78478 54.397 1.88333C53.575 1.98194 52.676 2.1093 51.4902 2.43432L52.0188 4.36319ZM57.2183 3.47592C58.8215 3.11696 60.4211 2.84747 62.014 2.66195L61.7826 0.675378C60.1214 0.868857 58.4532 1.14991 56.7813 1.52425L57.2183 3.47592ZM71.7296 2.53491C74.9851 2.82142 78.1853 3.42785 81.3005 4.30491L81.8425 2.37975C78.6149 1.47106 75.2921 0.840706 71.9049 0.542613L71.7296 2.53491ZM90.4359 7.7334C93.4017 9.1306 96.2466 10.7558 98.9388 12.5558L100.05 10.8932C97.2798 9.04076 94.3485 7.36583 91.2882 5.92412L90.4359 7.7334ZM106.675 18.5603C109.167 20.792 111.447 23.1568 113.478 25.5893L115.013 24.3077C112.92 21.7998 110.572 19.3655 108.009 17.0704L106.675 18.5603ZM119.1 33.5677C120.842 36.5716 122.158 39.5601 122.994 42.4203L124.913 41.8597C124.026 38.8208 122.639 35.6843 120.831 32.5646L119.1 33.5677ZM123.852 51.8011C123.365 54.9262 121.955 57.6068 119.485 59.6454L120.758 61.188C123.64 58.8096 125.273 55.6725 125.828 52.1091L123.852 51.8011ZM110.916 63.3121C109.446 63.5883 107.836 63.7723 106.08 63.853L106.172 65.8509C108.011 65.7664 109.714 65.573 111.285 65.2777L110.916 63.3121ZM106.08 63.853C104.541 63.9237 103.024 63.952 101.529 63.9401L101.513 65.94C103.044 65.9522 104.597 65.9232 106.172 65.8509L106.08 63.853ZM92.454 63.3569C89.3474 62.9765 86.3687 62.4193 83.5328 61.7099L83.0474 63.6501C85.9639 64.3797 89.0236 64.9518 92.211 65.3421L92.454 63.3569ZM74.9063 58.9269C71.9803 57.7525 69.2712 56.408 66.8023 54.9326L65.7764 56.6494C68.3386 58.1806 71.142 59.5711 74.1613 60.783L74.9063 58.9269ZM59.535 49.6221C57.1552 47.4848 55.193 45.2175 53.6866 42.8976L52.0092 43.9868C53.6223 46.471 55.704 48.8697 58.1987 51.1101L59.535 49.6221ZM50.3544 34.8138C49.8399 31.8967 50.0949 29.0277 51.1915 26.3299L49.3387 25.5768C48.0903 28.6481 47.8098 31.901 48.3848 35.1612L50.3544 34.8138ZM56.3802 19.4333C57.4428 18.5329 58.6511 17.6715 60.0124 16.8587L58.9872 15.1415C57.5392 16.0059 56.2402 16.9304 55.0872 17.9075L56.3802 19.4333ZM60.0124 16.8587C61.3421 16.0648 62.8457 15.3386 64.5052 14.6852L63.7724 12.8243C62.0279 13.5112 60.4242 14.2835 58.9872 15.1415L60.0124 16.8587ZM74.3015 11.9945C77.4715 11.4167 80.893 11.0212 84.4934 10.8177L84.3805 8.82087C80.707 9.02854 77.2028 9.43268 73.9429 10.027L74.3015 11.9945ZM94.7515 10.7475C98.1021 10.8818 101.533 11.1665 104.997 11.607L105.249 9.62301C101.729 9.17531 98.2403 8.88569 94.8316 8.74909L94.7515 10.7475ZM115.135 13.3356C118.479 14.0539 121.807 14.9201 125.078 15.9385L125.673 14.0289C122.342 12.9918 118.955 12.1105 115.555 11.3802L115.135 13.3356ZM134.715 19.4711C137.893 20.8271 140.965 22.3454 143.886 24.0301L144.885 22.2976C141.889 20.5698 138.746 19.0163 135.5 17.6316L134.715 19.4711ZM152.352 29.7443C155.055 31.8836 157.538 34.2108 159.751 36.7305L161.254 35.4107C158.954 32.7925 156.382 30.3833 153.593 28.1761L152.352 29.7443ZM165.601 44.9999C167.215 47.9159 168.51 51.0325 169.434 54.3563L171.361 53.8206C170.394 50.3418 169.039 47.0803 167.351 44.0314L165.601 44.9999ZM171.019 64.3632C171.097 66.0145 171.093 67.709 171.001 69.4476L172.998 69.5527C173.093 67.7492 173.098 65.9879 173.017 64.2687L171.019 64.3632Z" fill="#6B7BB1"/>
</svg>
